<svg width="39" height="43" viewBox="0 0 39 43" fill="none" xmlns="http://www.w3.org/2000/svg">
<path d="M5.29767 31.048C1.94017 25.7215 2.69501 20.3722 3.82297 15.7898C4.93344 11.2792 4.9293 11.1413 4.92889 11.138C4.92889 11.138 11.5429 11.6887 15.0673 9.83564C18.5915 7.98229 19.4912 5.18359 19.4912 5.18359V42.7706C19.4912 42.7706 8.65527 36.3745 5.29767 31.048ZM33.6552 31.048C30.3049 36.3745 19.2217 42.9968 19.2217 42.9968L19.4912 5.18359C19.4912 5.18359 20.3891 7.98238 23.9061 9.83573C27.423 11.6888 34.0234 11.1381 34.0234 11.1381C34.023 11.1413 34.019 11.2792 35.1271 15.7899C36.2524 20.3722 37.0058 25.7215 33.6552 31.048Z" fill="#171923"/>
<path d="M6.89254 30.3335C3.9112 25.5994 4.58151 20.8451 5.58307 16.7725C6.58455 12.7 6.56523 12.6381 6.56523 12.6381C6.56523 12.6381 12.438 13.1275 15.5675 11.4806C18.6968 9.83347 19.4809 8.07422 19.4809 8.07422L19.4956 40.7522C19.4956 40.7523 9.87391 35.0675 6.89254 30.3335ZM32.0727 30.3335C29.0978 35.0675 19.4956 40.7522 19.4956 40.7522L19.4809 8.07422C19.4809 8.07422 20.2929 9.83356 23.4158 11.4807C26.5387 13.1276 32.3993 12.6383 32.3993 12.6383C32.3993 12.6383 32.3798 12.7001 33.3794 16.7726C34.3789 20.8452 35.0477 25.5996 32.0727 30.3335Z" fill="white"/>
<path d="M18.4927 9.77442L19.4816 8.07422L20.3519 10.0031L21.623 36.3527C21.623 36.3527 15.9387 36.544 16.238 36.3022C16.5372 36.0605 18.4927 9.77442 18.4927 9.77442Z" fill="white"/>
<path d="M6.69834 1.69336C6.69834 1.69336 4.08931 7.45121 5.03941 8.95023C6.22652 10.8238 8.17304 11.3692 8.17304 11.3692L11.1222 11.7414L12.7812 10.9971L14.2558 11.9275L14.8089 12.4859C14.8089 12.4859 16.2022 11.8529 17.5738 12.6719C18.9456 13.491 19.3359 13.8376 20.1545 13.23C20.9731 12.6226 22.1008 12.2869 22.7352 12.4859C23.3695 12.6845 24.0256 12.2998 24.0256 12.2998C24.0256 12.2998 23.8827 10.9845 25.3159 11.3693C26.749 11.7542 27.8965 11.7415 27.8965 11.7415L32.1361 10.4388C32.1361 10.4388 33.8982 8.81363 33.0578 5.60096C32.5298 3.58207 31.9518 1.87954 31.9518 1.87954C31.9518 1.87954 35.6185 3.47945 36.9287 6.34526C38.2389 9.21108 36.8735 13.2317 35.3092 13.9868C24.8218 19.0484 33.7773 16.9218 33.7951 17.6958C33.7951 17.6958 33.0379 20.7842 31.9518 21.6033C30.8655 22.4224 28.8181 22.906 28.8181 22.906L26.9748 23.2781C26.9748 23.2781 26.7706 24.6299 26.7905 24.9527C26.8105 25.2755 28.1838 26.3045 28.4495 27.1855C28.7151 28.0667 29.4127 29.2196 29.5555 30.1627C29.6984 31.1059 30.293 33.5121 30.293 33.5121C30.293 33.5121 27.5695 36.3524 25.8689 37.7917C24.1683 39.2311 19.2331 42.6299 19.2331 42.6299C19.2331 42.6299 10.4266 35.4221 9.46343 34.2565C8.50014 33.0906 8.35748 33.3261 8.35748 33.3261C8.35748 33.3261 8.70632 31.9489 9.46343 29.6046C10.2206 27.2605 10.9796 26.7388 11.1223 26.2555C11.2652 25.7719 12.0241 23.3894 12.0441 23.0922C12.064 22.7947 9.50497 23.0173 8.72604 22.9061C7.94704 22.7947 7.04072 21.5458 5.77666 20.301C1.90538 16.4885 8.10883 17.8462 9.46325 17.3238C9.46325 17.3238 2.74606 14.396 1.16833 11.3693C-0.113831 8.90952 0.902703 6.89074 2.45879 4.85665C3.92752 2.93652 6.69834 1.69336 6.69834 1.69336Z" fill="#FD0000"/>
<path d="M32.6018 20.0617C31.8876 21.3616 30.1367 22.5493 30.1367 22.5493L27.8956 22.7753L25.2063 23.0016C25.2063 23.0016 25.0991 23.8124 24.0858 24.3584C23.0725 24.9044 21.1724 24.1321 21.1724 24.1321L19.1553 22.3232L19.3796 20.9663C19.3796 20.9663 21.0651 20.7218 21.3965 20.5141C21.6728 20.341 21.6442 20.1427 21.627 20.0814L22.0689 21.4186C22.0689 21.4186 22.4844 19.5158 24.5339 19.1572C26.5835 18.7988 27.8956 19.8357 27.8956 19.8357C27.8956 19.8357 27.7884 18.988 28.792 18.9311C29.7956 18.8741 30.8511 19.1389 31.7054 18.9311C32.5597 18.7233 33.2742 17.5742 33.2742 17.5742C33.2742 17.5742 33.3163 18.7621 32.6018 20.0617ZM21.627 20.0814L21.6205 20.0618C21.6205 20.0617 21.6236 20.069 21.627 20.0814ZM26.788 27.732C26.5639 27.0534 23.6021 29.799 23.4134 29.7855C23.1567 29.7669 23.3712 29.1254 23.4134 28.4285C23.4555 27.7317 22.517 26.1672 22.517 26.1672C22.517 26.1672 23.3713 27.1655 23.6375 27.0718C23.9038 26.978 25.687 26.7132 25.4304 25.9411C25.1736 25.1691 25.4304 24.3583 25.4304 24.3583L27.4475 27.2979C27.4475 27.298 27.0121 28.4104 26.788 27.732ZM29.9125 34.3082C29.497 35.231 25.4724 38.2848 25.4304 37.9262C25.3882 37.5677 25.9208 33.1591 25.2063 31.5946C24.4917 30.03 24.5339 29.3331 24.5339 29.3331L26.7751 27.7502C26.7751 27.7502 27.3402 29.0132 27.6715 30.0117C28.0028 31.01 28.3113 30.9731 28.792 32.0467C29.2728 33.1204 30.3282 33.3852 29.9125 34.3082ZM23.1894 34.5342L22.741 34.9865L19.1553 35.4387V32.499C19.1553 32.499 19.7108 32.5174 20.276 32.2729C20.841 32.0284 21.0555 31.1605 22.9653 31.1423C24.8748 31.1239 23.1894 34.5342 23.1894 34.5342ZM17.5867 24.1231C17.5867 24.1231 15.6865 24.8942 14.6732 24.349C13.6601 23.8036 13.5528 22.9939 13.5528 22.9939L10.8634 22.7682L8.62241 22.5424C8.62241 22.5424 6.87167 21.3564 6.15717 20.0583C5.44268 18.7603 5.48484 17.5742 5.48484 17.5742C5.48484 17.5742 6.19934 18.7217 7.05368 18.9293C7.90802 19.1366 8.96338 18.8723 9.96704 18.9293C10.9709 18.9861 10.8635 19.8324 10.8635 19.8324C10.8635 19.8324 12.1756 18.7971 14.2252 19.155C16.2747 19.5131 16.6904 21.4132 16.6904 21.4132L17.1321 20.0777C17.1149 20.1389 17.0863 20.3369 17.3626 20.5101C17.6941 20.7175 19.3797 20.9616 19.3797 20.9616L19.6038 22.3165L17.5867 24.1231ZM17.1321 20.0777C17.1355 20.0656 17.1385 20.0583 17.1385 20.0583L17.1321 20.0777ZM15.3456 28.4137C15.3877 29.1095 15.6022 29.7502 15.3456 29.7685C15.1567 29.782 12.195 27.0405 11.971 27.7179C11.7468 28.3954 11.3116 27.2846 11.3116 27.2846L13.3285 24.3491C13.3285 24.3491 13.5853 25.1587 13.3285 25.9296C13.0719 26.7007 14.8552 26.965 15.1215 27.0588C15.3876 27.1524 16.2419 26.1554 16.2419 26.1554C16.2419 26.1554 15.3034 27.7179 15.3456 28.4137ZM13.5528 31.575C12.8382 33.1374 13.3708 37.54 13.3286 37.8981C13.2865 38.2559 9.26222 35.2067 8.84649 34.2849C8.4308 33.3633 9.48624 33.099 9.96695 32.0267C10.4477 30.9547 10.7562 30.9913 11.0875 29.9943C11.4189 28.9976 11.9839 27.7362 11.9839 27.7362L14.225 29.3169C14.225 29.3169 14.2672 30.0128 13.5528 31.575ZM16.0178 34.9624L15.5695 34.5106C15.5695 34.5106 13.884 31.1051 15.7938 31.1234C17.7033 31.1417 17.9178 32.0084 18.4831 32.2524C19.0482 32.4966 19.6036 32.4783 19.6036 32.4783V35.4139L16.0178 34.9624Z" fill="#A10000"/>
<path d="M37.2954 10.7892C36.7304 12.2398 34.6485 14.3891 33.4857 15.0859C32.3231 15.7827 27.8831 16.4427 27.8831 16.4427L26.3142 16.895C26.3142 16.895 25.5347 16.2736 25.1937 15.3121C24.8528 14.3505 24.7454 13.7292 24.7454 13.7292C24.7454 13.7292 28.448 13.937 30.7963 13.2769C33.1447 12.6169 34.9239 11.845 35.7268 9.65886C37.1041 5.90834 32.8134 2.64884 32.8134 2.64884C32.8134 2.64884 34.7229 3.2333 35.9508 4.91012C37.1788 6.58643 37.8606 9.33871 37.2954 10.7892ZM29.4518 18.2517C28.2239 18.3087 26.0902 18.4778 26.0902 18.4778C26.0902 18.4778 25.824 18.1947 25.1937 18.0255C24.5634 17.8563 28.1397 17.4409 28.3313 17.3472C28.5227 17.2535 32.1736 17.6672 32.8134 17.5733C33.4532 17.4795 30.6794 18.1948 29.4518 18.2517ZM13.0214 18.031C12.3866 18.1981 12.1185 18.4778 12.1185 18.4778C12.1185 18.4778 9.9692 18.3106 8.73265 18.2544C7.49599 18.1982 4.70252 17.4919 5.34694 17.5844C5.99116 17.677 9.66829 17.2684 9.86136 17.361C10.0543 17.4536 13.6561 17.8641 13.0214 18.031ZM30.3482 12.3721C27.477 13.2585 25.4177 12.3721 25.4177 12.3721C25.4177 12.3721 25.5996 12.2397 25.642 11.6939C25.6842 11.1479 26.8696 11.7123 30.1241 11.2416C33.3784 10.771 33.4855 7.17119 33.4855 7.17119C33.4855 7.17119 34.1159 8.16962 34.1579 9.4327C34.2001 10.6956 33.2195 11.4861 30.3482 12.3721ZM8.16154 12.4314C5.29032 11.5352 4.30958 10.7357 4.35174 9.4582C4.39391 8.18073 5.02407 7.17109 5.02407 7.17109C5.02407 7.17109 5.13126 10.8118 8.38551 11.2878C11.64 11.7638 12.8256 11.1931 12.8676 11.7453C12.9098 12.2975 13.0919 12.4315 13.0919 12.4315C13.0919 12.4315 11.0328 13.3277 8.16154 12.4314ZM17.3499 13.9551C15.4497 13.8615 14.4365 13.7291 14.4365 13.7291L14.8848 12.5984L16.2294 12.3721L19.367 13.503L21.3839 12.8245H24.0731V13.9551C24.0731 13.9551 18.4805 14.0109 17.3499 13.9551ZM13.3154 15.3119C12.9739 16.2734 12.1928 16.8948 12.1928 16.8948L10.6216 16.4425C10.6216 16.4425 6.17428 15.7825 5.00961 15.0858C3.84504 14.389 1.7595 12.2396 1.19355 10.789C0.62769 9.33851 1.31064 6.58633 2.54043 4.90971C3.77022 3.23299 5.68305 2.64844 5.68305 2.64844C5.68305 2.64844 1.38536 5.90794 2.76491 9.65841C3.56899 11.8446 5.35108 12.6164 7.70338 13.2765C10.0557 13.9365 13.7641 13.7288 13.7641 13.7288C13.7641 13.7288 13.6568 14.3504 13.3154 15.3119Z" fill="#FF4800"/>
<path d="M17.1333 23.4535L15.1163 23.9058C15.1163 23.9058 13.4542 23.3027 13.0995 22.775C12.7446 22.2475 13.3235 20.74 13.3235 20.74L13.9959 20.5137L15.5646 21.192L17.3575 22.7748L17.1333 23.4535ZM25.0791 22.775C24.7159 23.3027 23.0138 23.9058 23.0138 23.9058L20.9483 23.4535L20.7189 22.775L22.5548 21.1921L24.1612 20.5139L24.8497 20.7401C24.8497 20.7401 25.4426 22.2475 25.0791 22.775Z" fill="white"/>
<path d="M30.6524 17.0541C32.5175 16.9423 34.7109 16.9495 34.7109 16.9495C34.7109 16.9495 34.3833 18.2134 33.7898 19.3443C32.8573 21.1215 31.3804 22.9864 29.1843 23.2126C28.5326 23.2798 28.0399 23.2899 27.6723 23.2589C27.5495 24.3981 27.3443 24.97 27.5219 25.323C27.717 25.7108 28.9859 26.6406 29.5496 28.6723C30.1135 30.7039 30.9038 33.713 30.9038 33.713L26.0114 38.3586C25.9351 38.4721 25.8017 38.4328 25.8017 38.4328L25.6587 38.497L25.5283 38.5526C25.5283 38.5526 25.5547 38.6991 25.5394 38.6815L19.2276 43L12.8097 38.6815L12.6403 38.5597L12.6015 38.5281C12.6076 38.5314 12.5857 38.5175 12.5435 38.4684L7.98271 33.5103C7.98271 33.5103 8.34046 30.7039 8.90439 28.6725C9.46809 26.6407 10.7369 25.7109 10.9321 25.3231C11.1063 24.9767 10.9123 24.4197 10.7887 23.3227C10.4205 23.3541 9.92672 23.3442 9.27313 23.2762C7.07558 23.0476 5.59795 21.164 4.66484 19.3686C4.07119 18.2265 3.74316 16.9496 3.74316 16.9496C3.74316 16.9496 5.91294 16.9426 7.77198 17.0533C4.96708 16.0039 0.173921 13.5984 0 9.35055C0.00040447 3.20086 8.07593 0.286177 8.11932 0.405535C8.08241 0.370136 5.36943 3.75388 5.5116 7.72657C5.58026 10.3591 9.63756 10.9581 10.9952 11.2091L10.9321 11.0883C10.9321 11.0883 12.2025 10.0758 13.6971 10.8091C15.1917 11.5424 15.1717 11.9629 15.1717 11.9629C15.1717 11.9629 16.3193 11.6761 17.1994 11.9442C18.0796 12.2122 18.255 12.5221 18.6739 12.5396C18.8895 12.5487 19.0915 12.5674 19.227 12.5822L19.2014 12.5794C19.2014 12.5794 19.3612 12.5855 19.7818 12.5852C20.2024 12.5847 20.3785 12.2625 21.2615 12.0022C22.1447 11.7417 23.2962 12.0408 23.2962 12.0408C23.2962 12.0408 23.2763 11.6188 24.7761 10.8978C26.161 10.2319 27.3533 11.0572 27.5278 11.1874C28.9544 10.927 32.84 10.2999 32.9072 7.71677C33.0485 3.74001 30.3467 0.352691 30.3099 0.388294C30.3531 0.268733 38.3958 3.18627 38.3965 9.34239C38.2232 13.596 33.4455 16.0043 30.6524 17.0541ZM26.0473 30.719C26.3762 31.607 25.9877 32.8655 25.6961 33.4197C25.7186 33.4054 25.741 33.3909 25.7631 33.3766C25.9334 33.1994 26.1293 32.976 26.2319 32.7658C26.4666 32.2848 26.642 30.952 26.7849 30.719C26.9275 30.4862 27.1644 30.5488 27.5221 32.0215C27.88 33.4943 27.1535 36.3013 27.1535 36.3013C27.1535 36.3013 27.2563 35.914 27.8908 34.9987C28.5252 34.0836 29.8679 33.371 29.9185 33.138C29.969 32.9052 29.0998 31.3242 28.4438 29.7887C27.7877 28.2533 28.1475 28.0368 27.8908 27.928C27.6341 27.8192 27.3486 27.7579 26.6005 28.6723C25.8524 29.5869 25.1258 29.4165 25.1258 29.4165C25.1258 29.4165 25.6281 29.5873 26.0473 30.719ZM15.3561 29.0445C15.2902 30.0519 17.7525 31.0912 17.7525 31.0912C17.7525 31.0912 16.4513 30.5488 15.9091 30.3469C15.367 30.1451 14.0857 30.5177 14.0658 31.8356C14.0489 32.9494 14.4684 33.6483 14.8896 34.0684H14.9875C14.9875 34.0684 15.1721 34.3282 15.6055 34.5763C15.68 34.6109 15.7248 34.6266 15.7248 34.6266C15.7248 34.6266 15.7135 34.6261 15.6946 34.6251C16.0112 34.7915 16.4434 34.9443 17.015 34.9987C18.036 35.096 18.8173 35.1484 19.1999 35.1712C19.6054 35.1481 20.4242 35.0958 21.448 34.9987C22.0229 34.9442 22.4569 34.7909 22.775 34.6242C22.7462 34.6258 22.7292 34.6266 22.7292 34.6266C22.7292 34.6266 22.8093 34.5992 22.9343 34.5338C23.3176 34.2995 23.4832 34.0685 23.4832 34.0685H23.5644C23.9856 33.6484 24.405 32.9495 24.3882 31.8357C24.3683 30.5178 23.087 30.1452 22.5449 30.347C22.0027 30.5489 20.7015 31.0913 20.7015 31.0913C20.7015 31.0913 23.164 30.0519 23.098 29.0446C23.032 28.0369 22.3605 26.2534 22.3605 26.2534C22.3605 26.2534 23.0256 27.2144 23.2821 27.7419C23.5388 28.2694 23.4402 28.7961 23.8352 28.6723C24.23 28.5487 24.1778 27.9587 25.1257 27.5557C26.0735 27.153 26.7584 26.7956 26.2317 26.2533C25.7049 25.7108 25.5141 25.4931 25.4942 24.9507C25.4745 24.4084 25.4942 24.3925 25.4942 24.3925C25.4942 24.3925 24.5311 24.3456 24.3882 24.3925C24.2455 24.4393 24.5926 24.2526 24.9412 24.0203C25.29 23.7881 25.3098 23.4622 25.3098 23.4622C25.3098 23.4622 24.8354 23.9427 23.8352 24.0203C22.4329 24.1291 21.6232 23.6483 21.6232 23.6483C21.6232 23.6483 21.7967 24.6559 21.8075 25.323C21.8184 25.9901 21.2545 27.928 21.2545 27.928C21.2545 27.928 21.4718 26.0136 21.0702 25.1369C20.6001 24.1101 19.6319 23.8927 19.2269 23.8468C18.8221 23.8927 17.8537 24.1103 17.3836 25.1369C16.9819 26.0136 17.1993 27.928 17.1993 27.928C17.1993 27.928 16.6354 25.9901 16.6463 25.323C16.6571 24.6558 16.8306 23.6483 16.8306 23.6483C16.8306 23.6483 16.0209 24.1292 14.6186 24.0203C13.6184 23.9427 13.144 23.4622 13.144 23.4622C13.144 23.4622 13.1639 23.788 13.5126 24.0203C13.8613 24.2526 14.2083 24.4393 14.0656 24.3925C13.9227 24.3456 12.9596 24.3925 12.9596 24.3925C12.9596 24.3925 12.9795 24.4084 12.9596 24.9507C12.9397 25.493 12.7489 25.7108 12.2221 26.2533C11.6953 26.7956 12.3802 27.153 13.3281 27.5557C14.2759 27.9587 14.2235 28.5486 14.6186 28.6723C15.0134 28.7961 14.9148 28.2693 15.1716 27.7419C15.4281 27.2144 16.0932 26.2534 16.0932 26.2534C16.0932 26.2534 15.4221 28.0367 15.3561 29.0445ZM23.824 21.2484C22.6535 21.7327 21.8325 22.8905 21.5607 23.0382C21.501 23.0232 21.4685 23.0127 21.4685 23.0127C21.4813 23.0593 21.5124 23.0644 21.5607 23.0382C21.8458 23.1096 22.7632 23.2838 23.8353 22.9038C24.5802 22.6399 24.8292 21.8963 24.757 21.6012C24.6849 21.3064 25.0714 20.7323 23.824 21.2484ZM13.6972 21.6013C13.6249 21.8963 13.8739 22.6399 14.6188 22.9039C15.6911 23.2839 16.6083 23.1097 16.8936 23.0383C16.9418 23.0645 16.973 23.0594 16.9857 23.0128C16.9857 23.0128 16.9533 23.0233 16.8936 23.0383C16.6217 22.8906 15.8007 21.7328 14.6301 21.2485C13.383 20.7323 13.7694 21.3064 13.6972 21.6013ZM10.5635 27.9279C10.3068 28.0367 10.6665 28.2532 10.0105 29.7885C9.35451 31.3241 8.48526 32.9051 8.53582 33.1379C8.58638 33.3709 9.92914 34.0835 10.5635 34.9986C11.1979 35.9139 11.301 36.3012 11.301 36.3012C11.301 36.3012 10.5745 33.4942 10.9323 32.0214C11.2901 30.5488 11.5269 30.486 11.6696 30.7189C11.8124 30.9518 11.9878 32.2846 12.2226 32.7657C12.3163 32.9578 12.4882 33.1614 12.647 33.3303C12.6791 33.3522 12.7122 33.3742 12.7458 33.3959C12.4557 32.83 12.0828 31.5942 12.4071 30.7189C12.8264 29.5871 13.3286 29.4163 13.3286 29.4163C13.3286 29.4163 12.6021 29.5867 11.8541 28.6721C11.1057 27.7578 10.8201 27.8191 10.5635 27.9279ZM32.7309 2.50542C32.7309 2.50287 33.7956 4.1947 34.3056 7.34258C34.8135 10.4921 33.3597 11.4388 33.3635 11.4345C33.3632 11.4345 33.5681 10.9572 33.8048 10.2867C34.0399 9.61638 33.6859 9.35525 33.687 9.35525C33.6862 9.35504 33.1356 10.386 31.7912 11.1637C30.4564 11.9421 27.3268 12.0712 26.2652 12.0601C26.0298 12.0572 25.7964 12.1102 25.5755 12.1938C25.6614 12.0954 25.7526 12.0073 25.8462 11.9274C25.3176 12.0129 24.7381 12.2656 24.4063 12.9099C23.9753 13.7464 24.2213 15.5027 24.2213 15.5027C24.2213 15.5027 23.8623 14.8255 23.8513 14.3418C23.8405 13.858 23.8513 13.5952 23.8513 13.5952C23.8513 13.5952 23.5849 13.395 22.5566 13.2654C21.5285 13.1357 21.026 13.4231 20.337 13.7664C19.9088 13.9798 19.5843 14.0554 19.3998 14.0589C19.3998 14.0589 18.8081 14.061 18.1211 13.7121C17.4344 13.363 16.9339 13.0717 15.9092 13.191C14.8846 13.3102 14.6189 13.5073 14.6189 13.5073C14.6189 13.5073 14.6297 13.7695 14.6189 14.2515C14.6081 14.7337 14.2503 15.4053 14.2503 15.4053C14.2503 15.4053 14.4953 13.6567 14.066 12.8189C13.7202 12.144 13.0859 11.9198 12.5209 11.8678C12.6433 11.9642 12.7623 12.0736 12.8729 12.1995C12.6514 12.1161 12.4169 12.0631 12.1807 12.066C11.1149 12.0769 7.97279 11.9479 6.63259 11.1703C5.28267 10.3934 4.72986 9.36351 4.72896 9.36371C4.73017 9.36371 4.37474 9.6247 4.61085 10.2943C4.84837 10.9639 5.05414 11.441 5.05374 11.441C5.05748 11.445 3.59765 10.4996 4.10779 7.35329C4.61995 4.20847 5.68896 2.51827 5.68896 2.52103C5.70332 2.48798 1.83184 4.84647 1.63446 8.19095C1.49057 11.5047 3.60585 14.0007 6.73664 15.0351C9.05225 15.8023 11.8842 15.8164 13.1949 15.772C12.892 16.4438 12.4043 16.8806 11.8905 17.1651C12.1269 17.2538 12.4261 17.3687 12.7757 17.5079C13.6774 17.8673 13.8816 18.4383 13.8816 18.4383C13.8816 18.4383 13.1028 18.0789 11.8541 17.8801C11.6714 17.851 11.513 17.8312 11.3715 17.8174C11.2906 17.84 11.2061 17.8613 11.1166 17.8801C11.0356 17.8971 10.9559 17.9136 10.8773 17.9292C10.7502 17.8918 10.6249 17.8596 10.4994 17.8321C10.4085 17.8555 10.3793 17.8801 10.3793 17.8801L10.4395 17.8193C9.84911 17.6987 9.23931 17.6971 8.35169 17.8801C6.62036 18.237 5.40229 17.8801 5.40229 17.8801C5.40229 17.8801 5.72051 19.756 6.87699 21.0434C8.03367 22.3306 8.72036 22.1598 8.72036 22.1598C8.72036 22.1598 8.17817 21.9268 7.79867 21.0434C7.41918 20.1598 7.25649 19.6008 7.43 19.5547C7.60352 19.5086 8.91541 20.8105 9.64196 20.6712C10.2236 20.5598 10.2952 20.0009 10.6257 19.6153C10.7667 19.5887 10.9294 19.5672 11.1166 19.5547C11.3337 19.5402 11.5355 19.5326 11.7196 19.5288C11.566 19.619 11.4276 19.718 11.3421 19.854C11.9679 19.7527 13.1829 19.5975 14.066 19.7408C15.3057 19.942 16.4622 20.8573 16.4622 20.8573C16.4622 20.8573 16.4515 20.5008 16.278 20.113C16.1044 19.725 14.9877 19.3687 14.9877 19.3687C14.9877 19.3687 15.9291 19.4155 16.6466 19.9269C17.364 20.4384 17.8954 21.5243 18.1211 21.7876C18.2597 21.9489 18.7127 21.9823 19.0428 21.9841V21.9737C19.0428 21.9737 19.116 21.9789 19.2272 21.9821C19.3386 21.979 19.4115 21.9737 19.4115 21.9737V21.9841C19.7417 21.9823 20.1946 21.9489 20.3332 21.7876C20.5591 21.5243 21.0904 20.4384 21.8077 19.9269C22.5252 19.4155 23.4668 19.3687 23.4668 19.3687C23.4668 19.3687 22.3499 19.725 22.1764 20.113C22.0028 20.5008 21.9921 20.8573 21.9921 20.8573C21.9921 20.8573 23.1486 19.942 24.3883 19.7408C25.2826 19.5955 26.5169 19.7567 27.1357 19.8578C27.0525 19.7061 26.905 19.5992 26.7394 19.503C26.9235 19.5065 27.1252 19.5144 27.3422 19.5286C27.5295 19.541 27.692 19.5624 27.833 19.5887C28.1632 19.9704 28.2348 20.5235 28.8162 20.6339C29.542 20.7717 30.8534 19.4829 31.0269 19.5286C31.2002 19.5743 31.0375 20.1275 30.6583 21.0023C30.279 21.877 29.7371 22.1076 29.7371 22.1076C29.7371 22.1076 30.4234 22.2768 31.5794 21.0023C32.7353 19.7279 33.0532 17.8706 33.0532 17.8706C33.0532 17.8706 31.8358 18.224 30.1057 17.8706C29.2132 17.6883 28.6017 17.691 28.0083 17.8126L28.0751 17.88C28.0751 17.88 28.0436 17.8522 27.9385 17.8278C27.82 17.854 27.7017 17.8844 27.5816 17.9193C27.5032 17.9037 27.4234 17.8875 27.3424 17.8706C27.2614 17.8538 27.1848 17.8346 27.1108 17.8145C26.9627 17.8285 26.7955 17.8488 26.6006 17.88C25.3518 18.0787 24.5729 18.4382 24.5729 18.4382C24.5729 18.4382 24.7771 17.8673 25.6788 17.5078C26.0266 17.3691 26.3249 17.2546 26.5608 17.1661C26.0474 16.8814 25.5596 16.4443 25.2569 15.7702C26.5631 15.8145 29.3824 15.8002 31.6875 15.0323C34.8056 13.9968 36.9124 11.4983 36.7689 8.18125C36.5723 4.83321 32.7167 2.47226 32.7309 2.50542ZM25.2048 15.6457C25.1287 15.4546 25.0655 15.2474 25.0215 15.0188C25.012 14.9699 25.005 14.9228 24.9971 14.8754C25.4061 14.9362 25.9566 14.9881 26.5266 14.9524C27.6798 14.8792 30.3478 14.1749 30.3413 14.1758C30.3428 14.1756 29.1939 14.7132 28.1769 15.0712C27.4909 15.3136 26.0568 15.531 25.2048 15.6457ZM24.9279 14.1366C25.7687 14.0888 26.6027 14.042 27.4289 13.9955C26.6127 14.1923 25.7866 14.3905 24.9568 14.5895C24.9389 14.4313 24.9295 14.2802 24.9279 14.1366ZM11.0122 13.999C11.842 14.0456 12.6794 14.0926 13.5235 14.1401C13.5219 14.2838 13.5123 14.4343 13.4944 14.5926C12.6613 14.3936 11.8319 14.1956 11.0122 13.999ZM13.454 14.8781C13.446 14.9256 13.439 14.9727 13.4295 15.0215C13.3852 15.2499 13.3214 15.4565 13.2449 15.6476C12.3895 15.533 10.9497 15.3159 10.2611 15.0739C9.23994 14.7164 8.08656 14.1794 8.08787 14.1795C8.0814 14.1786 10.7603 14.8819 11.9181 14.9551C12.4904 14.991 13.0432 14.9391 13.454 14.8781ZM18.4862 33.3951C18.3959 33.5588 17.3801 33.9156 16.3211 33.5047C15.2622 33.0937 15.3005 32.5475 15.4095 32.1912C15.5185 31.8347 16.0504 31.6101 16.549 32.1912C17.3703 33.1482 18.5767 33.2316 18.4862 33.3951ZM21.9053 32.1912C22.4037 31.6101 22.9358 31.8347 23.0448 32.1912C23.1538 32.5475 23.1921 33.0937 22.1331 33.5047C21.074 33.9156 20.0584 33.5588 19.968 33.3951C19.8778 33.2316 21.0839 33.1482 21.9053 32.1912Z" fill="#171923"/>
<path d="M19.2358 35.7403C20.2262 35.7313 21.3048 35.34 21.4476 35.5543C21.5904 35.7686 20.8624 37.2752 19.2358 37.229C17.6088 37.1827 16.8894 35.9696 17.0236 35.7403C17.2032 35.4336 18.2451 35.7494 19.2358 35.7403Z" fill="#A10000"/>
<path d="M19.3757 36.3413C18.5373 36.4189 17.3994 35.9039 17.0312 35.7238C17.2415 35.448 18.2588 35.7493 19.229 35.7403C20.2196 35.7313 21.2982 35.34 21.441 35.5543C21.4634 35.5881 21.4643 35.654 21.4435 35.7408C21.0703 35.9031 20.159 36.2688 19.3757 36.3413Z" fill="#FD0000"/>
</svg>
