<svg width="209" height="275" viewBox="0 0 209 275" fill="none" xmlns="http://www.w3.org/2000/svg">
<path d="M45.4819 120.711C31.1262 97.1144 34.3536 73.4168 39.1765 53.1164C43.9258 33.1285 43.9068 32.5228 43.9053 32.5086C43.9053 32.5086 72.1847 34.948 87.2538 26.7388C102.322 18.5287 106.693 5.68359 106.693 5.68359L105.609 173.274C105.609 173.274 59.8376 144.308 45.4819 120.711ZM166.73 120.711C152.405 144.308 105.609 173.274 105.609 173.274L106.694 5.68389C106.694 5.68389 110.008 18.5287 125.045 26.7391C140.082 34.9483 168.304 32.5089 168.304 32.5089C168.302 32.5231 168.283 33.1306 173.022 53.1167C177.835 73.4165 181.056 97.1144 166.73 120.711Z" fill="white"/>
<path d="M52.0807 117.654C39.148 97.3183 42.0555 76.8951 46.4005 59.4002C50.6778 42.1793 50.6618 41.6526 50.6606 41.6401C50.6606 41.6401 76.1363 43.7425 89.7117 36.6675C103.287 29.5919 106.752 18.9065 106.752 18.9065V162.41C106.752 162.41 65.0134 137.991 52.0807 117.654ZM161.309 117.654C148.404 137.991 105.713 163.273 105.713 163.273L106.752 18.9062C106.752 18.9062 110.21 29.5916 123.756 36.6672C137.303 43.7422 162.726 41.6398 162.726 41.6398C162.725 41.6523 162.709 42.179 166.977 59.3999C171.312 76.8951 174.214 97.3183 161.309 117.654Z" fill="#242635"/>
<path d="M58.1996 114.912C46.7162 96.8378 49.2977 78.6862 53.1559 63.1374C57.0133 47.5887 56.9387 47.3525 56.9387 47.3525C56.9387 47.3525 79.5596 49.2209 91.6141 42.9329C103.668 36.6444 106.688 29.9277 106.688 29.9277L106.744 154.689C106.744 154.69 69.683 132.985 58.1996 114.912ZM155.189 114.912C143.73 132.986 106.744 154.69 106.744 154.69L106.688 29.928C106.688 29.928 109.816 36.6447 121.844 42.9332C133.873 49.2212 156.447 47.3528 156.447 47.3528C156.447 47.3528 156.373 47.589 160.223 63.1377C164.072 78.6859 166.648 96.8378 155.189 114.912Z" fill="white"/>
<path d="M102.819 36.7503L106.667 30.2734L110.053 37.6216L115 138C115 138 92.8797 138.728 94.0444 137.807C95.2091 136.887 102.819 36.7503 102.819 36.7503Z" fill="white"/>
<path d="M57.4314 5.5625C57.4314 5.5625 47.382 27.5454 51.0414 33.2684C55.6143 40.4213 63.1115 42.5038 63.1115 42.5038L74.4712 43.9248L80.8612 41.0829L86.5414 44.6352L88.6713 46.7666C88.6713 46.7666 94.0381 44.35 99.3214 47.4771C104.605 50.6042 106.109 51.9277 109.262 49.6079C112.415 47.2886 116.758 46.0073 119.202 46.7666C121.645 47.5253 124.172 46.0561 124.172 46.0561C124.172 46.0561 123.622 41.0347 129.142 42.5038C134.662 43.973 139.082 43.9248 139.082 43.9248L155.413 38.9515C155.413 38.9515 162.2 32.7465 158.963 20.481C156.929 12.773 154.703 6.27326 154.703 6.27326C154.703 6.27326 168.826 12.3816 173.873 23.3229C178.919 34.2641 173.66 49.6147 167.635 52.4973C127.239 71.8221 161.734 63.7032 161.802 66.6583C161.802 66.6583 158.886 78.4498 154.702 81.5766C150.518 84.7036 142.632 86.5498 142.632 86.5498L135.532 87.9707C135.532 87.9707 134.745 93.1318 134.822 94.3643C134.899 95.5967 140.189 99.5254 141.212 102.889C142.235 106.253 144.922 110.655 145.472 114.256C146.022 117.857 148.312 127.044 148.312 127.044C148.312 127.044 137.822 137.888 131.272 143.383C124.722 148.878 105.712 161.854 105.712 161.854C105.712 161.854 71.7912 134.336 68.0806 129.886C64.3703 125.434 63.8205 126.333 63.8205 126.333C63.8205 126.333 65.1642 121.075 68.0806 112.125C70.997 103.175 73.9212 101.183 74.4706 99.3378C75.021 97.4917 77.9442 88.3956 78.0209 87.2605C78.0975 86.1249 68.2407 86.9747 65.2409 86.5501C62.2401 86.1249 58.7494 81.3567 53.8803 76.6042C38.9689 62.0485 62.8636 67.2321 68.0806 65.2374C68.0806 65.2374 42.2072 54.0591 36.13 42.5041C31.1914 33.1128 35.1068 25.4054 41.1006 17.6395C46.7585 10.3085 57.4314 5.5625 57.4314 5.5625Z" fill="white"/>
<path d="M97.6453 88.65L89.8764 90.3768C89.8764 90.3768 83.474 88.0741 82.1075 86.0596C80.7404 84.0457 82.9706 78.2901 82.9706 78.2901L85.5604 77.4264L91.6024 80.0161L98.5082 86.0596L97.6453 88.65ZM128.252 86.0593C126.852 88.0741 120.297 90.3765 120.297 90.3765L112.341 88.6497L111.457 86.059L118.528 80.0155L124.716 77.4258L127.368 78.2895C127.368 78.2898 129.651 84.0454 128.252 86.0593Z" fill="white"/>
<path d="M149.719 64.2148C156.903 63.7881 165.352 63.8156 165.352 63.8156C165.352 63.8156 164.09 68.6412 161.804 72.9584C158.212 79.744 152.524 86.8637 144.065 87.7275C141.555 87.9837 139.657 88.0222 138.241 87.9041C137.768 92.2533 136.977 94.4371 137.661 95.784C138.413 97.265 143.3 100.815 145.472 108.572C147.644 116.328 150.688 127.817 150.688 127.817L131.843 145.553C131.549 145.986 131.036 145.836 131.036 145.836L130.485 146.081L129.983 146.294C129.983 146.294 130.084 146.853 130.026 146.785L105.714 163.273L105.712 163.244L105.712 163.273L80.9932 146.785C80.913 146.881 80.9932 146.785 80.9932 146.785L80.3407 146.321L80.1916 146.2C80.2149 146.213 80.1303 146.16 79.9679 145.972L62.4004 127.043C62.4004 127.043 63.7785 116.328 65.9507 108.572C68.122 100.815 73.0091 97.2653 73.761 95.7843C74.4321 94.4622 73.685 92.3356 73.2086 88.1474C71.7903 88.2675 69.8882 88.2296 67.371 87.9698C58.9061 87.0972 53.215 79.9056 49.6204 73.0507C47.3337 68.69 46.0702 63.8153 46.0702 63.8153C46.0702 63.8153 54.4279 63.7884 61.5885 64.2115C50.7845 60.205 32.3223 51.0208 31.6523 34.803C31.6535 11.3246 62.7594 0.196616 62.9263 0.652305C62.7839 0.517078 52.3341 13.4359 52.8819 28.6032C53.1464 38.6539 68.7745 40.9406 74.0037 41.899L73.7607 41.4377C73.7607 41.4377 78.6538 37.572 84.4108 40.3716C90.1679 43.1711 90.091 44.7767 90.091 44.7767C90.091 44.7767 94.5112 43.6815 97.9013 44.7056C101.291 45.7289 101.967 46.9122 103.581 46.9785C104.411 47.0131 105.189 47.0847 105.712 47.1406L105.613 47.1303C105.613 47.1303 106.228 47.1536 107.849 47.1525C109.469 47.1504 110.147 45.9206 113.548 44.9264C116.95 43.9322 121.386 45.0735 121.386 45.0735C121.386 45.0735 121.309 43.4626 127.086 40.7098C132.42 38.1677 137.013 41.3182 137.685 41.8153C143.18 40.821 158.147 38.4272 158.405 28.5651C158.95 13.3823 148.543 0.449611 148.401 0.585726C148.567 0.129445 179.547 11.2681 179.549 34.7713C178.881 51.0122 160.478 60.2068 149.719 64.2148ZM131.981 116.386C133.248 119.777 131.752 124.581 130.628 126.698C130.715 126.643 130.802 126.588 130.886 126.533C131.542 125.857 132.297 125.003 132.692 124.201C133.597 122.364 134.272 117.276 134.822 116.386C135.371 115.497 136.284 115.737 137.662 121.359C139.041 126.982 136.242 137.699 136.242 137.699C136.242 137.699 136.638 136.22 139.082 132.726C141.526 129.232 146.698 126.511 146.892 125.622C147.087 124.733 143.739 118.697 141.212 112.834C138.685 106.972 140.071 106.146 139.082 105.73C138.094 105.314 136.994 105.08 134.113 108.572C131.231 112.064 128.433 111.413 128.433 111.413C128.433 111.413 130.366 112.066 131.981 116.386ZM90.8008 109.993C90.5467 113.839 100.031 117.807 100.031 117.807C100.031 117.807 95.0192 115.737 92.9307 114.966C90.8429 114.195 85.9075 115.618 85.8309 120.649C85.7661 124.902 87.3817 127.57 89.0041 129.174H89.3811C89.3811 129.174 90.0922 130.166 91.7616 131.113C92.0481 131.246 92.2209 131.305 92.2209 131.305C92.2209 131.305 92.1774 131.304 92.1049 131.299C93.3243 131.935 94.9887 132.518 97.1906 132.726C101.123 133.097 104.133 133.298 105.606 133.385C107.168 133.296 110.322 133.097 114.266 132.726C116.48 132.518 118.152 131.933 119.377 131.296C119.266 131.302 119.201 131.305 119.201 131.305C119.201 131.305 119.51 131.201 119.991 130.951C121.467 130.056 122.105 129.174 122.105 129.174H122.418C124.04 127.57 125.656 124.902 125.591 120.649C125.515 115.618 120.579 114.195 118.491 114.966C116.403 115.737 111.391 117.807 111.391 117.807C111.391 117.807 120.875 113.839 120.621 109.993C120.367 106.146 117.781 99.3366 117.781 99.3366C117.781 99.3366 120.343 103.005 121.331 105.02C122.32 107.034 121.94 109.044 123.461 108.572C124.982 108.1 124.78 105.848 128.432 104.309C132.083 102.772 134.721 101.407 132.692 99.3366C130.662 97.2653 129.928 96.4341 129.851 94.3634C129.775 92.2926 129.851 92.232 129.851 92.232C129.851 92.232 126.142 92.0533 125.591 92.232C125.042 92.4107 126.378 91.6982 127.721 90.8111C129.065 89.9246 129.141 88.6803 129.141 88.6803C129.141 88.6803 127.314 90.5149 123.461 90.8111C118.06 91.2268 114.941 89.3907 114.941 89.3907C114.941 89.3907 115.61 93.2372 115.651 95.7843C115.693 98.3314 113.521 105.73 113.521 105.73C113.521 105.73 114.359 98.4211 112.812 95.0738C111.001 91.1543 107.271 90.3237 105.712 90.1482C104.152 90.3237 100.422 91.1543 98.6112 95.0738C97.0639 98.4211 97.9013 105.73 97.9013 105.73C97.9013 105.73 95.7291 98.3314 95.7714 95.7843C95.8128 93.2372 96.4813 89.3907 96.4813 89.3907C96.4813 89.3907 93.3625 91.2265 87.9614 90.8111C84.1087 90.5149 82.2812 88.6803 82.2812 88.6803C82.2812 88.6803 82.3579 89.9246 83.7016 90.8111C85.0444 91.6982 86.3812 92.4107 85.8315 92.232C85.2811 92.0533 81.5714 92.232 81.5714 92.232C81.5714 92.232 81.648 92.2926 81.5714 94.3634C81.4947 96.4341 80.76 97.2653 78.731 99.3366C76.7017 101.407 79.34 102.771 82.9911 104.309C86.6422 105.848 86.4404 108.1 87.9617 108.572C89.4826 109.044 89.103 107.034 90.0916 105.02C91.0796 103.006 93.6418 99.3366 93.6418 99.3366C93.6418 99.3366 91.0547 106.146 90.8008 109.993ZM123.418 80.229C118.909 82.0781 115.747 86.4983 114.7 87.0623C114.47 87.0049 114.345 86.9649 114.345 86.9649C114.394 87.1431 114.514 87.1623 114.7 87.0623C115.798 87.3351 119.332 88 123.461 86.5492C126.331 85.5411 127.29 82.7022 127.012 81.576C126.733 80.4498 128.222 78.2583 123.418 80.229ZM84.4108 81.576C84.1327 82.7022 85.0917 85.5411 87.9611 86.5492C92.0913 87.9997 95.6243 87.3348 96.7227 87.0623C96.9086 87.1623 97.0287 87.1431 97.0775 86.9649C97.0775 86.9649 96.9527 87.0049 96.7227 87.0623C95.6752 86.4983 92.5132 82.0781 88.0046 80.229C83.2003 78.2583 84.689 80.4498 84.4108 81.576ZM72.3404 105.73C71.3518 106.146 72.7375 106.972 70.2105 112.834C67.6835 118.697 64.3356 124.732 64.5303 125.622C64.725 126.511 69.8971 129.232 72.3407 132.726C74.7842 136.22 75.1811 137.699 75.1811 137.699C75.1811 137.699 72.3827 126.982 73.7607 121.359C75.1387 115.737 76.051 115.497 76.6005 116.386C77.1509 117.276 77.8261 122.364 78.7304 124.201C79.0914 124.934 79.7536 125.712 80.3653 126.357C80.4889 126.441 80.6159 126.524 80.7458 126.607C79.6279 124.447 78.1919 119.728 79.4409 116.387C81.0559 112.066 82.9905 111.414 82.9905 111.414C82.9905 111.414 80.1922 112.064 77.311 108.572C74.4292 105.081 73.3293 105.315 72.3404 105.73ZM157.725 8.66978C157.725 8.66001 161.826 15.1193 163.79 27.1376C165.747 39.1622 160.147 42.7761 160.162 42.7601C160.161 42.7601 160.95 40.9373 161.861 38.3778C162.767 35.8182 161.403 34.8213 161.408 34.8213C161.405 34.8207 159.284 38.7568 154.106 41.7256C148.964 44.6974 136.91 45.1903 132.821 45.148C131.914 45.1371 131.015 45.3392 130.164 45.6582C130.495 45.2827 130.846 44.9462 131.206 44.6411C129.17 44.9678 126.938 45.9322 125.66 48.3923C124 51.5857 124.947 58.2911 124.947 58.2911C124.947 58.2911 123.564 55.7061 123.522 53.8591C123.48 52.0121 123.522 51.0084 123.522 51.0084C123.522 51.0084 122.496 50.244 118.535 49.749C114.575 49.254 112.64 50.3512 109.985 51.6623C108.336 52.4769 107.086 52.7657 106.376 52.7787C106.376 52.7787 104.096 52.787 101.45 51.4546C98.805 50.1221 96.8772 49.0098 92.9301 49.4655C88.9837 49.9206 87.9605 50.6731 87.9605 50.6731C87.9605 50.6731 88.0019 51.6741 87.9605 53.5144C87.9185 55.3552 86.5401 57.9195 86.5401 57.9195C86.5401 57.9195 87.4841 51.2436 85.8303 48.0449C84.4984 45.4682 82.0549 44.6121 79.8788 44.4139C80.3505 44.782 80.8088 45.1995 81.2349 45.68C80.3815 45.3617 79.4784 45.1596 78.5685 45.1705C74.4632 45.2119 62.3605 44.7196 57.1982 41.7508C51.9986 38.7846 49.8693 34.8527 49.8657 34.8533C49.8705 34.8533 48.5013 35.8496 49.4106 38.4062C50.3256 40.9628 51.118 42.7844 51.1168 42.7844C51.1313 42.7994 45.5083 39.19 47.4734 27.1776C49.4458 15.1708 53.5636 8.71801 53.5636 8.72837C53.6189 8.60202 38.7067 17.6066 37.9465 30.3757C37.392 43.0273 45.5399 52.5568 57.5991 56.5059C66.5182 59.4354 77.4264 59.4886 82.475 59.3194C81.3083 61.8837 79.4296 63.5517 77.4506 64.6379C78.3614 64.977 79.5136 65.4153 80.86 65.947C84.3336 67.3188 85.1201 69.4987 85.1201 69.4987C85.1201 69.4987 82.1203 68.1269 77.3107 67.3679C76.607 67.2567 75.9968 67.1815 75.4521 67.1282C75.1399 67.2146 74.8147 67.296 74.4703 67.3679C74.1581 67.4327 73.851 67.4957 73.5486 67.5558C73.0591 67.4129 72.5765 67.2901 72.093 67.185C71.743 67.2741 71.6305 67.3679 71.6305 67.3679L71.8625 67.1359C69.5882 66.6755 67.2393 66.6693 63.8202 67.3679C57.1511 68.7308 52.4596 67.3679 52.4596 67.3679C52.4596 67.3679 53.6852 74.5299 58.1397 79.4452C62.5951 84.3598 65.2402 83.7073 65.2402 83.7073C65.2402 83.7073 63.1517 82.8182 61.69 79.4452C60.2282 76.0716 59.6015 73.9375 60.2696 73.7615C60.9381 73.5854 65.9912 78.556 68.7896 78.0242C71.0301 77.599 71.3056 75.4647 72.5786 73.9929C73.1219 73.8914 73.7483 73.8091 74.4697 73.7615C75.3059 73.7061 76.0833 73.6771 76.7922 73.6626C76.2004 74.0065 75.6675 74.3849 75.3382 74.9039C77.7486 74.5172 82.4283 73.9242 85.83 74.4716C90.6049 75.2401 95.0598 78.7344 95.0598 78.7344C95.0598 78.7344 95.0183 77.3736 94.3499 75.8926C93.6814 74.411 89.3802 73.0507 89.3802 73.0507C89.3802 73.0507 93.0065 73.2294 95.7702 75.1821C98.5334 77.1348 100.58 81.2806 101.45 82.2861C101.984 82.9019 103.728 83.0297 105 83.0365V82.9966C105 82.9966 105.282 83.0167 105.71 83.0283C106.139 83.0164 106.42 82.9966 106.42 82.9966V83.0365C107.692 83.0297 109.437 82.9019 109.971 82.2861C110.841 81.2809 112.887 77.1348 115.65 75.1821C118.414 73.2294 122.041 73.0507 122.041 73.0507C122.041 73.0507 117.739 74.411 117.07 75.8926C116.402 77.3736 116.36 78.7344 116.36 78.7344C116.36 78.7344 120.815 75.2401 125.59 74.4716C129.035 73.9171 133.789 74.5323 136.172 74.9184C135.852 74.3391 135.284 73.931 134.646 73.5638C135.355 73.5777 136.132 73.6073 136.968 73.6618C137.689 73.7088 138.315 73.7902 138.858 73.8911C140.13 75.3487 140.406 77.46 142.645 77.8819C145.441 78.408 150.491 73.4872 151.16 73.662C151.827 73.8366 151.201 75.9488 149.74 79.2883C148.28 82.6279 146.192 83.5082 146.192 83.5082C146.192 83.5082 148.836 84.1539 153.289 79.2883C157.74 74.4228 158.965 67.3321 158.965 67.3321C158.965 67.3321 154.276 68.6811 147.612 67.3321C144.174 66.6361 141.819 66.6465 139.533 67.1105L139.791 67.3679C139.791 67.3679 139.669 67.2617 139.265 67.1685C138.808 67.2685 138.353 67.3845 137.89 67.5179C137.587 67.4585 137.28 67.3963 136.968 67.3321C136.656 67.2679 136.361 67.1948 136.076 67.1182C135.506 67.1714 134.862 67.2493 134.111 67.3682C129.301 68.1269 126.301 69.499 126.301 69.499C126.301 69.499 127.087 67.3194 130.561 65.9473C131.9 65.4176 133.049 64.9806 133.958 64.6424C131.98 63.5555 130.101 61.8869 128.935 59.3129C133.966 59.4821 144.826 59.4274 153.705 56.4959C165.715 52.5423 173.83 43.0033 173.277 30.3393C172.522 17.5572 157.67 8.54343 157.725 8.66978ZM128.736 58.8385C128.443 58.1088 128.2 57.3176 128.03 56.4447C127.993 56.2583 127.966 56.0786 127.936 55.8973C129.512 56.1298 131.632 56.3281 133.827 56.1914C138.269 55.9118 148.546 53.2232 148.521 53.2267C148.527 53.2262 144.102 55.2788 140.184 56.645C137.542 57.57 132.018 58.4 128.736 58.8385ZM127.669 53.0761C130.907 52.8939 134.12 52.7151 137.303 52.5376C134.159 53.2889 130.977 54.0455 127.781 54.8057C127.712 54.2014 127.676 53.625 127.669 53.0761ZM74.0688 52.5512C77.2648 52.7287 80.4904 52.9081 83.7418 53.0897C83.7356 53.638 83.6989 54.213 83.6299 54.8172C80.4206 54.0579 77.226 53.3019 74.0688 52.5512ZM83.4746 55.9076C83.4435 56.0893 83.4166 56.2686 83.3799 56.455C83.2095 57.3271 82.9636 58.1156 82.6689 58.8453C79.374 58.4077 73.8285 57.5792 71.1757 56.6554C67.2423 55.2904 62.7999 53.2398 62.8049 53.2404C62.7801 53.2368 73.0988 55.9221 77.5583 56.2017C79.7628 56.3384 81.8921 56.1402 83.4746 55.9076ZM102.857 126.604C102.509 127.229 98.597 128.591 94.518 127.022C90.4389 125.453 90.5866 123.368 91.0065 122.007C91.4264 120.647 93.4755 119.789 95.3956 122.007C98.5591 125.661 103.206 125.979 102.857 126.604ZM116.027 122.007C117.947 119.789 119.996 120.647 120.416 122.007C120.836 123.368 120.983 125.453 116.904 127.022C112.825 128.591 108.913 127.229 108.565 126.604C108.217 125.979 112.863 125.661 116.027 122.007Z" fill="#242635"/>
<path d="M105.711 135.568C109.526 135.534 113.68 134.04 114.23 134.858C114.78 135.676 111.976 141.428 105.711 141.252C99.4442 141.075 96.6728 136.444 97.1898 135.568C97.8819 134.397 101.895 135.603 105.711 135.568Z" fill="white"/>
<path d="M106.276 137.862C103.047 138.159 98.6644 136.192 97.2461 135.505C98.056 134.452 101.974 135.602 105.712 135.568C109.527 135.534 113.681 134.04 114.231 134.858C114.318 134.987 114.321 135.238 114.241 135.57C112.804 136.189 109.294 137.585 106.276 137.862Z" fill="white"/>
<path d="M93.1532 183.51V199.404L95.2834 199.485V206.121H91.4334C90.1768 206.121 88.2447 206.121 85.6376 206.121C83.0297 206.121 81.0711 206.121 79.76 206.121V199.404L82.0539 199.485V187.009C82.0539 186.515 82.0539 186.021 82.0539 185.527C82.1358 185.06 82.1904 184.731 82.2177 184.539L82.3406 183.592L81.6035 185.516L81.2349 186.745L74.2716 206.121H69.4797L62.7222 186.704C62.5584 186.268 62.4008 185.735 62.2507 185.107C62.1005 184.479 61.9839 183.946 61.902 183.51L61.8611 185.516V187.073V199.404L64.0731 199.485V206.121H58.7489H53.138V199.404L55.3493 199.485V183.387L53.138 183.51V176.709L57.5243 176.791C58.8913 176.791 60.9812 176.765 63.797 176.709C66.6124 176.655 68.7437 176.627 70.1934 176.627L73.1035 185.148L73.1854 185.393L73.5138 186.704L74.0469 188.998L74.1288 187.851C74.2107 187.333 74.3055 186.847 74.4155 186.397C74.5247 185.946 74.6612 185.531 74.825 185.147L78.1056 176.627L86.6333 176.791H95.3247V183.386L93.1532 183.51ZM123.667 183.387L115.23 206.121H105.891L97.6585 183.387H95.1598V176.627L99.6241 176.75C100.908 176.75 102.819 176.75 105.359 176.75C107.898 176.75 109.795 176.75 111.052 176.75V183.469L108.922 183.387L111.789 192.357C112.035 193.123 112.212 193.928 112.321 194.774C112.43 195.621 112.485 196.454 112.485 197.273C112.485 196.614 112.553 195.9 112.69 195.13C112.744 194.773 112.84 194.314 112.976 193.751C113.113 193.187 113.277 192.671 113.469 192.205L116.663 183.305L114.451 183.387V176.627L117.318 176.75C117.809 176.75 118.179 176.75 118.424 176.75C118.86 176.75 119.188 176.75 119.407 176.75C119.789 176.75 120.076 176.75 120.267 176.75C120.595 176.75 120.84 176.75 121.004 176.75C121.277 176.75 121.495 176.75 121.659 176.75C121.905 176.75 122.096 176.75 122.233 176.75C122.451 176.75 122.615 176.75 122.725 176.75C123.216 176.75 123.708 176.75 124.199 176.75C124.69 176.75 125.195 176.75 125.714 176.75C125.905 176.75 126.042 176.75 126.124 176.75V183.469L123.667 183.387ZM155.982 187.786C155.516 189.748 154.517 191.335 152.985 192.547C151.451 193.76 149.425 194.488 146.908 194.733C146.635 194.761 146.333 194.782 146.005 194.795C145.675 194.809 145.43 194.815 145.266 194.815H139.312V199.322L142.097 199.404V206.121H125.674V199.322L128.171 199.404V183.428H125.674V176.627L141.565 176.709H144.473C148.159 176.709 151.039 177.527 153.115 179.162C155.19 180.797 156.227 182.935 156.227 185.579C156.228 186.259 156.146 186.996 155.982 187.786ZM140.787 182.977H139.6H139.313V188.753H140.664C142.111 188.753 143.135 188.576 143.736 188.221C144.336 187.866 144.719 187.237 144.883 186.336C144.937 185.954 144.965 185.695 144.965 185.558C144.965 183.837 143.572 182.977 140.787 182.977ZM31.1637 221.922C30.6976 223.884 29.6984 225.471 28.1662 226.683C26.6339 227.896 24.6082 228.625 22.09 228.87C21.8162 228.897 21.5148 228.918 21.1864 228.932C20.858 228.945 20.6123 228.952 20.4485 228.952H14.4944V233.458L17.2798 233.54V240.258H0.855469V233.458L3.35418 233.54V217.564H0.855469V210.764L16.7474 210.846H19.6549C23.3411 210.846 26.2224 211.664 28.2972 213.299C30.372 214.934 31.4101 217.073 31.4101 219.715C31.4105 220.396 31.3275 221.132 31.1637 221.922ZM15.9698 217.114H14.7815H14.4948V222.89H15.8469C17.2938 222.89 18.3176 222.712 18.9182 222.357C19.5188 222.002 19.901 221.374 20.0655 220.473C20.1194 220.091 20.1474 219.831 20.1474 219.695C20.1474 217.974 18.7544 217.114 15.9698 217.114ZM65.1593 233.54V240.258H54.1239L48.8516 228.296H45.8268V233.458L48.1207 233.54V240.258H32.1059V233.458L34.6046 233.54V217.482L32.1059 217.564V210.764C33.8266 210.764 36.4949 210.764 40.1137 210.764C43.7309 210.764 46.1142 210.764 47.2608 210.764H50.8651C54.9328 210.764 58.0184 211.497 60.1217 212.961C62.2238 214.427 63.2748 216.5 63.2748 219.183C63.2748 220.826 62.8926 222.305 62.1282 223.619C61.3638 224.933 60.2984 225.891 58.9334 226.494L63.152 233.54H65.1593ZM47.7931 217.155H45.8268V222.89H46.3599H47.8341C50.1 222.89 51.3284 222.039 51.5203 220.336C51.5468 220.225 51.5613 220.057 51.5613 219.834C51.5613 218.048 50.3047 217.155 47.7931 217.155ZM93.2152 236.402C90.2388 239.3 86.4293 240.75 81.7876 240.75C80.9686 240.75 79.9858 240.681 78.8384 240.545C74.7154 239.971 71.4519 238.315 69.0495 235.582C66.6463 232.847 65.4451 229.483 65.4451 225.49C65.4451 221.115 66.9268 217.485 69.8896 214.599C72.8516 211.715 76.6536 210.272 81.2962 210.272C81.6511 210.272 81.9724 210.272 82.2591 210.272C82.5457 210.272 83.2072 210.341 84.2457 210.477C88.3407 211.052 91.6038 212.707 94.0346 215.441C96.4643 218.176 97.6791 221.525 97.6791 225.49C97.6788 229.866 96.1909 233.504 93.2152 236.402ZM84.7777 218.715C84.2863 217.758 83.5347 217.156 82.5247 216.909C82.1152 216.827 81.733 216.786 81.3781 216.786C80.0677 216.786 79.1048 217.457 78.4905 218.798C77.8763 220.139 77.5686 222.37 77.5686 225.49C77.5686 228.638 77.8689 230.882 78.4695 232.225C79.0701 233.566 80.0263 234.236 81.3367 234.236C81.527 234.236 81.7388 234.216 81.972 234.175C82.2033 234.134 82.3878 234.1 82.5243 234.071C83.6709 233.798 84.4563 232.923 84.8795 231.444C85.3026 229.967 85.5148 227.243 85.5148 223.274C85.5148 221.193 85.2691 219.674 84.7777 218.715ZM112.67 217.605V236.684L112.629 238.237C112.629 242.021 111.645 244.609 109.68 245.998C107.823 247.306 104.464 247.959 99.6042 247.959H98.5804V240.709L98.8671 240.832C98.9755 240.832 99.0718 240.832 99.1537 240.832C99.2356 240.832 99.2902 240.832 99.3175 240.832C100.519 240.832 101.201 240.122 101.365 238.702L101.406 238.333V237.964V236.94V217.524L98.949 217.605V210.764L103.127 210.887C104.437 210.887 106.409 210.887 109.044 210.887C111.68 210.887 113.666 210.887 115.004 210.887V217.524L112.67 217.605ZM128.971 240.258H116.028V233.54L118.485 233.622V217.482L116.028 217.564V210.764H142.364L142.323 215.68V220.432H135.155V217.605L129.749 217.565V222.521H134.827V228.42L129.749 228.461V233.418H135.769V230.673H142.937C142.937 231.438 142.937 232.613 142.937 234.196C142.937 235.78 142.937 236.968 142.937 237.76V240.258H128.971ZM174.597 217.155C174.597 218.848 174.597 220.131 174.597 221.005H166.729C166.511 219.558 165.763 218.398 164.487 217.523C163.943 217.168 163.386 216.929 162.815 216.806C162.244 216.683 161.768 216.621 161.387 216.621C159.811 216.621 158.663 217.453 157.943 219.114C157.222 220.777 156.863 223.515 156.863 227.329C156.863 229.727 157.224 231.491 157.947 232.622C158.671 233.752 159.756 234.318 161.204 234.318C161.614 234.318 162.132 234.25 162.76 234.113C163.743 233.867 164.576 233.307 165.258 232.434C165.941 231.56 166.391 230.358 166.61 228.828L166.692 227.682L175.334 229.484C175.334 229.839 175.32 230.112 175.294 230.303C175.265 230.494 175.212 230.822 175.13 231.286C174.638 233.882 173.477 235.943 171.648 237.471C169.818 239.002 167.239 240.011 163.907 240.504C162.787 240.668 161.722 240.749 160.712 240.749C156.098 240.749 152.295 239.324 149.305 236.474C146.316 233.624 144.821 230.072 144.821 225.817C144.821 224.59 144.957 223.39 145.23 222.217C145.776 219.545 146.909 217.26 148.63 215.365C150.35 213.47 152.562 212.072 155.264 211.172C157.039 210.572 158.773 210.272 160.466 210.272C161.613 210.272 162.698 210.409 163.723 210.681C164.746 210.954 165.695 211.336 166.569 211.828L167.593 212.525V210.722H174.719L174.596 213.385C174.597 214.205 174.597 215.461 174.597 217.155ZM201.711 223.831V217.646H197.533V233.54L200.114 233.458V240.258H183.771V233.54L186.27 233.458V217.687L182.133 217.646V223.831H175.62L175.661 210.764H208.142C208.142 211.121 208.142 211.435 208.142 211.709C208.142 211.983 208.142 212.216 208.142 212.407C208.142 213.038 208.142 213.518 208.142 213.846C208.142 214.394 208.142 214.805 208.142 215.079C208.142 215.572 208.142 215.928 208.142 216.147C208.142 216.586 208.142 216.901 208.142 217.092C208.142 217.476 208.142 217.763 208.142 217.955C208.142 218.284 208.142 218.531 208.142 218.695C208.142 218.969 208.142 219.188 208.142 219.352C208.142 219.6 208.142 219.791 208.142 219.928C208.142 220.147 208.142 220.312 208.142 220.421C208.142 220.914 208.142 221.415 208.142 221.922C208.142 222.429 208.142 222.928 208.142 223.421C208.142 223.613 208.142 223.749 208.142 223.831H201.711ZM14.5327 269.843V267.325H14.4964C14.1368 268.124 13.5491 268.768 12.7301 269.256C11.9111 269.745 10.9966 269.99 9.98646 269.99C8.67412 269.99 7.61138 269.638 6.7959 268.933C5.98159 268.228 5.57365 267.309 5.57365 266.176C5.57365 265.051 5.98509 264.169 6.80838 263.53C7.63088 262.89 8.83324 262.514 10.4139 262.4L14.4589 262.13V261.005C14.4589 260.044 14.1676 259.298 13.5854 258.769C13.0031 258.239 12.1821 257.974 11.1229 257.974C10.2021 257.974 9.44047 258.196 8.83714 258.64C8.2346 259.085 7.85981 259.698 7.71317 260.481H6.16059C6.22611 259.323 6.72492 258.376 7.6574 257.639C8.59027 256.901 9.74934 256.532 11.1346 256.532C12.6423 256.532 13.842 256.923 14.7335 257.705C15.6262 258.488 16.072 259.543 16.072 260.871V269.844H14.5327V269.843ZM14.4589 263.438L10.6097 263.707C9.5013 263.78 8.66047 264.027 8.08523 264.446C7.51115 264.867 7.22333 265.448 7.22333 266.189C7.22333 266.898 7.5092 267.472 8.07977 267.912C8.64955 268.352 9.39094 268.572 10.3039 268.572C11.4852 268.572 12.4735 268.22 13.2679 267.515C14.0623 266.811 14.4589 265.936 14.4589 264.893V263.438ZM29.2893 269.843V261.629C29.2893 260.472 28.9719 259.574 28.3358 258.933C27.7005 258.295 26.8207 257.974 25.6959 257.974C24.5228 257.974 23.5755 258.356 22.8548 259.117C22.1333 259.879 21.7729 260.876 21.7729 262.106V269.844H20.1595V256.679H21.6754V259.136H21.7238C22.0904 258.313 22.6567 257.673 23.4226 257.217C24.189 256.761 25.0969 256.532 26.1479 256.532C27.5983 256.532 28.7531 256.966 29.613 257.834C30.4722 258.702 30.9024 259.881 30.9024 261.372V269.844H29.2893V269.843ZM43.4224 269.843V267.325H43.385C43.0266 268.124 42.4385 268.768 41.6195 269.256C40.8005 269.745 39.8859 269.99 38.8758 269.99C37.5635 269.99 36.5 269.638 35.6853 268.933C34.871 268.228 34.463 267.309 34.463 266.176C34.463 265.051 34.8745 264.169 35.6978 263.53C36.5203 262.89 37.7215 262.514 39.3033 262.4L43.3483 262.13V261.005C43.3483 260.044 43.057 259.298 42.4747 258.769C41.8925 258.239 41.0708 257.974 40.0123 257.974C39.0915 257.974 38.3299 258.196 37.7265 258.64C37.1232 259.085 36.7492 259.698 36.6018 260.481H35.0504C35.1151 259.323 35.6147 258.376 36.5472 257.639C37.4801 256.901 38.6391 256.532 40.0244 256.532C41.5313 256.532 42.7317 256.923 43.6233 257.705C44.516 258.488 44.9618 259.543 44.9618 260.871V269.844H43.4224V269.843ZM43.3487 263.438L39.4987 263.707C38.3911 263.78 37.5495 264.027 36.9754 264.446C36.4013 264.867 36.1135 265.448 36.1135 266.189C36.1135 266.898 36.3994 267.472 36.9688 267.912C37.5393 268.352 38.2811 268.572 39.1937 268.572C40.375 268.572 41.3633 268.22 42.1577 267.515C42.9521 266.811 43.3487 265.936 43.3487 264.893V263.438ZM49.1706 269.843V251.435H50.784V269.843H49.1706ZM56.7654 253.751C56.5532 253.966 56.2966 254.075 55.9955 254.075C55.6945 254.075 55.4351 253.966 55.2194 253.751C55.0038 253.535 54.8954 253.28 54.8954 252.987C54.8954 252.685 55.0038 252.427 55.2194 252.211C55.4351 251.995 55.6945 251.887 55.9955 251.887C56.2966 251.887 56.5532 251.994 56.7654 252.211C56.9775 252.427 57.0828 252.685 57.0828 252.987C57.0832 253.28 56.9775 253.535 56.7654 253.751ZM56.802 269.843H55.1886V256.678H56.802V269.843ZM63.8278 268.034C64.109 268.343 64.556 268.498 65.1663 268.498C65.5329 268.498 65.8468 268.482 66.1074 268.45V269.83C65.9116 269.888 65.4923 269.916 64.8488 269.916C63.7569 269.916 62.9741 269.659 62.5018 269.146C62.0296 268.633 61.7928 267.786 61.7928 266.603V258.035H59.9111V256.678H61.7928V253.525H63.4062V256.678H66.0461V258.035H63.4062V266.542C63.4066 267.227 63.5478 267.725 63.8278 268.034ZM74.8261 270.478C74.2563 272.027 73.6795 273.072 73.0973 273.614C72.515 274.156 71.6894 274.427 70.622 274.427C70.3455 274.427 70.076 274.394 69.8158 274.33V272.948C70.0608 273.005 70.3244 273.034 70.6103 273.034C71.2046 273.034 71.6878 272.86 72.0579 272.514C72.4292 272.168 72.7615 271.579 73.0544 270.748L73.3473 269.929L68.3978 256.678H70.1333L74.1663 268.205H74.2037L78.2487 256.678H79.9596L74.8261 270.478ZM90.426 258.768C89.7497 258.239 88.9027 257.974 87.8844 257.974C86.5966 257.974 85.562 258.454 84.7796 259.416C83.9981 260.378 83.6065 261.658 83.6065 263.255C83.6065 264.876 83.9977 266.162 84.7796 267.111C85.5623 268.06 86.6005 268.535 87.8965 268.535C88.9066 268.535 89.7454 268.293 90.4143 267.807C91.0824 267.323 91.5098 266.649 91.6974 265.784H93.2979C93.1103 267.039 92.5234 268.054 91.5379 268.828C90.5524 269.603 89.3383 269.989 87.8961 269.989C86.0951 269.989 84.6556 269.384 83.5753 268.174C82.4962 266.965 81.9564 265.325 81.9564 263.255C81.9564 261.217 82.4962 259.587 83.5753 258.365C84.6556 257.143 86.0869 256.531 87.8715 256.531C89.3547 256.531 90.5871 256.943 91.5687 257.766C92.5507 258.589 93.1228 259.608 93.2858 260.822H91.6841C91.5219 259.983 91.1022 259.298 90.426 258.768ZM105.084 269.843V267.325H105.048C104.69 268.124 104.101 268.768 103.282 269.256C102.464 269.745 101.548 269.99 100.538 269.99C99.2271 269.99 98.1631 269.638 97.3488 268.933C96.5345 268.228 96.1266 267.309 96.1266 266.176C96.1266 265.051 96.538 264.169 97.3605 263.53C98.1842 262.89 99.3854 262.514 100.966 262.4L105.012 262.13V261.005C105.012 260.044 104.721 259.298 104.138 258.769C103.555 258.239 102.734 257.974 101.675 257.974C100.754 257.974 99.9926 258.196 99.3901 258.64C98.7867 259.085 98.412 259.698 98.2653 260.481H96.7139C96.7787 259.323 97.2782 258.376 98.2107 257.639C99.1436 256.901 100.303 256.532 101.688 256.532C103.195 256.532 104.395 256.923 105.287 257.705C106.179 258.488 106.625 259.543 106.625 260.871V269.844H105.084V269.843ZM105.011 263.438L101.161 263.707C100.054 263.78 99.2122 264.027 98.6382 264.446C98.0641 264.867 97.7763 265.448 97.7763 266.189C97.7763 266.898 98.061 267.472 98.6315 267.912C99.2021 268.352 99.9438 268.572 100.856 268.572C102.038 268.572 103.025 268.22 103.819 267.515C104.614 266.811 105.011 265.936 105.011 264.893V263.438ZM110.834 269.843V251.435H112.447V269.843H110.834ZM130.185 258.579C129.609 258.127 128.863 257.9 127.941 257.9C127.053 257.9 126.318 258.109 125.736 258.523C125.153 258.939 124.862 259.477 124.862 260.138C124.862 260.667 125.059 261.099 125.454 261.433C125.849 261.768 126.471 262.04 127.318 262.251L129.335 262.741C130.655 263.075 131.592 263.505 132.146 264.03C132.7 264.555 132.977 265.287 132.977 266.224C132.977 267.333 132.502 268.237 131.553 268.938C130.604 269.639 129.388 269.989 127.905 269.989C126.504 269.989 125.337 269.629 124.404 268.907C123.471 268.186 122.96 267.264 122.869 266.139H124.507C124.606 266.897 124.966 267.502 125.589 267.954C126.212 268.407 127.017 268.632 128.003 268.632C128.996 268.632 129.802 268.423 130.417 268.002C131.032 267.583 131.339 267.027 131.339 266.334C131.339 265.772 131.152 265.326 130.777 264.996C130.402 264.666 129.77 264.391 128.882 264.171L126.658 263.608C125.517 263.324 124.666 262.904 124.104 262.35C123.541 261.796 123.26 261.087 123.26 260.223C123.26 259.139 123.706 258.253 124.599 257.564C125.491 256.875 126.622 256.531 127.99 256.531C129.318 256.531 130.422 256.89 131.302 257.607C132.181 258.324 132.655 259.25 132.719 260.381H131.168C131.086 259.632 130.759 259.032 130.185 258.579ZM141.672 270.478C141.101 272.027 140.524 273.072 139.942 273.614C139.359 274.156 138.535 274.427 137.467 274.427C137.19 274.427 136.921 274.394 136.66 274.33V272.948C136.905 273.005 137.17 273.034 137.455 273.034C138.05 273.034 138.532 272.86 138.903 272.514C139.274 272.168 139.606 271.579 139.899 270.748L140.193 269.929L135.243 256.678H136.979L141.012 268.205H141.048L145.093 256.678H146.805L141.672 270.478ZM156.372 258.579C155.798 258.127 155.05 257.9 154.13 257.9C153.242 257.9 152.507 258.109 151.925 258.523C151.341 258.939 151.05 259.477 151.05 260.138C151.05 260.667 151.248 261.099 151.643 261.433C152.038 261.768 152.659 262.04 153.507 262.251L155.524 262.741C156.843 263.075 157.781 263.505 158.335 264.03C158.889 264.555 159.166 265.287 159.166 266.224C159.166 267.333 158.691 268.237 157.741 268.938C156.792 269.639 155.576 269.989 154.093 269.989C152.692 269.989 151.525 269.629 150.593 268.907C149.659 268.186 149.149 267.264 149.058 266.139H150.696C150.794 266.897 151.154 267.502 151.778 267.954C152.401 268.407 153.205 268.632 154.192 268.632C155.185 268.632 155.99 268.423 156.605 268.002C157.22 267.583 157.528 267.027 157.528 266.334C157.528 265.772 157.34 265.326 156.966 264.996C156.591 264.666 155.959 264.391 155.071 264.171L152.847 263.608C151.706 263.324 150.854 262.904 150.293 262.35C149.73 261.796 149.449 261.087 149.449 260.223C149.449 259.139 149.895 258.253 150.788 257.564C151.68 256.875 152.81 256.531 154.178 256.531C155.507 256.531 156.611 256.89 157.491 257.607C158.37 258.324 158.843 259.25 158.908 260.381H157.356C157.275 259.632 156.947 259.032 156.372 258.579ZM165.421 268.034C165.702 268.343 166.148 268.498 166.76 268.498C167.126 268.498 167.439 268.482 167.701 268.45V269.83C167.505 269.888 167.086 269.916 166.442 269.916C165.35 269.916 164.567 269.659 164.095 269.146C163.623 268.633 163.386 267.786 163.386 266.603V258.035H161.504V256.678H163.386V253.525H165V256.678H167.639V258.035H165V266.542C165 267.227 165.14 267.725 165.421 268.034ZM171.812 263.658V263.743C171.812 265.226 172.205 266.4 172.991 267.264C173.778 268.128 174.827 268.559 176.138 268.559C177.108 268.559 177.931 268.335 178.607 267.887C179.283 267.439 179.719 266.848 179.915 266.115H181.516C181.321 267.248 180.724 268.177 179.725 268.902C178.727 269.627 177.52 269.989 176.102 269.989C174.276 269.989 172.827 269.389 171.751 268.187C170.676 266.985 170.138 265.353 170.138 263.291C170.138 261.246 170.674 259.608 171.745 258.377C172.816 257.147 174.235 256.532 176.004 256.532C177.732 256.532 179.11 257.112 180.142 258.274C181.172 259.435 181.688 260.993 181.688 262.949V263.658H171.812V263.658ZM178.87 259.166C178.132 258.364 177.169 257.962 175.98 257.962C174.798 257.962 173.827 258.364 173.064 259.166C172.303 259.969 171.885 261.026 171.812 262.338H180C179.984 261.026 179.607 259.969 178.87 259.166ZM201.222 269.843V261.275C201.222 260.247 200.951 259.441 200.41 258.854C199.867 258.267 199.116 257.974 198.155 257.974C197.177 257.974 196.377 258.314 195.753 258.995C195.13 259.675 194.818 260.549 194.818 261.617V269.843H193.204V261.115C193.204 260.178 192.924 259.421 192.361 258.842C191.799 258.263 191.065 257.974 190.161 257.974C189.184 257.974 188.379 258.332 187.748 259.05C187.116 259.767 186.8 260.688 186.8 261.812V269.843H185.187V256.678H186.702V259.135H186.751C187.037 258.346 187.518 257.714 188.193 257.241C188.87 256.769 189.668 256.532 190.588 256.532C191.526 256.532 192.33 256.78 193.003 257.277C193.675 257.775 194.137 258.446 194.389 259.295H194.427C194.744 258.463 195.276 257.795 196.021 257.29C196.766 256.785 197.624 256.532 198.593 256.532C199.881 256.532 200.911 256.93 201.686 257.724C202.46 258.518 202.847 259.58 202.847 260.908V269.843H201.222Z" fill="#242635"/>
</svg>
