<svg width="208" height="294" viewBox="0 0 208 294" fill="none" xmlns="http://www.w3.org/2000/svg">
<path d="M51.2252 117.082C38.2925 96.746 41.2 76.3228 45.5451 58.8279C49.8223 41.607 49.8063 41.0803 49.8052 41.0679C49.8052 41.0679 75.2809 43.1702 88.8563 36.0952C102.431 29.0196 105.896 18.3343 105.896 18.3343V161.838C105.896 161.838 64.1579 137.418 51.2252 117.082ZM160.453 117.082C147.548 137.418 104.858 162.701 104.858 162.701L105.896 18.334C105.896 18.334 109.355 29.0193 122.901 36.0949C136.447 43.1699 161.871 41.0676 161.871 41.0676C161.869 41.08 161.854 41.6067 166.122 58.8276C170.457 76.3228 173.359 96.746 160.453 117.082Z" fill="#242635"/>
<path d="M57.3441 114.34C45.8607 96.2655 48.4422 78.114 52.3005 62.5652C56.1578 47.0164 56.0833 46.7803 56.0833 46.7803C56.0833 46.7803 78.7041 48.6486 90.7586 42.3607C102.812 36.0722 105.832 29.3555 105.832 29.3555L105.889 154.117C105.889 154.117 68.8275 132.413 57.3441 114.34ZM154.333 114.34C142.874 132.414 105.889 154.117 105.889 154.117L105.832 29.3558C105.832 29.3558 108.96 36.0724 120.989 42.361C133.018 48.6489 155.592 46.7806 155.592 46.7806C155.592 46.7806 155.517 47.0167 159.367 62.5655C163.217 78.1137 165.793 96.2655 154.333 114.34Z" fill="white"/>
<path d="M101.963 36.1781L105.812 29.7012L109.198 37.0493L114.145 137.428C114.145 137.428 92.0243 138.156 93.189 137.235C94.3537 136.315 101.963 36.1781 101.963 36.1781Z" fill="white"/>
<path d="M56.5759 4.99023C56.5759 4.99023 46.5265 26.9731 50.1859 32.6962C54.7588 39.849 62.2561 41.9316 62.2561 41.9316L73.6158 43.3525L80.0058 40.5106L85.6859 44.0629L87.8158 46.1943C87.8158 46.1943 93.1826 43.7777 98.4659 46.9048C103.75 50.0319 105.253 51.3555 108.406 49.0356C111.559 46.7163 115.903 45.435 118.346 46.1943C120.79 46.953 123.317 45.4839 123.317 45.4839C123.317 45.4839 122.767 40.4624 128.287 41.9316C133.807 43.4007 138.227 43.3525 138.227 43.3525L154.557 38.3793C154.557 38.3793 161.344 32.1742 158.107 19.9087C156.073 12.2008 153.847 5.70099 153.847 5.70099C153.847 5.70099 167.971 11.8093 173.017 22.7506C178.064 33.6919 172.805 49.0424 166.779 51.9251C126.384 71.2499 160.879 63.1309 160.947 66.0861C160.947 66.0861 158.03 77.8775 153.847 81.0043C149.663 84.1314 141.777 85.9775 141.777 85.9775L134.676 87.3984C134.676 87.3984 133.89 92.5596 133.967 93.792C134.043 95.0244 139.333 98.9531 140.357 102.317C141.38 105.681 144.067 110.083 144.617 113.684C145.167 117.284 147.457 126.471 147.457 126.471C147.457 126.471 136.966 137.315 130.416 142.811C123.866 148.306 104.856 161.282 104.856 161.282C104.856 161.282 70.9358 133.764 67.2252 129.313C63.5148 124.862 62.9651 125.761 62.9651 125.761C62.9651 125.761 64.3087 120.503 67.2252 111.552C70.1416 102.603 73.0657 100.611 73.6152 98.7655C74.1656 96.9194 77.0888 87.8234 77.1654 86.6883C77.242 85.5526 67.3852 86.4024 64.3854 85.9778C61.3846 85.5526 57.8939 80.7844 53.0248 76.0319C38.1134 61.4762 62.0081 66.6598 67.2252 64.6652C67.2252 64.6652 41.3518 53.4868 35.2745 41.9319C30.3359 32.5405 34.2513 24.8331 40.2451 17.0672C45.903 9.73621 56.5759 4.99023 56.5759 4.99023Z" fill="white"/>
<path d="M96.7899 88.0777L89.0209 89.8046C89.0209 89.8046 82.6185 87.5019 81.252 85.4874C79.885 83.4734 82.1152 77.7179 82.1152 77.7179L84.7049 76.8541L90.7469 79.4438L97.6527 85.4874L96.7899 88.0777ZM127.397 85.4871C125.997 87.5019 119.441 89.8043 119.441 89.8043L111.485 88.0774L110.601 85.4868L117.673 79.4433L123.86 76.8535L126.512 77.7173C126.513 77.7176 128.796 83.4731 127.397 85.4871Z" fill="white"/>
<path d="M148.864 63.6425C156.048 63.2158 164.497 63.2433 164.497 63.2433C164.497 63.2433 163.235 68.0689 160.949 72.3861C157.357 79.1718 151.669 86.2915 143.209 87.1552C140.699 87.4115 138.802 87.4499 137.385 87.3319C136.912 91.681 136.122 93.8648 136.806 95.2117C137.558 96.6927 142.445 100.242 144.616 107.999C146.788 115.756 149.832 127.245 149.832 127.245L130.988 144.981C130.693 145.414 130.18 145.264 130.18 145.264L129.629 145.509L129.127 145.721C129.127 145.721 129.229 146.281 129.17 146.213L104.858 162.701L104.857 162.671L104.856 162.701L80.1377 146.213C80.0575 146.308 80.1377 146.213 80.1377 146.213L79.4852 145.748L79.3361 145.628C79.3595 145.64 79.2748 145.587 79.1124 145.4L61.545 126.47C61.545 126.47 62.923 115.756 65.0952 108C67.2665 100.243 72.1537 96.693 72.9055 95.212C73.5767 93.8899 72.8295 91.7633 72.3531 87.5751C70.9348 87.6952 69.0328 87.6573 66.5155 87.3976C58.0507 86.5249 52.3596 79.3333 48.7649 72.4784C46.4782 68.1177 45.2147 63.243 45.2147 63.243C45.2147 63.243 53.5725 63.2161 60.733 63.6393C49.929 59.6327 31.4668 50.4485 30.7969 34.2307C30.7981 10.7523 61.9039 -0.37565 62.0708 0.0800394C61.9285 -0.0551879 51.4787 12.8636 52.0264 28.031C52.2909 38.0816 67.919 40.3683 73.1482 41.3267L72.9052 40.8654C72.9052 40.8654 77.7983 36.9998 83.5554 39.7993C89.3124 42.5988 89.2355 44.2044 89.2355 44.2044C89.2355 44.2044 93.6557 43.1093 97.0458 44.1334C100.436 45.1566 101.112 46.3399 102.725 46.4062C103.556 46.4408 104.333 46.5124 104.856 46.5684L104.757 46.558C104.757 46.558 105.373 46.5814 106.993 46.5802C108.614 46.5781 109.292 45.3484 112.693 44.3541C116.095 43.3599 120.53 44.5012 120.53 44.5012C120.53 44.5012 120.453 42.8903 126.23 40.1375C131.565 37.5954 136.158 40.7459 136.829 41.243C142.325 40.2488 157.291 37.8549 157.549 27.9928C158.094 12.8101 147.687 -0.122654 147.545 0.0134608C147.712 -0.442821 178.691 10.6958 178.693 34.1991C178.025 50.4399 159.622 59.6345 148.864 63.6425ZM131.126 115.814C132.393 119.204 130.896 124.009 129.773 126.125C129.86 126.071 129.946 126.015 130.031 125.961C130.687 125.284 131.442 124.431 131.837 123.629C132.741 121.792 133.416 116.704 133.966 115.814C134.516 114.925 135.428 115.164 136.806 120.787C138.185 126.41 135.387 137.127 135.387 137.127C135.387 137.127 135.783 135.648 138.227 132.154C140.67 128.66 145.842 125.939 146.037 125.05C146.232 124.16 142.884 118.125 140.357 112.262C137.83 106.4 139.215 105.574 138.227 105.158C137.238 104.742 136.138 104.508 133.257 108C130.375 111.491 127.577 110.841 127.577 110.841C127.577 110.841 129.511 111.493 131.126 115.814ZM89.9454 109.421C89.6912 113.267 99.1758 117.235 99.1758 117.235C99.1758 117.235 94.1638 115.164 92.0753 114.393C89.9874 113.623 85.052 115.046 84.9754 120.077C84.9106 124.329 86.5262 126.998 88.1486 128.602H88.5256C88.5256 128.602 89.2367 129.594 90.9062 130.541C91.1926 130.673 91.3654 130.733 91.3654 130.733C91.3654 130.733 91.3219 130.731 91.2494 130.727C92.4688 131.362 94.1333 131.946 96.3351 132.154C100.268 132.525 103.278 132.725 104.751 132.812C106.313 132.724 109.467 132.524 113.41 132.154C115.625 131.946 117.297 131.36 118.522 130.724C118.411 130.73 118.346 130.733 118.346 130.733C118.346 130.733 118.654 130.629 119.136 130.379C120.612 129.484 121.25 128.602 121.25 128.602H121.563C123.185 126.998 124.801 124.329 124.736 120.077C124.659 115.046 119.724 113.623 117.636 114.393C115.547 115.164 110.535 117.235 110.535 117.235C110.535 117.235 120.02 113.267 119.766 109.421C119.512 105.574 116.925 98.7643 116.925 98.7643C116.925 98.7643 119.488 102.433 120.476 104.447C121.464 106.461 121.085 108.472 122.606 108C124.127 107.527 123.925 105.275 127.576 103.737C131.227 102.199 133.865 100.835 131.836 98.7643C129.807 96.693 129.073 95.8618 128.996 93.7911C128.92 91.7204 128.996 91.6597 128.996 91.6597C128.996 91.6597 125.286 91.481 124.736 91.6597C124.186 91.8384 125.523 91.1259 126.866 90.2388C128.209 89.3523 128.286 88.108 128.286 88.108C128.286 88.108 126.459 89.9426 122.606 90.2388C117.204 90.6545 114.086 88.8185 114.086 88.8185C114.086 88.8185 114.754 92.6649 114.796 95.212C114.838 97.7592 112.666 105.158 112.666 105.158C112.666 105.158 113.503 97.8488 111.956 94.5016C110.145 90.582 106.416 89.7514 104.856 89.576C103.296 89.7514 99.5666 90.582 97.7557 94.5016C96.2084 97.8488 97.0458 105.158 97.0458 105.158C97.0458 105.158 94.8736 97.7592 94.9159 95.212C94.9574 92.6649 95.6258 88.8185 95.6258 88.8185C95.6258 88.8185 92.507 90.6543 87.1059 90.2388C83.2532 89.9426 81.4258 88.108 81.4258 88.108C81.4258 88.108 81.5024 89.3523 82.8461 90.2388C84.1889 91.1259 85.5258 91.8384 84.976 91.6597C84.4256 91.481 80.7159 91.6597 80.7159 91.6597C80.7159 91.6597 80.7925 91.7204 80.7159 93.7911C80.6392 95.8618 79.9045 96.693 77.8755 98.7643C75.8462 100.835 78.4845 102.199 82.1356 103.737C85.7868 105.275 85.585 107.527 87.1062 108C88.6271 108.472 88.2475 106.461 89.2361 104.447C90.2241 102.434 92.7863 98.7643 92.7863 98.7643C92.7863 98.7643 90.1993 105.574 89.9454 109.421ZM122.562 79.6567C118.054 81.5058 114.892 85.926 113.844 86.49C113.614 86.4326 113.489 86.3927 113.489 86.3927C113.539 86.5708 113.659 86.59 113.844 86.49C114.943 86.7628 118.476 87.4277 122.606 85.9769C125.475 84.9688 126.434 82.1299 126.156 81.0037C125.878 79.8775 127.366 77.686 122.562 79.6567ZM83.5554 81.0037C83.2772 82.1299 84.2362 84.9688 87.1056 85.9769C91.2358 87.4274 94.7689 86.7626 95.8673 86.49C96.0531 86.59 96.1732 86.5708 96.2221 86.3927C96.2221 86.3927 96.0972 86.4326 95.8673 86.49C94.8198 85.926 91.6578 81.5058 87.1491 79.6567C82.3448 77.686 83.8335 79.8775 83.5554 81.0037ZM71.4849 105.158C70.4963 105.574 71.882 106.4 69.355 112.262C66.828 118.124 63.4802 124.16 63.6749 125.05C63.8696 125.939 69.0417 128.66 71.4852 132.154C73.9288 135.648 74.3256 137.127 74.3256 137.127C74.3256 137.127 71.5272 126.41 72.9052 120.787C74.2833 115.165 75.1955 114.925 75.745 115.814C76.2954 116.703 76.9707 121.792 77.8749 123.629C78.2359 124.362 78.8982 125.139 79.5098 125.784C79.6335 125.869 79.7604 125.952 79.8903 126.035C78.7724 123.875 77.3364 119.156 78.5854 115.815C80.2004 111.494 82.135 110.841 82.135 110.841C82.135 110.841 79.3367 111.492 76.4555 108C73.5737 104.508 72.4738 104.742 71.4849 105.158ZM156.87 8.09751C156.87 8.08775 160.971 14.547 162.935 26.5654C164.892 38.5899 159.292 42.2038 159.307 42.1878C159.305 42.1878 160.094 40.3651 161.006 37.8055C161.911 35.246 160.548 34.2491 160.552 34.2491C160.549 34.2485 158.428 38.1846 153.25 41.1533C148.109 44.1251 136.054 44.6181 131.965 44.5758C131.059 44.5648 130.159 44.7669 129.308 45.0859C129.639 44.7104 129.99 44.3739 130.351 44.0689C128.315 44.3955 126.082 45.3599 124.804 47.82C123.145 51.0134 124.092 57.7188 124.092 57.7188C124.092 57.7188 122.709 55.1338 122.667 53.2868C122.625 51.4398 122.667 50.4361 122.667 50.4361C122.667 50.4361 121.64 49.6718 117.68 49.1767C113.719 48.6817 111.784 49.7789 109.13 51.09C107.481 51.9047 106.231 52.1935 105.52 52.2065C105.52 52.2065 103.24 52.2148 100.595 50.8823C97.9495 49.5499 96.0217 48.4376 92.0747 48.8933C88.1282 49.3484 87.105 50.1008 87.105 50.1008C87.105 50.1008 87.1464 51.1019 87.105 52.9421C87.063 54.7829 85.6847 57.3472 85.6847 57.3472C85.6847 57.3472 86.6286 50.6713 84.9748 47.4726C83.6429 44.8959 81.1994 44.0399 79.0233 43.8416C79.495 44.2097 79.9533 44.6272 80.3794 45.1078C79.5261 44.7894 78.623 44.5873 77.7131 44.5982C73.6077 44.6397 61.505 44.1473 56.3427 41.1785C51.1431 38.2124 49.0138 34.2804 49.0103 34.281C49.015 34.281 47.6458 35.2773 48.5552 37.8339C49.4701 40.3905 50.2625 42.2121 50.2613 42.2121C50.2758 42.2272 44.6528 38.6178 46.6179 26.6053C48.5904 14.5985 52.7081 8.14574 52.7081 8.1561C52.7635 8.02975 37.8512 17.0344 37.091 29.8034C36.5365 42.455 44.6845 51.9846 56.7437 55.9337C65.6627 58.8631 76.5709 58.9164 81.6196 58.7471C80.4528 61.3114 78.5741 62.9794 76.5951 64.0657C77.5059 64.4048 78.6582 64.843 80.0045 65.3747C83.4781 66.7465 84.2646 68.9264 84.2646 68.9264C84.2646 68.9264 81.2648 67.5546 76.4552 66.7956C75.7515 66.6844 75.1414 66.6092 74.5966 66.556C74.2845 66.6424 73.9593 66.7237 73.6148 66.7956C73.3026 66.8605 72.9955 66.9235 72.6931 66.9835C72.2037 66.8406 71.7211 66.7178 71.2375 66.6128C70.8875 66.7018 70.775 66.7956 70.775 66.7956L71.007 66.5637C68.7327 66.1032 66.3839 66.097 62.9647 66.7956C56.2957 68.1586 51.6041 66.7956 51.6041 66.7956C51.6041 66.7956 52.8298 73.9577 57.2843 78.8729C61.7397 83.7875 64.3847 83.1351 64.3847 83.1351C64.3847 83.1351 62.2963 82.2459 60.8345 78.8729C59.3728 75.4993 58.746 73.3653 59.4142 73.1892C60.0826 73.0131 65.1357 77.9837 67.9341 77.452C70.1747 77.0268 70.4501 74.8924 71.7231 73.4206C72.2664 73.3191 72.8928 73.2368 73.6142 73.1892C74.4504 73.1339 75.2278 73.1049 75.9368 73.0904C75.345 73.4342 74.812 73.8127 74.4827 74.3317C76.8931 73.9449 81.5728 73.352 84.9745 73.8994C89.7495 74.6678 94.2043 78.1621 94.2043 78.1621C94.2043 78.1621 94.1629 76.8013 93.4944 75.3203C92.826 73.8387 88.5247 72.4784 88.5247 72.4784C88.5247 72.4784 92.151 72.6572 94.9148 74.6098C97.6779 76.5625 99.7244 80.7084 100.594 81.7139C101.128 82.3296 102.873 82.4575 104.145 82.4643V82.4243C104.145 82.4243 104.426 82.4444 104.855 82.456C105.284 82.4442 105.565 82.4243 105.565 82.4243V82.4643C106.837 82.4575 108.581 82.3296 109.115 81.7139C109.985 80.7087 112.032 76.5625 114.795 74.6098C117.558 72.6572 121.185 72.4784 121.185 72.4784C121.185 72.4784 116.883 73.8387 116.215 75.3203C115.546 76.8013 115.505 78.1621 115.505 78.1621C115.505 78.1621 119.96 74.6678 124.735 73.8994C128.179 73.3448 132.933 73.96 135.317 74.3462C134.996 73.7668 134.428 73.3588 133.79 72.9915C134.499 73.0054 135.276 73.035 136.112 73.0895C136.834 73.1365 137.459 73.2179 138.003 73.3188C139.275 74.7764 139.55 76.8877 141.789 77.3097C144.586 77.8358 149.636 72.9149 150.304 73.0898C150.972 73.2644 150.346 75.3765 148.885 78.7161C147.424 82.0556 145.337 82.9359 145.337 82.9359C145.337 82.9359 147.98 83.5816 152.433 78.7161C156.885 73.8506 158.11 66.7598 158.11 66.7598C158.11 66.7598 153.421 68.1089 146.757 66.7598C143.319 66.0639 140.964 66.0742 138.678 66.5382L138.935 66.7956C138.935 66.7956 138.814 66.6894 138.409 66.5962C137.953 66.6962 137.497 66.8122 137.034 66.9457C136.732 66.8862 136.425 66.8241 136.113 66.7598C135.8 66.6956 135.506 66.6225 135.22 66.5459C134.65 66.5992 134.006 66.677 133.255 66.7959C128.445 67.5546 125.445 68.9267 125.445 68.9267C125.445 68.9267 126.232 66.7471 129.705 65.375C131.045 64.8454 132.193 64.4083 133.102 64.0701C131.125 62.9832 129.246 61.3146 128.08 58.7406C133.111 58.9099 143.97 58.8551 152.849 55.9236C164.859 51.9701 172.974 42.4311 172.422 29.767C171.666 16.9849 156.815 7.97116 156.87 8.09751ZM127.881 58.2663C127.587 57.5366 127.344 56.7453 127.174 55.8724C127.138 55.686 127.111 55.5064 127.081 55.325C128.656 55.5576 130.776 55.7558 132.972 55.6191C137.413 55.3395 147.691 52.6509 147.666 52.6545C147.671 52.6539 143.246 54.7066 139.329 56.0727C136.687 56.9977 131.162 57.8277 127.881 58.2663ZM126.814 52.5039C130.052 52.3216 133.265 52.1429 136.448 51.9653C133.303 52.7166 130.122 53.4732 126.925 54.2334C126.857 53.6292 126.82 53.0528 126.814 52.5039ZM73.2133 51.9789C76.4093 52.1565 79.6349 52.3358 82.8863 52.5175C82.8801 53.0658 82.8434 53.6407 82.7745 54.245C79.5651 53.4857 76.3706 52.7296 73.2133 51.9789ZM82.6191 55.3354C82.5881 55.517 82.5611 55.6964 82.5244 55.8828C82.354 56.7548 82.1081 57.5434 81.8134 58.2731C78.5185 57.8354 72.973 57.0069 70.3202 56.0831C66.3868 54.7181 61.9444 52.6675 61.9495 52.6681C61.9246 52.6645 72.2433 55.3498 76.7029 55.6295C78.9073 55.7662 81.0366 55.5679 82.6191 55.3354ZM102.002 126.031C101.654 126.656 97.7415 128.018 93.6625 126.45C89.5835 124.88 89.7311 122.795 90.151 121.435C90.5709 120.074 92.62 119.217 94.5401 121.435C97.7036 125.089 102.35 125.407 102.002 126.031ZM115.171 121.435C117.091 119.217 119.14 120.074 119.56 121.435C119.98 122.795 120.128 124.88 116.049 126.45C111.97 128.018 108.058 126.656 107.71 126.031C107.362 125.407 112.008 125.089 115.171 121.435Z" fill="#242635"/>
<path d="M104.855 134.996C108.67 134.961 112.825 133.467 113.375 134.286C113.924 135.104 111.121 140.856 104.855 140.68C98.5888 140.503 95.8173 135.872 96.3343 134.996C97.0264 133.825 101.039 135.031 104.855 134.996Z" fill="white"/>
<path d="M105.421 137.29C102.192 137.586 97.8089 135.62 96.3906 134.932C97.2005 133.88 101.119 135.03 104.856 134.996C108.671 134.961 112.826 133.467 113.376 134.286C113.462 134.415 113.466 134.666 113.386 134.998C111.948 135.617 108.438 137.013 105.421 137.29Z" fill="white"/>
<path d="M92.2978 202.937V218.831L94.4279 218.913V225.549H90.5779C89.3213 225.549 87.3893 225.549 84.7822 225.549C82.1742 225.549 80.2157 225.549 78.9045 225.549V218.831L81.1985 218.913V206.437C81.1985 205.943 81.1985 205.449 81.1985 204.955C81.2804 204.488 81.335 204.158 81.3623 203.967L81.4851 203.019L80.748 204.944L80.3795 206.173L73.4161 225.549H68.6242L61.8667 206.132C61.7029 205.695 61.5454 205.163 61.3952 204.534C61.2451 203.906 61.1285 203.374 61.0466 202.937L61.0056 204.944V206.501V218.831L63.2177 218.913V225.549H57.8934H52.2826V218.831L54.4938 218.913V202.815L52.2826 202.937V196.137L56.6688 196.219C58.0358 196.219 60.1258 196.192 62.9416 196.137C65.7569 196.082 67.8883 196.055 69.3379 196.055L72.248 204.575L72.3299 204.821L72.6583 206.132L73.1915 208.426L73.2733 207.279C73.3552 206.761 73.45 206.275 73.56 205.825C73.6692 205.374 73.8057 204.958 73.9695 204.575L77.2501 196.055L85.7778 196.218H94.4693V202.814L92.2978 202.937ZM122.812 202.815L114.374 225.549H105.036L96.803 202.815H94.3043V196.055L98.7686 196.178C100.052 196.178 101.963 196.178 104.504 196.178C107.042 196.178 108.94 196.178 110.196 196.178V202.896L108.067 202.815L110.933 211.785C111.179 212.55 111.357 213.356 111.466 214.202C111.575 215.049 111.63 215.882 111.63 216.701C111.63 216.042 111.698 215.328 111.834 214.558C111.889 214.201 111.984 213.741 112.121 213.178C112.257 212.615 112.421 212.099 112.613 211.632L115.807 202.733L113.596 202.815V196.055L116.462 196.178C116.954 196.178 117.323 196.178 117.569 196.178C118.005 196.178 118.332 196.178 118.552 196.178C118.934 196.178 119.22 196.178 119.411 196.178C119.739 196.178 119.985 196.178 120.149 196.178C120.422 196.178 120.64 196.178 120.804 196.178C121.049 196.178 121.241 196.178 121.377 196.178C121.595 196.178 121.759 196.178 121.869 196.178C122.361 196.178 122.852 196.178 123.343 196.178C123.835 196.178 124.34 196.178 124.859 196.178C125.05 196.178 125.186 196.178 125.268 196.178V202.896L122.812 202.815ZM155.127 207.213C154.661 209.175 153.661 210.762 152.129 211.974C150.596 213.187 148.57 213.916 146.053 214.161C145.779 214.188 145.478 214.209 145.149 214.223C144.82 214.237 144.574 214.243 144.41 214.243H138.457V218.749L141.242 218.831V225.549H124.818V218.749L127.316 218.831V202.855H124.818V196.055L140.709 196.137H143.617C147.304 196.137 150.184 196.955 152.26 198.589C154.335 200.225 155.372 202.363 155.372 205.007C155.372 205.687 155.29 206.424 155.127 207.213ZM139.932 202.405H138.744H138.457V208.181H139.809C141.256 208.181 142.279 208.003 142.881 207.648C143.481 207.294 143.864 206.665 144.027 205.764C144.082 205.382 144.109 205.122 144.109 204.986C144.109 203.265 142.717 202.405 139.932 202.405ZM30.3082 241.35C29.8422 243.312 28.843 244.899 27.3107 246.111C25.7784 247.324 23.7527 248.053 21.2345 248.297C20.9608 248.325 20.6593 248.346 20.3309 248.359C20.0025 248.373 19.7568 248.379 19.593 248.379H13.639V252.886L16.4243 252.968V259.686H0V252.886L2.49871 252.968V236.992H0V230.191L15.892 230.273H18.7994C22.4856 230.273 25.3669 231.092 27.4417 232.727C29.5165 234.361 30.5547 236.5 30.5547 239.143C30.5551 239.824 30.472 240.56 30.3082 241.35ZM15.1143 236.541H13.926H13.6394V242.317H14.9915C16.4384 242.317 17.4621 242.14 18.0627 241.785C18.6633 241.43 19.0455 240.801 19.2101 239.9C19.2639 239.518 19.292 239.259 19.292 239.122C19.292 237.401 17.8989 236.541 15.1143 236.541ZM64.3038 252.968V259.686H53.2685L47.9961 247.724H44.9713V252.886L47.2653 252.968V259.686H31.2504V252.886L33.7491 252.968V236.91L31.2504 236.992V230.191C32.9711 230.191 35.6395 230.191 39.2582 230.191C42.8755 230.191 45.2587 230.191 46.4053 230.191H50.0097C54.0773 230.191 57.163 230.925 59.2662 232.389C61.3683 233.854 62.4194 235.928 62.4194 238.611C62.4194 240.254 62.0372 241.733 61.2728 243.047C60.5084 244.361 59.4429 245.319 58.0779 245.922L62.2965 252.968H64.3038ZM46.9377 236.582H44.9713V242.317H45.5044H46.9786C49.2445 242.317 50.473 241.466 50.6649 239.764C50.6914 239.653 50.7058 239.485 50.7058 239.262C50.7058 237.476 49.4492 236.582 46.9377 236.582ZM92.3598 255.829C89.3833 258.728 85.5738 260.178 80.9321 260.178C80.1131 260.178 79.1303 260.108 77.9829 259.973C73.8599 259.399 70.5964 257.743 68.194 255.01C65.7909 252.275 64.5897 248.911 64.5897 244.918C64.5897 240.542 66.0713 236.913 69.0341 234.027C71.9961 231.142 75.7982 229.7 80.4407 229.7C80.7956 229.7 81.117 229.7 81.4036 229.7C81.6902 229.7 82.3517 229.768 83.3903 229.905C87.4852 230.48 90.7483 232.134 93.1792 234.869C95.6088 237.603 96.8237 240.953 96.8237 244.918C96.8233 249.294 95.3355 252.931 92.3598 255.829ZM83.9222 238.143C83.4308 237.186 82.6793 236.584 81.6692 236.337C81.2597 236.255 80.8775 236.214 80.5226 236.214C79.2122 236.214 78.2493 236.885 77.6351 238.226C77.0208 239.567 76.7131 241.797 76.7131 244.918C76.7131 248.066 77.0134 250.31 77.614 251.653C78.2146 252.994 79.1709 253.664 80.4813 253.664C80.6716 253.664 80.8833 253.644 81.1166 253.603C81.3478 253.562 81.5323 253.527 81.6688 253.499C82.8154 253.226 83.6009 252.351 84.024 250.872C84.4471 249.395 84.6593 246.671 84.6593 242.701C84.6593 240.621 84.4136 239.101 83.9222 238.143ZM111.814 237.033V256.112L111.773 257.664C111.773 261.449 110.79 264.037 108.824 265.426C106.967 266.733 103.608 267.387 98.7487 267.387H97.725V260.137L98.0116 260.259C98.12 260.259 98.2164 260.259 98.2983 260.259C98.3802 260.259 98.4348 260.259 98.4621 260.259C99.6632 260.259 100.346 259.55 100.51 258.129L100.55 257.761V257.392V256.368V236.951L98.0935 237.033V230.192L102.271 230.315C103.582 230.315 105.553 230.315 108.189 230.315C110.824 230.315 112.811 230.315 114.148 230.315V236.951L111.814 237.033ZM128.115 259.686H115.172V252.968L117.63 253.05V236.91L115.172 236.992V230.191H141.508L141.467 235.107V239.859H134.299V237.033L128.893 236.992V241.949H133.972V247.848L128.893 247.889V252.846H134.913V250.101H142.082C142.082 250.866 142.082 252.04 142.082 253.624C142.082 255.208 142.082 256.395 142.082 257.188V259.686H128.115ZM173.741 236.582C173.741 238.276 173.741 239.559 173.741 240.432H165.873C165.656 238.986 164.908 237.825 163.631 236.951C163.087 236.596 162.53 236.357 161.96 236.234C161.388 236.111 160.912 236.049 160.532 236.049C158.956 236.049 157.807 236.881 157.088 238.542C156.367 240.205 156.007 242.943 156.007 246.757C156.007 249.154 156.368 250.919 157.092 252.049C157.815 253.18 158.901 253.745 160.349 253.745C160.758 253.745 161.276 253.678 161.905 253.541C162.888 253.295 163.72 252.735 164.403 251.862C165.085 250.987 165.536 249.786 165.755 248.256L165.837 247.11L174.479 248.911C174.479 249.267 174.465 249.54 174.438 249.731C174.41 249.922 174.356 250.25 174.274 250.714C173.782 253.309 172.622 255.37 170.793 256.899C168.963 258.43 166.383 259.439 163.051 259.931C161.931 260.095 160.867 260.177 159.857 260.177C155.242 260.177 151.44 258.752 148.45 255.902C145.461 253.052 143.965 249.5 143.965 245.245C143.965 244.017 144.102 242.818 144.375 241.645C144.921 238.972 146.054 236.688 147.774 234.793C149.494 232.897 151.706 231.5 154.409 230.599C156.184 230 157.918 229.699 159.61 229.699C160.758 229.699 161.843 229.837 162.867 230.109C163.891 230.382 164.839 230.764 165.714 231.256L166.738 231.952V230.15H173.864L173.741 232.812C173.741 233.633 173.741 234.889 173.741 236.582ZM200.855 243.259V237.074H196.678V252.968L199.258 252.886V259.686H182.916V252.968L185.415 252.886V237.115L181.278 237.074V243.259H174.765L174.806 230.191H207.286C207.286 230.548 207.286 230.863 207.286 231.137C207.286 231.411 207.286 231.644 207.286 231.835C207.286 232.466 207.286 232.945 207.286 233.274C207.286 233.822 207.286 234.233 207.286 234.507C207.286 235 207.286 235.356 207.286 235.575C207.286 236.014 207.286 236.328 207.286 236.52C207.286 236.904 207.286 237.191 207.286 237.383C207.286 237.711 207.286 237.959 207.286 238.123C207.286 238.397 207.286 238.616 207.286 238.78C207.286 239.028 207.286 239.219 207.286 239.355C207.286 239.574 207.286 239.739 207.286 239.849C207.286 240.342 207.286 240.842 207.286 241.349C207.286 241.856 207.286 242.356 207.286 242.849C207.286 243.041 207.286 243.177 207.286 243.259H200.855ZM13.6772 289.271V286.753H13.6409C13.2813 287.552 12.6936 288.195 11.8746 288.684C11.0556 289.173 10.1411 289.418 9.13099 289.418C7.81865 289.418 6.75591 289.065 5.94043 288.36C5.12612 287.656 4.71818 286.737 4.71818 285.604C4.71818 284.479 5.12963 283.597 5.95291 282.958C6.77541 282.318 7.97777 281.941 9.55843 281.827L13.6035 281.558V280.433C13.6035 279.472 13.3121 278.726 12.7299 278.197C12.1476 277.667 11.3267 277.402 10.2674 277.402C9.34666 277.402 8.585 277.624 7.98167 278.068C7.37913 278.512 7.00434 279.126 6.8577 279.908H5.30513C5.37065 278.751 5.86945 277.803 6.80193 277.066C7.7348 276.328 8.89387 275.96 10.2791 275.96C11.7869 275.96 12.9865 276.351 13.878 277.133C14.7707 277.916 15.2165 278.971 15.2165 280.299V289.272H13.6772V289.271ZM13.6035 282.866L9.75421 283.135C8.64584 283.208 7.805 283.454 7.22976 283.874C6.65568 284.295 6.36787 284.875 6.36787 285.617C6.36787 286.326 6.65373 286.9 7.2243 287.34C7.79408 287.78 8.53547 288 9.44845 288C10.6298 288 11.618 287.648 12.4124 286.943C13.2068 286.238 13.6035 285.364 13.6035 284.321V282.866ZM28.4339 289.271V281.056C28.4339 279.9 28.1164 279.002 27.4803 278.361C26.845 277.722 25.9652 277.402 24.8404 277.402C23.6673 277.402 22.72 277.784 21.9993 278.545C21.2778 279.307 20.9175 280.303 20.9175 281.534V289.271H19.3041V276.107H20.82V278.564H20.8683C21.2349 277.741 21.8012 277.101 22.5672 276.644C23.3335 276.188 24.2414 275.96 25.2924 275.96C26.7428 275.96 27.8976 276.394 28.7576 277.262C29.6167 278.129 30.0469 279.309 30.0469 280.8V289.271H28.4339V289.271ZM42.567 289.271V286.753H42.5295C42.1711 287.552 41.583 288.195 40.764 288.684C39.945 289.173 39.0305 289.418 38.0204 289.418C36.708 289.418 35.6445 289.065 34.8298 288.36C34.0155 287.656 33.6076 286.737 33.6076 285.604C33.6076 284.479 34.019 283.597 34.8423 282.958C35.6648 282.318 36.866 281.941 38.4478 281.827L42.4929 281.558V280.433C42.4929 279.472 42.2015 278.726 41.6193 278.197C41.037 277.667 40.2153 277.402 39.1568 277.402C38.236 277.402 37.4744 277.624 36.8711 278.068C36.2677 278.512 35.8937 279.126 35.7463 279.908H34.1949C34.2596 278.751 34.7592 277.803 35.6917 277.066C36.6246 276.328 37.7837 275.96 39.1689 275.96C40.6759 275.96 41.8763 276.351 42.7678 277.133C43.6605 277.916 44.1063 278.971 44.1063 280.299V289.272H42.567V289.271ZM42.4933 282.866L38.6432 283.135C37.5356 283.208 36.694 283.454 36.1199 283.874C35.5458 284.295 35.258 284.875 35.258 285.617C35.258 286.326 35.5439 286.9 36.1133 287.34C36.6839 287.78 37.4256 288 38.3382 288C39.5195 288 40.5078 287.648 41.3022 286.943C42.0966 286.238 42.4933 285.364 42.4933 284.321V282.866ZM48.3151 289.271V270.863H49.9285V289.271H48.3151ZM55.9099 273.178C55.6978 273.394 55.4411 273.503 55.1401 273.503C54.839 273.503 54.5796 273.394 54.364 273.178C54.1483 272.963 54.0399 272.708 54.0399 272.415C54.0399 272.113 54.1483 271.854 54.364 271.639C54.5796 271.422 54.839 271.315 55.1401 271.315C55.4411 271.315 55.6978 271.422 55.9099 271.639C56.1221 271.854 56.2274 272.113 56.2274 272.415C56.2278 272.708 56.1221 272.963 55.9099 273.178ZM55.9466 289.271H54.3332V276.106H55.9466V289.271ZM62.9724 287.462C63.2536 287.771 63.7005 287.926 64.3108 287.926C64.6774 287.926 64.9914 287.909 65.2519 287.877V289.258C65.0561 289.315 64.6369 289.343 63.9934 289.343C62.9014 289.343 62.1187 289.087 61.6464 288.574C61.1741 288.06 60.9374 287.213 60.9374 286.031V277.463H59.0556V276.106H60.9374V272.953H62.5508V276.106H65.1907V277.463H62.5508V285.97C62.5512 286.655 62.6923 287.152 62.9724 287.462ZM73.9707 289.906C73.4009 291.455 72.8241 292.5 72.2418 293.042C71.6595 293.583 70.8339 293.855 69.7665 293.855C69.49 293.855 69.2205 293.822 68.9604 293.757V292.376C69.2053 292.433 69.4689 292.461 69.7548 292.461C70.3492 292.461 70.8324 292.288 71.2025 291.942C71.5737 291.595 71.906 291.006 72.1989 290.176L72.4918 289.357L67.5423 276.106H69.2778L73.3108 287.633H73.3482L77.3933 276.106H79.1042L73.9707 289.906ZM89.5705 278.196C88.8943 277.667 88.0472 277.402 87.0289 277.402C85.7411 277.402 84.7065 277.882 83.9242 278.844C83.1426 279.806 82.751 281.085 82.751 282.682C82.751 284.304 83.1422 285.59 83.9242 286.539C84.7069 287.488 85.745 287.963 87.041 287.963C88.0511 287.963 88.89 287.72 89.5588 287.235C90.2269 286.751 90.6543 286.077 90.8419 285.212H92.4425C92.2549 286.467 91.6679 287.482 90.6824 288.256C89.6969 289.031 88.4828 289.417 87.0406 289.417C85.2396 289.417 83.8001 288.812 82.7198 287.602C81.6407 286.392 81.101 284.752 81.101 282.682C81.101 280.645 81.6407 279.015 82.7198 277.793C83.8001 276.571 85.2314 275.959 87.0161 275.959C88.4992 275.959 89.7316 276.371 90.7132 277.194C91.6952 278.016 92.2673 279.036 92.4304 280.249H90.8287C90.6664 279.411 90.2468 278.726 89.5705 278.196ZM104.229 289.271V286.753H104.193C103.834 287.552 103.245 288.195 102.426 288.684C101.608 289.173 100.693 289.418 99.6828 289.418C98.3716 289.418 97.3077 289.065 96.4934 288.36C95.679 287.656 95.2711 286.737 95.2711 285.604C95.2711 284.479 95.6825 283.597 96.5051 282.958C97.3287 282.318 98.5299 281.941 100.111 281.827L104.156 281.558V280.433C104.156 279.472 103.865 278.726 103.283 278.197C102.699 277.667 101.879 277.402 100.82 277.402C99.8988 277.402 99.1371 277.624 98.5346 278.068C97.9313 278.512 97.5565 279.126 97.4099 279.908H95.8584C95.9232 278.751 96.4228 277.803 97.3552 277.066C98.2881 276.328 99.4472 275.96 100.832 275.96C102.339 275.96 103.54 276.351 104.431 277.133C105.323 277.916 105.77 278.971 105.77 280.299V289.272H104.229V289.271ZM104.156 282.866L100.306 283.135C99.1984 283.208 98.3568 283.454 97.7827 283.874C97.2086 284.295 96.9208 284.875 96.9208 285.617C96.9208 286.326 97.2055 286.9 97.7761 287.34C98.3466 287.78 99.0884 288 100.001 288C101.182 288 102.169 287.648 102.964 286.943C103.758 286.238 104.156 285.364 104.156 284.321V282.866ZM109.978 289.271V270.863H111.592V289.271H109.978ZM129.329 278.007C128.754 277.555 128.007 277.328 127.086 277.328C126.198 277.328 125.462 277.536 124.88 277.951C124.298 278.367 124.006 278.905 124.006 279.565C124.006 280.095 124.204 280.526 124.599 280.86C124.994 281.195 125.615 281.468 126.463 281.679L128.479 282.169C129.8 282.503 130.736 282.932 131.29 283.458C131.845 283.983 132.121 284.715 132.121 285.652C132.121 286.76 131.647 287.665 130.698 288.366C129.749 289.067 128.532 289.417 127.05 289.417C125.649 289.417 124.481 289.056 123.548 288.335C122.615 287.614 122.104 286.691 122.014 285.567H123.652C123.75 286.325 124.111 286.93 124.734 287.382C125.357 287.835 126.162 288.06 127.147 288.06C128.141 288.06 128.946 287.851 129.561 287.43C130.176 287.01 130.484 286.455 130.484 285.762C130.484 285.2 130.296 284.754 129.922 284.424C129.547 284.093 128.915 283.818 128.027 283.598L125.803 283.036C124.662 282.751 123.811 282.332 123.248 281.778C122.686 281.223 122.405 280.514 122.405 279.651C122.405 278.567 122.851 277.681 123.743 276.992C124.635 276.303 125.766 275.959 127.135 275.959C128.462 275.959 129.566 276.318 130.446 277.035C131.326 277.752 131.799 278.677 131.864 279.809H130.312C130.231 279.06 129.903 278.459 129.329 278.007ZM140.816 289.906C140.246 291.455 139.669 292.5 139.086 293.042C138.504 293.583 137.679 293.855 136.612 293.855C136.334 293.855 136.066 293.822 135.805 293.757V292.376C136.05 292.433 136.314 292.461 136.599 292.461C137.194 292.461 137.677 292.288 138.048 291.942C138.418 291.595 138.75 291.006 139.044 290.176L139.338 289.357L134.387 276.106H136.124L140.157 287.633H140.193L144.238 276.106H145.95L140.816 289.906ZM155.517 278.007C154.943 277.555 154.195 277.328 153.275 277.328C152.387 277.328 151.651 277.536 151.069 277.951C150.486 278.367 150.195 278.905 150.195 279.565C150.195 280.095 150.392 280.526 150.788 280.86C151.183 281.195 151.803 281.468 152.652 281.679L154.668 282.169C155.988 282.503 156.925 282.932 157.479 283.458C158.034 283.983 158.31 284.715 158.31 285.652C158.31 286.76 157.835 287.665 156.886 288.366C155.937 289.067 154.721 289.417 153.238 289.417C151.837 289.417 150.67 289.056 149.737 288.335C148.804 287.614 148.293 286.691 148.203 285.567H149.841C149.938 286.325 150.299 286.93 150.922 287.382C151.545 287.835 152.35 288.06 153.336 288.06C154.33 288.06 155.134 287.851 155.749 287.43C156.364 287.01 156.672 286.455 156.672 285.762C156.672 285.2 156.485 284.754 156.111 284.424C155.736 284.093 155.104 283.818 154.216 283.598L151.992 283.036C150.851 282.751 149.999 282.332 149.437 281.778C148.875 281.223 148.594 280.514 148.594 279.651C148.594 278.567 149.04 277.681 149.932 276.992C150.824 276.303 151.954 275.959 153.323 275.959C154.652 275.959 155.755 276.318 156.635 277.035C157.515 277.752 157.987 278.677 158.053 279.809H156.5C156.419 279.06 156.091 278.459 155.517 278.007ZM164.566 287.462C164.847 287.771 165.293 287.926 165.904 287.926C166.271 287.926 166.584 287.909 166.845 287.877V289.258C166.649 289.315 166.23 289.343 165.587 289.343C164.495 289.343 163.712 289.087 163.24 288.574C162.767 288.06 162.531 287.213 162.531 286.031V277.463H160.649V276.106H162.531V272.953H164.144V276.106H166.784V277.463H164.144V285.97C164.145 286.655 164.285 287.152 164.566 287.462ZM170.957 283.086V283.171C170.957 284.654 171.35 285.828 172.136 286.692C172.922 287.555 173.971 287.987 175.283 287.987C176.253 287.987 177.076 287.763 177.751 287.315C178.428 286.867 178.863 286.276 179.059 285.543H180.661C180.465 286.675 179.868 287.604 178.87 288.33C177.872 289.055 176.664 289.417 175.247 289.417C173.421 289.417 171.971 288.817 170.896 287.615C169.82 286.413 169.282 284.781 169.282 282.719C169.282 280.673 169.818 279.036 170.889 277.805C171.96 276.575 173.38 275.96 175.148 275.96C176.876 275.96 178.255 276.54 179.286 277.701C180.316 278.862 180.832 280.421 180.832 282.377V283.086H170.957V283.086ZM178.015 278.594C177.277 277.791 176.314 277.39 175.124 277.39C173.942 277.39 172.971 277.791 172.209 278.594C171.447 279.397 171.03 280.454 170.957 281.765H179.145C179.129 280.454 178.752 279.397 178.015 278.594ZM200.367 289.271V280.702C200.367 279.675 200.096 278.869 199.554 278.282C199.012 277.695 198.26 277.402 197.299 277.402C196.321 277.402 195.521 277.742 194.898 278.423C194.274 279.103 193.962 279.977 193.962 281.044V289.27H192.349V280.543C192.349 279.606 192.068 278.849 191.506 278.27C190.944 277.691 190.21 277.402 189.306 277.402C188.328 277.402 187.524 277.76 186.892 278.477C186.261 279.195 185.945 280.115 185.945 281.24V289.271H184.332V276.106H185.847V278.563H185.896C186.182 277.773 186.662 277.142 187.338 276.669C188.014 276.196 188.812 275.96 189.733 275.96C190.67 275.96 191.475 276.208 192.147 276.705C192.819 277.202 193.282 277.874 193.534 278.722H193.571C193.889 277.89 194.42 277.223 195.166 276.718C195.911 276.213 196.769 275.96 197.738 275.96C199.026 275.96 200.056 276.357 200.83 277.152C201.605 277.946 201.991 279.007 201.991 280.336V289.271H200.367Z" fill="white"/>
</svg>
