<svg width="136" height="25" viewBox="0 0 136 25" fill="none" xmlns="http://www.w3.org/2000/svg">
<path d="M95.0866 12.2278V3.99857L96.087 3.96348V1.10092H90.9965L89.2066 1.04788V3.99866L90.259 3.96339V12.9391L90.2419 13.0981C90.1711 13.7108 89.8795 14.0168 89.3645 14.0168H89.1716L89.0487 13.9637V17.091H89.4874C91.5697 17.091 93.0088 16.8091 93.8055 16.245C94.6479 15.6461 95.0687 14.5297 95.0687 12.8974L95.0866 12.2278Z" fill="#171923"/>
<path d="M96.5257 13.7694L108.057 13.7696V9.63509H104.985V10.8189H102.406V8.68088L104.581 8.66325V6.11895H102.406V3.98103L104.722 3.99866V5.21782H107.794V3.16816L107.811 1.04788H96.5257V3.98103L97.579 3.94567V10.9071L96.5257 10.8717V13.7694Z" fill="#171923"/>
<path d="M121.624 5.46505V3.80451C121.624 3.07402 121.624 2.53245 121.624 2.17887L121.677 1.03041H118.623V1.80793L118.184 1.50762C117.81 1.29521 117.404 1.13042 116.965 1.0126C116.525 0.895169 116.061 0.835938 115.569 0.835938C114.844 0.835938 114.1 0.965495 113.34 1.22409C112.182 1.61224 111.234 2.21513 110.497 3.03279C109.759 3.85036 109.274 4.83567 109.04 5.98837C108.923 6.49432 108.864 7.01175 108.864 7.54121C108.864 9.37655 109.505 10.9085 110.786 12.1378C112.067 13.3672 113.697 13.9818 115.674 13.9818C116.107 13.9818 116.563 13.9466 117.044 13.8758C118.471 13.6634 119.577 13.2283 120.361 12.568C121.145 11.9086 121.641 11.0196 121.853 9.90023C121.888 9.70002 121.911 9.55877 121.924 9.4763C121.934 9.39383 121.941 9.276 121.941 9.12254L118.236 8.34548L118.202 8.83995C118.108 9.49981 117.915 10.0179 117.623 10.3951C117.329 10.7719 116.974 11.0133 116.552 11.1193C116.283 11.1784 116.061 11.2076 115.886 11.2076C115.265 11.2076 114.8 10.9638 114.49 10.4759C114.18 9.98831 114.025 9.22744 114.025 8.19302C114.025 6.54803 114.179 5.36703 114.487 4.64993C114.796 3.93319 115.288 3.57455 115.964 3.57455C116.126 3.57455 116.331 3.60104 116.576 3.65413C116.82 3.70712 117.058 3.81039 117.292 3.96339C117.84 4.34066 118.159 4.841 118.252 5.46505H121.624Z" fill="#171923"/>
<path d="M133.243 4.01647V6.68431H135.998V1.04788H122.08L122.063 6.68422H124.854V4.01638L126.627 4.03402V10.8365L125.555 10.872V13.7697H132.559V10.8365L131.452 10.872V4.01647H133.243Z" fill="#171923"/>
<path fill-rule="evenodd" clip-rule="evenodd" d="M60.159 5.86068C59.958 6.70691 59.531 7.39146 58.8742 7.91423C58.2175 8.43736 57.3499 8.75187 56.2706 8.85749C56.1522 8.86925 56.0239 8.8782 55.8831 8.88408C55.7422 8.89014 55.6363 8.89276 55.5673 8.89276H53.0157V10.8364L54.209 10.8718V13.7696H47.1707V10.8364L48.2419 10.8718V3.98103H47.1707V1.04788L53.9811 1.08324H55.2272C56.8063 1.08324 58.0417 1.436 58.9299 2.14143C59.819 2.84632 60.2648 3.76915 60.2648 4.90901C60.2648 5.20236 60.2281 5.51985 60.159 5.86068ZM53.6473 3.78669C54.8406 3.78669 55.4372 4.15754 55.4372 4.89978C55.4372 4.95874 55.4255 5.07069 55.4031 5.23546C55.3322 5.62403 55.1689 5.89522 54.9105 6.04832C54.6539 6.20133 54.2152 6.27783 53.5953 6.27783H53.0157V3.78669H53.6473Z" fill="#171923"/>
<path fill-rule="evenodd" clip-rule="evenodd" d="M74.7272 10.8719V13.7696H69.9973L67.7392 8.61026H66.4427V10.8364L67.4251 10.8718V13.7696H60.5627V10.8364L61.633 10.8718V3.94567L60.5627 3.98112V1.04788H68.6013C70.3445 1.04788 71.667 1.3643 72.5677 1.99584C73.4694 2.62776 73.9188 3.52228 73.9188 4.67941C73.9188 5.38828 73.7556 6.02607 73.4272 6.59288C73.1006 7.1596 72.644 7.57295 72.0581 7.83284L73.8668 10.8719H74.7272ZM66.4427 3.80442H67.2852C68.3618 3.80442 68.8992 4.18983 68.8992 4.95983C68.8992 5.05595 68.8938 5.12866 68.8821 5.1765C68.7996 5.91087 68.2739 6.27783 67.3031 6.27783H66.4427V3.80442Z" fill="#171923"/>
<path fill-rule="evenodd" clip-rule="evenodd" d="M86.7502 12.1062C85.4744 13.3563 83.8415 13.9816 81.8525 13.9816C81.5017 13.9816 81.08 13.9517 80.5884 13.8932C78.8219 13.6456 77.4241 12.9317 76.3941 11.7526C75.3642 10.5732 74.8492 9.12209 74.8492 7.39978C74.8492 5.51262 75.4844 3.94693 76.7539 2.70227C78.0234 1.45806 79.6527 0.835938 81.6426 0.835938H82.0553C82.1773 0.835938 82.4608 0.865363 82.9067 0.924206C84.6606 1.17222 86.0593 1.88579 87.101 3.06534C88.1426 4.24472 88.6629 5.6895 88.6629 7.39978C88.6629 9.28721 88.025 10.8561 86.7502 12.1062ZM82.1683 3.69835C82.6008 3.80487 82.9237 4.06458 83.1337 4.47757C83.3445 4.89092 83.4504 5.54626 83.4504 6.4434C83.4504 8.15549 83.3589 9.33016 83.1776 9.96769C82.9964 10.6054 82.66 10.9831 82.1683 11.1008C82.1109 11.1131 82.031 11.1279 81.9315 11.1455C81.8328 11.1632 81.7413 11.1718 81.6596 11.1718C81.098 11.1718 80.6889 10.883 80.4314 10.3044C80.1739 9.72561 80.0447 8.75757 80.0447 7.3996C80.0447 6.05366 80.1775 5.09167 80.4404 4.51311C80.7032 3.93464 81.1159 3.64526 81.6776 3.64526C81.8292 3.64526 81.9934 3.66308 82.1683 3.69835Z" fill="#171923"/>
<path fill-rule="evenodd" clip-rule="evenodd" d="M17.7796 10.6599V3.80451L18.7077 3.75152H19.7102L23.2382 13.5574H27.24L30.8557 3.75152L31.9084 3.78679V3.76906H32.7859V10.66L31.7156 10.6246V13.5574H38.7534V10.66L37.5603 10.6246V8.68098H40.1113C40.1815 8.68098 40.2868 8.67826 40.4279 8.6723C40.5688 8.66642 40.6977 8.65737 40.8151 8.64562C41.8937 8.54009 42.762 8.22567 43.4187 7.70245C44.0754 7.17959 44.5034 6.49513 44.7035 5.6489C44.7734 5.30816 44.8084 4.99057 44.8084 4.69704C44.8084 3.55673 44.3643 2.63445 43.4752 1.9291C42.5856 1.22409 41.3515 0.871295 39.7717 0.871295H38.5254L31.7156 0.835938V0.888974H28.1349L26.9065 0.835938V3.75143L27.8541 3.71598L26.4854 7.55468C26.4031 7.75616 26.3328 7.97862 26.2744 8.2216C26.2159 8.46467 26.1749 8.66271 26.1514 8.81662C26.093 9.14867 26.0638 9.45685 26.0638 9.74098C26.0638 9.38777 26.0405 9.02867 25.9936 8.66316C25.9468 8.29828 25.8709 7.95085 25.7656 7.62079L24.5373 3.75152L25.4497 3.78688V0.889101H20.5525L18.6395 0.836064V0.906526H14.9854L11.3311 0.835938L9.92534 4.51094C9.85509 4.67606 9.79669 4.85556 9.74986 5.0499C9.70258 5.24405 9.6622 5.45366 9.62694 5.67693L9.59187 6.17203L9.36336 5.18246L9.22259 4.61692L9.18751 4.51094L7.94045 0.835938C7.31916 0.835938 6.40593 0.847811 5.19933 0.871295C3.99282 0.895304 3.09717 0.906653 2.51132 0.906653L0.631754 0.871295V3.80451L1.57934 3.75143V10.6952L0.631754 10.6599V13.5573H5.31793V10.6952L4.36999 10.6599V4.67L4.38757 3.80451C4.42265 3.99287 4.47253 4.22238 4.53695 4.49331C4.60128 4.7645 4.66865 4.9941 4.73899 5.18246L7.63478 13.5573H9.68822L12.6723 5.2001L12.8303 4.67L13.1462 3.83978L13.0935 4.24833C13.0817 4.33117 13.0583 4.47332 13.0232 4.67453V10.6952L12.0402 10.6599V13.5573H18.6924V10.6952L17.7796 10.6599ZM38.1919 3.57482C39.3856 3.57482 39.9822 3.94576 39.9824 4.688C39.9824 4.74696 39.9707 4.85891 39.9473 5.02367C39.877 5.41224 39.7129 5.68353 39.4559 5.83654C39.1981 5.98954 38.7594 6.06604 38.1393 6.06604H37.5603V3.57482H38.1919Z" fill="#171923"/>
<path d="M1.41696 17.157V24.8167H0.554688V17.157H1.41696Z" fill="#171923"/>
<path d="M3.85528 21.3609V24.8167H3.03464V19.0719H3.82747V19.9696H3.897C4.02215 19.6778 4.21226 19.4435 4.46724 19.2664C4.72221 19.0869 5.05139 18.9971 5.45466 18.9971C5.81631 18.9971 6.13274 19.0769 6.40396 19.2365C6.67517 19.3935 6.88609 19.6329 7.03673 19.9546C7.18745 20.2738 7.26273 20.6776 7.26273 21.1664V24.8167H6.44218V21.2263C6.44218 20.7749 6.33326 20.4233 6.11534 20.1715C5.89742 19.9171 5.59839 19.79 5.21826 19.79C4.95629 19.79 4.72221 19.8511 4.51587 19.9733C4.31194 20.0954 4.15081 20.2738 4.03256 20.5081C3.9144 20.7425 3.85528 21.0268 3.85528 21.3609Z" fill="#171923"/>
<path d="M11.1405 19.0719V19.8199H8.26154V19.0719H11.1405ZM9.12381 24.8167V18.279C9.12381 17.9498 9.19568 17.6756 9.3394 17.4561C9.48313 17.2367 9.66974 17.0721 9.89924 16.9625C10.1287 16.8528 10.371 16.7979 10.6259 16.7979C10.8275 16.7979 10.9922 16.8153 11.1197 16.8502C11.2471 16.8851 11.3421 16.9176 11.4048 16.9474L11.1683 17.7105C11.1266 17.6955 11.0686 17.6768 10.9945 17.6544C10.9226 17.6319 10.8275 17.6207 10.7094 17.6207C10.4382 17.6207 10.2423 17.6943 10.1217 17.8414C10.0035 17.9885 9.94445 18.2041 9.94445 18.4884V24.8167H9.12381Z" fill="#171923"/>
<path d="M13.1111 17.157V24.8167H12.2906V17.157H13.1111Z" fill="#171923"/>
<path d="M17.9799 22.4679V19.0719H18.8004V24.8167H17.9799V23.8444H17.9242C17.799 24.1361 17.6043 24.3841 17.3401 24.5886C17.0758 24.7906 16.742 24.8916 16.3387 24.8916C16.0049 24.8916 15.7081 24.813 15.4486 24.656C15.1889 24.4964 14.9849 24.257 14.8366 23.9379C14.6882 23.6162 14.614 23.211 14.614 22.7223V19.0719H15.4347V22.6625C15.4347 23.0813 15.5436 23.4155 15.7615 23.6649C15.9817 23.9142 16.2621 24.0389 16.603 24.0389C16.8069 24.0389 17.0144 23.9827 17.2253 23.8705C17.4386 23.7584 17.617 23.5863 17.7608 23.3544C17.9068 23.1225 17.9799 22.827 17.9799 22.4679Z" fill="#171923"/>
<path d="M22.5426 24.9365C22.028 24.9365 21.584 24.8143 21.2108 24.57C20.8399 24.3231 20.5537 23.979 20.3521 23.5376C20.1527 23.0938 20.053 22.5776 20.053 21.9892C20.053 21.4008 20.1527 20.8821 20.3521 20.4333C20.5537 19.982 20.8342 19.6305 21.1935 19.3786C21.5551 19.1242 21.977 18.9971 22.4591 18.9971C22.7373 18.9971 23.012 19.0469 23.2832 19.1467C23.5544 19.2464 23.8012 19.4085 24.0238 19.6329C24.2463 19.8548 24.4237 20.1491 24.5557 20.5156C24.6879 20.8821 24.7539 21.3334 24.7539 21.8696V22.2436H20.6372V21.4805H23.9195C23.9195 21.1565 23.8592 20.8672 23.7387 20.6129C23.6204 20.3585 23.4512 20.1578 23.231 20.0106C23.0131 19.8636 22.7558 19.79 22.4591 19.79C22.1323 19.79 21.8494 19.8772 21.6107 20.0518C21.3743 20.2239 21.1923 20.4483 21.0649 20.725C20.9374 21.0018 20.8736 21.2985 20.8736 21.6152V22.1239C20.8736 22.5577 20.9431 22.9255 21.0822 23.2272C21.2236 23.5264 21.4195 23.7546 21.6698 23.9116C21.9202 24.0663 22.2111 24.1436 22.5426 24.1436C22.7582 24.1436 22.9529 24.1111 23.1267 24.0463C23.3028 23.979 23.4547 23.8793 23.5822 23.7471C23.7097 23.6124 23.8082 23.4454 23.8777 23.2459L24.6705 23.4853C24.587 23.7745 24.4468 24.0288 24.2498 24.2483C24.0528 24.4652 23.8094 24.6348 23.5196 24.757C23.2298 24.8766 22.9041 24.9365 22.5426 24.9365Z" fill="#171923"/>
<path d="M26.8228 21.3609V24.8167H26.0022V19.0719H26.795V19.9696H26.8645C26.9897 19.6778 27.1798 19.4435 27.4348 19.2664C27.6897 19.0869 28.0189 18.9971 28.4223 18.9971C28.7838 18.9971 29.1003 19.0769 29.3715 19.2365C29.6427 19.3935 29.8536 19.6329 30.0042 19.9546C30.155 20.2738 30.2302 20.6776 30.2302 21.1664V24.8167H29.4097V21.2263C29.4097 20.7749 29.3008 20.4233 29.0828 20.1715C28.8649 19.9171 28.5659 19.79 28.1858 19.79C27.9239 19.79 27.6897 19.8511 27.4834 19.9733C27.2795 20.0954 27.1183 20.2738 27.0001 20.5081C26.8819 20.7425 26.8228 21.0268 26.8228 21.3609Z" fill="#171923"/>
<path d="M33.8994 24.9365C33.3987 24.9365 32.9676 24.8093 32.6059 24.5549C32.2444 24.3007 31.9662 23.9503 31.7715 23.504C31.5768 23.0576 31.4794 22.5478 31.4794 21.9743C31.4794 21.3908 31.579 20.8759 31.7784 20.4296C31.9801 19.9808 32.2605 19.6305 32.6199 19.3786C32.9815 19.1242 33.4033 18.9971 33.8855 18.9971C34.261 18.9971 34.5994 19.0719 34.9008 19.2215C35.2022 19.3711 35.449 19.5805 35.6414 19.8498C35.8338 20.1191 35.9532 20.4333 35.9996 20.7924H35.1789C35.1164 20.5306 34.9773 20.2986 34.7617 20.0967C34.5485 19.8923 34.261 19.79 33.8994 19.79C33.5796 19.79 33.299 19.8798 33.0579 20.0593C32.8192 20.2363 32.6326 20.4869 32.4982 20.8111C32.366 21.1328 32.3 21.5105 32.3 21.9444C32.3 22.3882 32.3649 22.7747 32.4947 23.1037C32.6268 23.4329 32.8123 23.6885 33.051 23.8705C33.2921 24.0525 33.5749 24.1436 33.8994 24.1436C34.1127 24.1436 34.3063 24.1036 34.48 24.0239C34.6539 23.9441 34.8011 23.8293 34.9216 23.6798C35.0422 23.5302 35.128 23.3506 35.1789 23.1412H35.9996C35.9532 23.4803 35.8384 23.7858 35.6553 24.0575C35.4746 24.3268 35.2346 24.5413 34.9355 24.7008C34.6388 24.8579 34.2935 24.9365 33.8994 24.9365Z" fill="#171923"/>
<path d="M39.4383 24.9365C38.9237 24.9365 38.4798 24.8143 38.1067 24.57C37.7358 24.3231 37.4495 23.979 37.2478 23.5376C37.0485 23.0938 36.9488 22.5776 36.9488 21.9892C36.9488 21.4008 37.0485 20.8821 37.2478 20.4333C37.4495 19.982 37.7299 19.6305 38.0893 19.3786C38.4508 19.1242 38.8728 18.9971 39.3549 18.9971C39.633 18.9971 39.9077 19.0469 40.1789 19.1467C40.4502 19.2464 40.697 19.4085 40.9196 19.6329C41.1421 19.8548 41.3194 20.1491 41.4515 20.5156C41.5836 20.8821 41.6498 21.3334 41.6498 21.8696V22.2436H37.5329V21.4805H40.8152C40.8152 21.1565 40.7549 20.8672 40.6344 20.6129C40.5162 20.3585 40.347 20.1578 40.1268 20.0106C39.9089 19.8636 39.6516 19.79 39.3549 19.79C39.0281 19.79 38.7453 19.8772 38.5064 20.0518C38.27 20.2239 38.0881 20.4483 37.9606 20.725C37.8331 21.0018 37.7693 21.2985 37.7693 21.6152V22.1239C37.7693 22.5577 37.8389 22.9255 37.978 23.2272C38.1194 23.5264 38.3153 23.7546 38.5656 23.9116C38.816 24.0663 39.1068 24.1436 39.4383 24.1436C39.6539 24.1436 39.8486 24.1111 40.0225 24.0463C40.1987 23.979 40.3505 23.8793 40.478 23.7471C40.6055 23.6124 40.704 23.4454 40.7735 23.2459L41.5662 23.4853C41.4828 23.7745 41.3426 24.0288 41.1456 24.2483C40.9485 24.4652 40.7051 24.6348 40.4153 24.757C40.1256 24.8766 39.8 24.9365 39.4383 24.9365Z" fill="#171923"/>
<path d="M49.4351 20.3585L48.6977 20.583C48.651 20.4507 48.5828 20.3223 48.4922 20.1977C48.4043 20.0705 48.2841 19.9658 48.1306 19.8835C47.9781 19.8012 47.7816 19.76 47.543 19.76C47.2164 19.76 46.9437 19.8411 46.7266 20.0032C46.5103 20.1627 46.4027 20.366 46.4027 20.6129C46.4027 20.8323 46.4772 21.0055 46.6252 21.1328C46.7741 21.2599 47.0056 21.3659 47.3205 21.4506L48.1136 21.66C48.5909 21.7848 48.9471 21.9755 49.1812 22.2324C49.4154 22.4867 49.532 22.8146 49.532 23.216C49.532 23.5451 49.4441 23.8394 49.2682 24.0986C49.0942 24.358 48.8511 24.5625 48.538 24.712C48.2248 24.8617 47.8606 24.9365 47.4461 24.9365C46.9015 24.9365 46.4502 24.8093 46.0932 24.5549C45.7361 24.3007 45.51 23.9291 45.4149 23.4404L46.1945 23.231C46.2681 23.5402 46.409 23.772 46.6153 23.9266C46.8235 24.0812 47.0962 24.1585 47.4317 24.1585C47.8148 24.1585 48.1181 24.0712 48.3433 23.8967C48.5702 23.7197 48.6842 23.5077 48.6842 23.2609C48.6842 23.0614 48.6187 22.8943 48.4886 22.7597C48.3594 22.6226 48.1602 22.5203 47.8911 22.453L47.0011 22.2286C46.5121 22.1039 46.1524 21.9107 45.9227 21.6488C45.6957 21.3846 45.5827 21.0542 45.5827 20.6577C45.5827 20.3335 45.667 20.0468 45.8357 19.7975C46.0079 19.5482 46.2403 19.3524 46.5346 19.2102C46.8315 19.0682 47.168 18.9971 47.543 18.9971C48.0714 18.9971 48.4868 19.1218 48.7883 19.3711C49.0915 19.6204 49.3077 19.9496 49.4351 20.3585Z" fill="#171923"/>
<path d="M53.0067 24.9365C52.4918 24.9365 52.0477 24.8143 51.6744 24.57C51.3039 24.3231 51.0177 23.979 50.8159 23.5376C50.6167 23.0938 50.5171 22.5776 50.5171 21.9892C50.5171 21.4008 50.6167 20.8821 50.8159 20.4333C51.0177 19.982 51.2985 19.6305 51.6574 19.3786C52.019 19.1242 52.4406 18.9971 52.9233 18.9971C53.2014 18.9971 53.476 19.0469 53.7469 19.1467C54.0188 19.2464 54.2655 19.4085 54.488 19.6329C54.7105 19.8548 54.8872 20.1491 55.02 20.5156C55.1519 20.8821 55.2183 21.3334 55.2183 21.8696V22.2436H51.1012V21.4805H54.3839C54.3839 21.1565 54.3229 20.8672 54.2027 20.6129C54.0842 20.3585 53.9156 20.1578 53.6949 20.0106C53.4769 19.8636 53.2203 19.79 52.9233 19.79C52.5958 19.79 52.3132 19.8772 52.0746 20.0518C51.8386 20.2239 51.6565 20.4483 51.5291 20.725C51.4017 21.0018 51.338 21.2985 51.338 21.6152V22.1239C51.338 22.5577 51.4071 22.9255 51.5462 23.2272C51.6879 23.5264 51.8835 23.7546 52.1338 23.9116C52.3841 24.0663 52.6748 24.1436 53.0067 24.1436C53.2221 24.1436 53.4168 24.1111 53.5908 24.0463C53.7666 23.979 53.9183 23.8793 54.0466 23.7471C54.174 23.6124 54.2727 23.4454 54.3417 23.2459L55.1348 23.4853C55.0514 23.7745 54.9105 24.0288 54.7141 24.2483C54.5167 24.4652 54.2736 24.6348 53.9838 24.757C53.694 24.8766 53.3683 24.9365 53.0067 24.9365Z" fill="#171923"/>
<path d="M56.4662 24.8167V19.0719H57.2593V19.9396H57.3149C57.4118 19.6553 57.5886 19.4247 57.8434 19.2477C58.0982 19.0706 58.3853 18.9821 58.7056 18.9821C58.7657 18.9821 58.841 18.9834 58.9316 18.9859C59.0223 18.9883 59.0904 18.9921 59.1362 18.9971V19.8947C59.1084 19.8873 59.0447 19.8761 58.9451 19.8611C58.8482 19.8436 58.745 19.8349 58.6356 19.8349C58.3763 19.8349 58.1448 19.8935 57.9403 20.0106C57.7384 20.1254 57.5787 20.285 57.4603 20.4894C57.3446 20.6914 57.2871 20.9221 57.2871 21.1813V24.8167H56.4662Z" fill="#171923"/>
<path d="M64.6385 19.0719L62.6639 24.8167H61.8295L59.8548 19.0719H60.7448L62.2189 23.6498H62.2745L63.7485 19.0719H64.6385Z" fill="#171923"/>
<path d="M65.7223 24.8167V19.0719H66.5423V24.8167H65.7223ZM66.1395 18.1144C65.9798 18.1144 65.8416 18.0558 65.7259 17.9386C65.612 17.8214 65.5554 17.6805 65.5554 17.516C65.5554 17.3514 65.612 17.2105 65.7259 17.0933C65.8416 16.9762 65.9798 16.9176 66.1395 16.9176C66.2992 16.9176 66.4365 16.9762 66.5495 17.0933C66.6652 17.2105 66.7236 17.3514 66.7236 17.516C66.7236 17.6805 66.6652 17.8214 66.5495 17.9386C66.4365 18.0558 66.2992 18.1144 66.1395 18.1144Z" fill="#171923"/>
<path d="M70.2153 24.9365C69.7147 24.9365 69.2832 24.8093 68.9216 24.5549C68.5601 24.3007 68.2819 23.9503 68.0872 23.504C67.8926 23.0576 67.7957 22.5478 67.7957 21.9743C67.7957 21.3908 67.8953 20.8759 68.0944 20.4296C68.2963 19.9808 68.5762 19.6305 68.936 19.3786C69.2975 19.1242 69.7192 18.9971 70.201 18.9971C70.5769 18.9971 70.9151 19.0719 71.2166 19.2215C71.518 19.3711 71.7648 19.5805 71.9576 19.8498C72.1496 20.1191 72.269 20.4333 72.3156 20.7924H71.4947C71.4319 20.5306 71.2928 20.2986 71.0775 20.0967C70.864 19.8923 70.5769 19.79 70.2153 19.79C69.8951 19.79 69.6151 19.8798 69.3738 20.0593C69.1351 20.2363 68.9485 20.4869 68.8139 20.8111C68.6821 21.1328 68.6157 21.5105 68.6157 21.9444C68.6157 22.3882 68.6812 22.7747 68.8104 23.1037C68.9423 23.4329 69.128 23.6885 69.3666 23.8705C69.608 24.0525 69.8906 24.1436 70.2153 24.1436C70.4289 24.1436 70.6218 24.1036 70.7958 24.0239C70.9699 23.9441 71.117 23.8293 71.2372 23.6798C71.3583 23.5302 71.4436 23.3506 71.4947 23.1412H72.3156C72.269 23.4803 72.1541 23.7858 71.9711 24.0575C71.7908 24.3268 71.5503 24.5413 71.2516 24.7008C70.9546 24.8579 70.6092 24.9365 70.2153 24.9365Z" fill="#171923"/>
<path d="M75.7545 24.9365C75.2395 24.9365 74.7954 24.8143 74.4222 24.57C74.0516 24.3231 73.7654 23.979 73.5636 23.5376C73.3644 23.0938 73.2648 22.5776 73.2648 21.9892C73.2648 21.4008 73.3644 20.8821 73.5636 20.4333C73.7654 19.982 74.0453 19.6305 74.4051 19.3786C74.7667 19.1242 75.1883 18.9971 75.671 18.9971C75.9491 18.9971 76.2237 19.0469 76.4946 19.1467C76.7656 19.2464 77.0132 19.4085 77.2357 19.6329C77.4582 19.8548 77.6349 20.1491 77.7677 20.5156C77.8996 20.8821 77.966 21.3334 77.966 21.8696V22.2436H73.8489V21.4805H77.1307C77.1307 21.1565 77.0706 20.8672 76.9504 20.6129C76.8319 20.3585 76.6633 20.1578 76.4426 20.0106C76.2246 19.8636 75.9671 19.79 75.671 19.79C75.3436 19.79 75.0609 19.8772 74.8223 20.0518C74.5863 20.2239 74.4042 20.4483 74.2768 20.725C74.1485 21.0018 74.0848 21.2985 74.0848 21.6152V22.1239C74.0848 22.5577 74.1548 22.9255 74.2939 23.2272C74.4356 23.5264 74.6312 23.7546 74.8815 23.9116C75.1318 24.0663 75.4225 24.1436 75.7545 24.1436C75.9698 24.1436 76.1645 24.1111 76.3385 24.0463C76.5144 23.979 76.666 23.8793 76.7934 23.7471C76.9217 23.6124 77.0195 23.4454 77.0894 23.2459L77.8825 23.4853C77.7991 23.7745 77.6582 24.0288 77.4618 24.2483C77.2644 24.4652 77.0213 24.6348 76.7315 24.757C76.4417 24.8766 76.116 24.9365 75.7545 24.9365Z" fill="#171923"/>
<path d="M82.9964 20.3585L82.2598 20.583C82.2132 20.4507 82.145 20.3223 82.0544 20.1977C81.9665 20.0705 81.8462 19.9658 81.6928 19.8835C81.5403 19.8012 81.3438 19.76 81.1052 19.76C80.7786 19.76 80.5059 19.8411 80.2878 20.0032C80.0725 20.1627 79.9649 20.366 79.9649 20.6129C79.9649 20.8323 80.0393 21.0055 80.1874 21.1328C80.3354 21.2599 80.5678 21.3659 80.8827 21.4506L81.6758 21.66C82.1531 21.7848 82.5092 21.9755 82.7434 22.2324C82.9776 22.4867 83.0942 22.8146 83.0942 23.216C83.0942 23.5451 83.0063 23.8394 82.8295 24.0986C82.6564 24.358 82.4123 24.5625 82.1001 24.712C81.787 24.8617 81.4228 24.9365 81.0083 24.9365C80.4628 24.9365 80.0124 24.8093 79.6553 24.5549C79.2983 24.3007 79.0722 23.9291 78.9771 23.4404L79.7558 23.231C79.8303 23.5402 79.9703 23.772 80.1766 23.9266C80.3856 24.0812 80.6584 24.1585 80.9939 24.1585C81.3761 24.1585 81.6803 24.0712 81.9054 23.8967C82.1324 23.7197 82.2455 23.5077 82.2455 23.2609C82.2455 23.0614 82.1809 22.8943 82.0508 22.7597C81.9216 22.6226 81.7215 22.5203 81.4533 22.453L80.5633 22.2286C80.0734 22.1039 79.7146 21.9107 79.4849 21.6488C79.2579 21.3846 79.144 21.0542 79.144 20.6577C79.144 20.3335 79.2292 20.0468 79.3979 19.7975C79.5692 19.5482 79.8025 19.3524 80.0967 19.2102C80.3937 19.0682 80.7302 18.9971 81.1052 18.9971C81.6336 18.9971 82.049 19.1218 82.3504 19.3711C82.6537 19.6204 82.869 19.9496 82.9964 20.3585Z" fill="#171923"/>
</svg>
