<svg width="596" height="26" viewBox="0 0 596 26" fill="none" xmlns="http://www.w3.org/2000/svg">
<path d="M18.5007 18.0163C17.9016 18.0163 17.4173 17.532 17.4173 16.9329V8.26628C17.4173 7.66719 17.9016 7.18294 18.5007 7.18294C19.0997 7.18294 19.584 7.66719 19.584 8.26628V16.9329C19.584 17.532 19.0997 18.0163 18.5007 18.0163ZM15.2507 15.5163V9.68294C15.2507 9.08386 14.7664 8.59961 14.1673 8.59961C13.5682 8.59961 13.084 9.08386 13.084 9.68294V15.5163C13.084 16.1154 13.5682 16.5996 14.1673 16.5996C14.7664 16.5996 15.2507 16.1154 15.2507 15.5163ZM23.9173 20.1829V5.01628C23.9173 4.41719 23.4331 3.93294 22.834 3.93294C22.2349 3.93294 21.7507 4.41719 21.7507 5.01628V20.1829C21.7507 20.782 22.2349 21.2663 22.834 21.2663C23.4331 21.2663 23.9173 20.782 23.9173 20.1829ZM10.9173 15.1829V10.0163C10.9173 9.41719 10.4331 8.93294 9.83398 8.93294C9.2349 8.93294 8.75065 9.41719 8.75065 10.0163V15.1829C8.75065 15.782 9.2349 16.2663 9.83398 16.2663C10.4331 16.2663 10.9173 15.782 10.9173 15.1829ZM6.58398 14.9329V10.2663C6.58398 9.66719 6.09973 9.18294 5.50065 9.18294C4.90157 9.18294 4.41732 9.66719 4.41732 10.2663V14.9329C4.41732 15.532 4.90157 16.0163 5.50065 16.0163C6.09973 16.0163 6.58398 15.532 6.58398 14.9329ZM2.25065 14.7663V10.4329C2.25065 9.83386 1.7664 9.34961 1.16732 9.34961C0.568234 9.34961 0.0839844 9.83386 0.0839844 10.4329V14.7663C0.0839844 15.3654 0.568234 15.8496 1.16732 15.8496C1.7664 15.8496 2.25065 15.3654 2.25065 14.7663Z" fill="#3575E6"/>
<path d="M44.5013 18.0163C43.9022 18.0163 43.418 17.532 43.418 16.9329V8.26628C43.418 7.66719 43.9022 7.18294 44.5013 7.18294C45.1004 7.18294 45.5846 7.66719 45.5846 8.26628V16.9329C45.5846 17.532 45.1004 18.0163 44.5013 18.0163ZM41.2513 24.5163V0.682943C41.2513 0.0838594 40.7671 -0.400391 40.168 -0.400391C39.5689 -0.400391 39.0846 0.0838594 39.0846 0.682943V24.5163C39.0846 25.1154 39.5689 25.5996 40.168 25.5996C40.7671 25.5996 41.2513 25.1154 41.2513 24.5163ZM49.918 20.1829V5.01628C49.918 4.41719 49.4337 3.93294 48.8346 3.93294C48.2356 3.93294 47.7513 4.41719 47.7513 5.01628V20.1829C47.7513 20.782 48.2356 21.2663 48.8346 21.2663C49.4337 21.2663 49.918 20.782 49.918 20.1829ZM36.918 20.1829V5.01628C36.918 4.41719 36.4337 3.93294 35.8346 3.93294C35.2356 3.93294 34.7513 4.41719 34.7513 5.01628V20.1829C34.7513 20.782 35.2356 21.2663 35.8346 21.2663C36.4337 21.2663 36.918 20.782 36.918 20.1829ZM32.5846 16.9329V8.26628C32.5846 7.66719 32.1004 7.18294 31.5013 7.18294C30.9022 7.18294 30.418 7.66719 30.418 8.26628V16.9329C30.418 17.532 30.9022 18.0163 31.5013 18.0163C32.1004 18.0163 32.5846 17.532 32.5846 16.9329ZM28.2513 14.7663V10.4329C28.2513 9.83386 27.7671 9.34961 27.168 9.34961C26.5689 9.34961 26.0846 9.83386 26.0846 10.4329V14.7663C26.0846 15.3654 26.5689 15.8496 27.168 15.8496C27.7671 15.8496 28.2513 15.3654 28.2513 14.7663Z" fill="#3575E6"/>
<path d="M70.5013 18.0163C69.9022 18.0163 69.418 17.532 69.418 16.9329V8.26628C69.418 7.66719 69.9022 7.18294 70.5013 7.18294C71.1004 7.18294 71.5846 7.66719 71.5846 8.26628V16.9329C71.5846 17.532 71.1004 18.0163 70.5013 18.0163ZM67.2513 24.5163V0.682943C67.2513 0.0838594 66.7671 -0.400391 66.168 -0.400391C65.5689 -0.400391 65.0846 0.0838594 65.0846 0.682943V24.5163C65.0846 25.1154 65.5689 25.5996 66.168 25.5996C66.7671 25.5996 67.2513 25.1154 67.2513 24.5163ZM75.918 20.1829V5.01628C75.918 4.41719 75.4337 3.93294 74.8346 3.93294C74.2355 3.93294 73.7513 4.41719 73.7513 5.01628V20.1829C73.7513 20.782 74.2355 21.2663 74.8346 21.2663C75.4337 21.2663 75.918 20.782 75.918 20.1829ZM62.918 20.1829V5.01628C62.918 4.41719 62.4337 3.93294 61.8346 3.93294C61.2356 3.93294 60.7513 4.41719 60.7513 5.01628V20.1829C60.7513 20.782 61.2356 21.2663 61.8346 21.2663C62.4337 21.2663 62.918 20.782 62.918 20.1829ZM58.5846 16.9329V8.26628C58.5846 7.66719 58.1004 7.18294 57.5013 7.18294C56.9022 7.18294 56.418 7.66719 56.418 8.26628V16.9329C56.418 17.532 56.9022 18.0163 57.5013 18.0163C58.1004 18.0163 58.5846 17.532 58.5846 16.9329ZM54.2513 14.7663V10.4329C54.2513 9.83386 53.7671 9.34961 53.168 9.34961C52.5689 9.34961 52.0846 9.83386 52.0846 10.4329V14.7663C52.0846 15.3654 52.5689 15.8496 53.168 15.8496C53.7671 15.8496 54.2513 15.3654 54.2513 14.7663Z" fill="#3575E6"/>
<path d="M96.5013 18.0163C95.9022 18.0163 95.418 17.532 95.418 16.9329V8.26628C95.418 7.66719 95.9022 7.18294 96.5013 7.18294C97.1004 7.18294 97.5846 7.66719 97.5846 8.26628V16.9329C97.5846 17.532 97.1004 18.0163 96.5013 18.0163ZM93.2513 24.5163V0.682943C93.2513 0.0838594 92.7671 -0.400391 92.168 -0.400391C91.5689 -0.400391 91.0846 0.0838594 91.0846 0.682943V24.5163C91.0846 25.1154 91.5689 25.5996 92.168 25.5996C92.7671 25.5996 93.2513 25.1154 93.2513 24.5163ZM101.918 20.1829V5.01628C101.918 4.41719 101.434 3.93294 100.835 3.93294C100.236 3.93294 99.7513 4.41719 99.7513 5.01628V20.1829C99.7513 20.782 100.236 21.2663 100.835 21.2663C101.434 21.2663 101.918 20.782 101.918 20.1829ZM88.918 20.1829V5.01628C88.918 4.41719 88.4337 3.93294 87.8346 3.93294C87.2355 3.93294 86.7513 4.41719 86.7513 5.01628V20.1829C86.7513 20.782 87.2355 21.2663 87.8346 21.2663C88.4337 21.2663 88.918 20.782 88.918 20.1829ZM84.5846 16.9329V8.26628C84.5846 7.66719 84.1004 7.18294 83.5013 7.18294C82.9022 7.18294 82.418 7.66719 82.418 8.26628V16.9329C82.418 17.532 82.9022 18.0163 83.5013 18.0163C84.1004 18.0163 84.5846 17.532 84.5846 16.9329ZM80.2513 14.7663V10.4329C80.2513 9.83386 79.7671 9.34961 79.168 9.34961C78.5689 9.34961 78.0846 9.83386 78.0846 10.4329V14.7663C78.0846 15.3654 78.5689 15.8496 79.168 15.8496C79.7671 15.8496 80.2513 15.3654 80.2513 14.7663Z" fill="#3575E6"/>
<path d="M122.501 18.0163C121.902 18.0163 121.418 17.532 121.418 16.9329V8.26628C121.418 7.66719 121.902 7.18294 122.501 7.18294C123.1 7.18294 123.585 7.66719 123.585 8.26628V16.9329C123.585 17.532 123.1 18.0163 122.501 18.0163ZM119.251 24.5163V0.682943C119.251 0.0838594 118.767 -0.400391 118.168 -0.400391C117.569 -0.400391 117.085 0.0838594 117.085 0.682943V24.5163C117.085 25.1154 117.569 25.5996 118.168 25.5996C118.767 25.5996 119.251 25.1154 119.251 24.5163ZM127.918 20.1829V5.01628C127.918 4.41719 127.434 3.93294 126.835 3.93294C126.236 3.93294 125.751 4.41719 125.751 5.01628V20.1829C125.751 20.782 126.236 21.2663 126.835 21.2663C127.434 21.2663 127.918 20.782 127.918 20.1829ZM114.918 20.1829V5.01628C114.918 4.41719 114.434 3.93294 113.835 3.93294C113.236 3.93294 112.751 4.41719 112.751 5.01628V20.1829C112.751 20.782 113.236 21.2663 113.835 21.2663C114.434 21.2663 114.918 20.782 114.918 20.1829ZM110.585 16.9329V8.26628C110.585 7.66719 110.1 7.18294 109.501 7.18294C108.902 7.18294 108.418 7.66719 108.418 8.26628V16.9329C108.418 17.532 108.902 18.0163 109.501 18.0163C110.1 18.0163 110.585 17.532 110.585 16.9329ZM106.251 14.7663V10.4329C106.251 9.83386 105.767 9.34961 105.168 9.34961C104.569 9.34961 104.085 9.83386 104.085 10.4329V14.7663C104.085 15.3654 104.569 15.8496 105.168 15.8496C105.767 15.8496 106.251 15.3654 106.251 14.7663Z" fill="#3575E6"/>
<path d="M148.501 18.0163C147.902 18.0163 147.418 17.532 147.418 16.9329V8.26628C147.418 7.66719 147.902 7.18294 148.501 7.18294C149.1 7.18294 149.585 7.66719 149.585 8.26628V16.9329C149.585 17.532 149.1 18.0163 148.501 18.0163ZM145.251 24.5163V0.682943C145.251 0.0838594 144.767 -0.400391 144.168 -0.400391C143.569 -0.400391 143.085 0.0838594 143.085 0.682943V24.5163C143.085 25.1154 143.569 25.5996 144.168 25.5996C144.767 25.5996 145.251 25.1154 145.251 24.5163ZM153.918 20.1829V5.01628C153.918 4.41719 153.434 3.93294 152.835 3.93294C152.236 3.93294 151.751 4.41719 151.751 5.01628V20.1829C151.751 20.782 152.236 21.2663 152.835 21.2663C153.434 21.2663 153.918 20.782 153.918 20.1829ZM140.918 20.1829V5.01628C140.918 4.41719 140.434 3.93294 139.835 3.93294C139.236 3.93294 138.751 4.41719 138.751 5.01628V20.1829C138.751 20.782 139.236 21.2663 139.835 21.2663C140.434 21.2663 140.918 20.782 140.918 20.1829ZM136.585 16.9329V8.26628C136.585 7.66719 136.1 7.18294 135.501 7.18294C134.902 7.18294 134.418 7.66719 134.418 8.26628V16.9329C134.418 17.532 134.902 18.0163 135.501 18.0163C136.1 18.0163 136.585 17.532 136.585 16.9329ZM132.251 14.7663V10.4329C132.251 9.83386 131.767 9.34961 131.168 9.34961C130.569 9.34961 130.085 9.83386 130.085 10.4329V14.7663C130.085 15.3654 130.569 15.8496 131.168 15.8496C131.767 15.8496 132.251 15.3654 132.251 14.7663Z" fill="#3575E6"/>
<path d="M174.501 18.0163C173.902 18.0163 173.418 17.532 173.418 16.9329V8.26628C173.418 7.66719 173.902 7.18294 174.501 7.18294C175.1 7.18294 175.585 7.66719 175.585 8.26628V16.9329C175.585 17.532 175.1 18.0163 174.501 18.0163ZM171.251 24.5163V0.682943C171.251 0.0838594 170.767 -0.400391 170.168 -0.400391C169.569 -0.400391 169.085 0.0838594 169.085 0.682943V24.5163C169.085 25.1154 169.569 25.5996 170.168 25.5996C170.767 25.5996 171.251 25.1154 171.251 24.5163ZM179.918 20.1829V5.01628C179.918 4.41719 179.434 3.93294 178.835 3.93294C178.236 3.93294 177.751 4.41719 177.751 5.01628V20.1829C177.751 20.782 178.236 21.2663 178.835 21.2663C179.434 21.2663 179.918 20.782 179.918 20.1829ZM166.918 20.1829V5.01628C166.918 4.41719 166.434 3.93294 165.835 3.93294C165.236 3.93294 164.751 4.41719 164.751 5.01628V20.1829C164.751 20.782 165.236 21.2663 165.835 21.2663C166.434 21.2663 166.918 20.782 166.918 20.1829ZM162.585 16.9329V8.26628C162.585 7.66719 162.1 7.18294 161.501 7.18294C160.902 7.18294 160.418 7.66719 160.418 8.26628V16.9329C160.418 17.532 160.902 18.0163 161.501 18.0163C162.1 18.0163 162.585 17.532 162.585 16.9329ZM158.251 14.7663V10.4329C158.251 9.83386 157.767 9.34961 157.168 9.34961C156.569 9.34961 156.085 9.83386 156.085 10.4329V14.7663C156.085 15.3654 156.569 15.8496 157.168 15.8496C157.767 15.8496 158.251 15.3654 158.251 14.7663Z" fill="#3575E6"/>
<path d="M200.501 18.0163C199.902 18.0163 199.418 17.532 199.418 16.9329V8.26628C199.418 7.66719 199.902 7.18294 200.501 7.18294C201.1 7.18294 201.585 7.66719 201.585 8.26628V16.9329C201.585 17.532 201.1 18.0163 200.501 18.0163ZM197.251 24.5163V0.682943C197.251 0.0838594 196.767 -0.400391 196.168 -0.400391C195.569 -0.400391 195.085 0.0838594 195.085 0.682943V24.5163C195.085 25.1154 195.569 25.5996 196.168 25.5996C196.767 25.5996 197.251 25.1154 197.251 24.5163ZM205.918 20.1829V5.01628C205.918 4.41719 205.434 3.93294 204.835 3.93294C204.236 3.93294 203.751 4.41719 203.751 5.01628V20.1829C203.751 20.782 204.236 21.2663 204.835 21.2663C205.434 21.2663 205.918 20.782 205.918 20.1829ZM192.918 20.1829V5.01628C192.918 4.41719 192.434 3.93294 191.835 3.93294C191.236 3.93294 190.751 4.41719 190.751 5.01628V20.1829C190.751 20.782 191.236 21.2663 191.835 21.2663C192.434 21.2663 192.918 20.782 192.918 20.1829ZM188.585 16.9329V8.26628C188.585 7.66719 188.1 7.18294 187.501 7.18294C186.902 7.18294 186.418 7.66719 186.418 8.26628V16.9329C186.418 17.532 186.902 18.0163 187.501 18.0163C188.1 18.0163 188.585 17.532 188.585 16.9329ZM184.251 14.7663V10.4329C184.251 9.83386 183.767 9.34961 183.168 9.34961C182.569 9.34961 182.085 9.83386 182.085 10.4329V14.7663C182.085 15.3654 182.569 15.8496 183.168 15.8496C183.767 15.8496 184.251 15.3654 184.251 14.7663Z" fill="#3575E6"/>
<path d="M226.501 18.0163C225.902 18.0163 225.418 17.532 225.418 16.9329V8.26628C225.418 7.66719 225.902 7.18294 226.501 7.18294C227.1 7.18294 227.585 7.66719 227.585 8.26628V16.9329C227.585 17.532 227.1 18.0163 226.501 18.0163ZM223.251 24.5163V0.682943C223.251 0.0838594 222.767 -0.400391 222.168 -0.400391C221.569 -0.400391 221.085 0.0838594 221.085 0.682943V24.5163C221.085 25.1154 221.569 25.5996 222.168 25.5996C222.767 25.5996 223.251 25.1154 223.251 24.5163ZM231.918 20.1829V5.01628C231.918 4.41719 231.434 3.93294 230.835 3.93294C230.236 3.93294 229.751 4.41719 229.751 5.01628V20.1829C229.751 20.782 230.236 21.2663 230.835 21.2663C231.434 21.2663 231.918 20.782 231.918 20.1829ZM218.918 20.1829V5.01628C218.918 4.41719 218.434 3.93294 217.835 3.93294C217.236 3.93294 216.751 4.41719 216.751 5.01628V20.1829C216.751 20.782 217.236 21.2663 217.835 21.2663C218.434 21.2663 218.918 20.782 218.918 20.1829ZM214.585 16.9329V8.26628C214.585 7.66719 214.1 7.18294 213.501 7.18294C212.902 7.18294 212.418 7.66719 212.418 8.26628V16.9329C212.418 17.532 212.902 18.0163 213.501 18.0163C214.1 18.0163 214.585 17.532 214.585 16.9329ZM210.251 14.7663V10.4329C210.251 9.83386 209.767 9.34961 209.168 9.34961C208.569 9.34961 208.085 9.83386 208.085 10.4329V14.7663C208.085 15.3654 208.569 15.8496 209.168 15.8496C209.767 15.8496 210.251 15.3654 210.251 14.7663Z" fill="#3575E6"/>
<path d="M252.501 18.0163C251.902 18.0163 251.418 17.532 251.418 16.9329V8.26628C251.418 7.66719 251.902 7.18294 252.501 7.18294C253.1 7.18294 253.585 7.66719 253.585 8.26628V16.9329C253.585 17.532 253.1 18.0163 252.501 18.0163ZM249.251 24.5163V0.682943C249.251 0.0838594 248.767 -0.400391 248.168 -0.400391C247.569 -0.400391 247.085 0.0838594 247.085 0.682943V24.5163C247.085 25.1154 247.569 25.5996 248.168 25.5996C248.767 25.5996 249.251 25.1154 249.251 24.5163ZM257.918 20.1829V5.01628C257.918 4.41719 257.434 3.93294 256.835 3.93294C256.236 3.93294 255.751 4.41719 255.751 5.01628V20.1829C255.751 20.782 256.236 21.2663 256.835 21.2663C257.434 21.2663 257.918 20.782 257.918 20.1829ZM244.918 20.1829V5.01628C244.918 4.41719 244.434 3.93294 243.835 3.93294C243.236 3.93294 242.751 4.41719 242.751 5.01628V20.1829C242.751 20.782 243.236 21.2663 243.835 21.2663C244.434 21.2663 244.918 20.782 244.918 20.1829ZM240.585 16.9329V8.26628C240.585 7.66719 240.1 7.18294 239.501 7.18294C238.902 7.18294 238.418 7.66719 238.418 8.26628V16.9329C238.418 17.532 238.902 18.0163 239.501 18.0163C240.1 18.0163 240.585 17.532 240.585 16.9329ZM236.251 14.7663V10.4329C236.251 9.83386 235.767 9.34961 235.168 9.34961C234.569 9.34961 234.085 9.83386 234.085 10.4329V14.7663C234.085 15.3654 234.569 15.8496 235.168 15.8496C235.767 15.8496 236.251 15.3654 236.251 14.7663Z" fill="#3575E6"/>
<path d="M278.501 18.0163C277.902 18.0163 277.418 17.532 277.418 16.9329V8.26628C277.418 7.66719 277.902 7.18294 278.501 7.18294C279.1 7.18294 279.585 7.66719 279.585 8.26628V16.9329C279.585 17.532 279.1 18.0163 278.501 18.0163ZM275.251 24.5163V0.682943C275.251 0.0838594 274.767 -0.400391 274.168 -0.400391C273.569 -0.400391 273.085 0.0838594 273.085 0.682943V24.5163C273.085 25.1154 273.569 25.5996 274.168 25.5996C274.767 25.5996 275.251 25.1154 275.251 24.5163ZM283.918 20.1829V5.01628C283.918 4.41719 283.434 3.93294 282.835 3.93294C282.236 3.93294 281.751 4.41719 281.751 5.01628V20.1829C281.751 20.782 282.236 21.2663 282.835 21.2663C283.434 21.2663 283.918 20.782 283.918 20.1829ZM270.918 20.1829V5.01628C270.918 4.41719 270.434 3.93294 269.835 3.93294C269.236 3.93294 268.751 4.41719 268.751 5.01628V20.1829C268.751 20.782 269.236 21.2663 269.835 21.2663C270.434 21.2663 270.918 20.782 270.918 20.1829ZM266.585 16.9329V8.26628C266.585 7.66719 266.1 7.18294 265.501 7.18294C264.902 7.18294 264.418 7.66719 264.418 8.26628V16.9329C264.418 17.532 264.902 18.0163 265.501 18.0163C266.1 18.0163 266.585 17.532 266.585 16.9329ZM262.251 14.7663V10.4329C262.251 9.83386 261.767 9.34961 261.168 9.34961C260.569 9.34961 260.085 9.83386 260.085 10.4329V14.7663C260.085 15.3654 260.569 15.8496 261.168 15.8496C261.767 15.8496 262.251 15.3654 262.251 14.7663Z" fill="#3575E6"/>
<path d="M304.501 18.0163C303.902 18.0163 303.418 17.532 303.418 16.9329V8.26628C303.418 7.66719 303.902 7.18294 304.501 7.18294C305.1 7.18294 305.585 7.66719 305.585 8.26628V16.9329C305.585 17.532 305.1 18.0163 304.501 18.0163ZM301.251 24.5163V0.682943C301.251 0.0838594 300.767 -0.400391 300.168 -0.400391C299.569 -0.400391 299.085 0.0838594 299.085 0.682943V24.5163C299.085 25.1154 299.569 25.5996 300.168 25.5996C300.767 25.5996 301.251 25.1154 301.251 24.5163ZM309.918 20.1829V5.01628C309.918 4.41719 309.434 3.93294 308.835 3.93294C308.236 3.93294 307.751 4.41719 307.751 5.01628V20.1829C307.751 20.782 308.236 21.2663 308.835 21.2663C309.434 21.2663 309.918 20.782 309.918 20.1829ZM296.918 20.1829V5.01628C296.918 4.41719 296.434 3.93294 295.835 3.93294C295.236 3.93294 294.751 4.41719 294.751 5.01628V20.1829C294.751 20.782 295.236 21.2663 295.835 21.2663C296.434 21.2663 296.918 20.782 296.918 20.1829ZM292.585 16.9329V8.26628C292.585 7.66719 292.1 7.18294 291.501 7.18294C290.902 7.18294 290.418 7.66719 290.418 8.26628V16.9329C290.418 17.532 290.902 18.0163 291.501 18.0163C292.1 18.0163 292.585 17.532 292.585 16.9329ZM288.251 14.7663V10.4329C288.251 9.83386 287.767 9.34961 287.168 9.34961C286.569 9.34961 286.085 9.83386 286.085 10.4329V14.7663C286.085 15.3654 286.569 15.8496 287.168 15.8496C287.767 15.8496 288.251 15.3654 288.251 14.7663Z" fill="#3575E6"/>
<path d="M330.501 18.0163C329.902 18.0163 329.418 17.532 329.418 16.9329V8.26628C329.418 7.66719 329.902 7.18294 330.501 7.18294C331.1 7.18294 331.585 7.66719 331.585 8.26628V16.9329C331.585 17.532 331.1 18.0163 330.501 18.0163ZM327.251 24.5163V0.682943C327.251 0.0838594 326.767 -0.400391 326.168 -0.400391C325.569 -0.400391 325.085 0.0838594 325.085 0.682943V24.5163C325.085 25.1154 325.569 25.5996 326.168 25.5996C326.767 25.5996 327.251 25.1154 327.251 24.5163ZM335.918 20.1829V5.01628C335.918 4.41719 335.434 3.93294 334.835 3.93294C334.236 3.93294 333.751 4.41719 333.751 5.01628V20.1829C333.751 20.782 334.236 21.2663 334.835 21.2663C335.434 21.2663 335.918 20.782 335.918 20.1829ZM322.918 20.1829V5.01628C322.918 4.41719 322.434 3.93294 321.835 3.93294C321.236 3.93294 320.751 4.41719 320.751 5.01628V20.1829C320.751 20.782 321.236 21.2663 321.835 21.2663C322.434 21.2663 322.918 20.782 322.918 20.1829ZM318.585 16.9329V8.26628C318.585 7.66719 318.1 7.18294 317.501 7.18294C316.902 7.18294 316.418 7.66719 316.418 8.26628V16.9329C316.418 17.532 316.902 18.0163 317.501 18.0163C318.1 18.0163 318.585 17.532 318.585 16.9329ZM314.251 14.7663V10.4329C314.251 9.83386 313.767 9.34961 313.168 9.34961C312.569 9.34961 312.085 9.83386 312.085 10.4329V14.7663C312.085 15.3654 312.569 15.8496 313.168 15.8496C313.767 15.8496 314.251 15.3654 314.251 14.7663Z" fill="#3575E6"/>
<path d="M356.501 18.0163C355.902 18.0163 355.418 17.532 355.418 16.9329V8.26628C355.418 7.66719 355.902 7.18294 356.501 7.18294C357.1 7.18294 357.585 7.66719 357.585 8.26628V16.9329C357.585 17.532 357.1 18.0163 356.501 18.0163ZM353.251 24.5163V0.682943C353.251 0.0838594 352.767 -0.400391 352.168 -0.400391C351.569 -0.400391 351.085 0.0838594 351.085 0.682943V24.5163C351.085 25.1154 351.569 25.5996 352.168 25.5996C352.767 25.5996 353.251 25.1154 353.251 24.5163ZM361.918 20.1829V5.01628C361.918 4.41719 361.434 3.93294 360.835 3.93294C360.236 3.93294 359.751 4.41719 359.751 5.01628V20.1829C359.751 20.782 360.236 21.2663 360.835 21.2663C361.434 21.2663 361.918 20.782 361.918 20.1829ZM348.918 20.1829V5.01628C348.918 4.41719 348.434 3.93294 347.835 3.93294C347.236 3.93294 346.751 4.41719 346.751 5.01628V20.1829C346.751 20.782 347.236 21.2663 347.835 21.2663C348.434 21.2663 348.918 20.782 348.918 20.1829ZM344.585 16.9329V8.26628C344.585 7.66719 344.1 7.18294 343.501 7.18294C342.902 7.18294 342.418 7.66719 342.418 8.26628V16.9329C342.418 17.532 342.902 18.0163 343.501 18.0163C344.1 18.0163 344.585 17.532 344.585 16.9329ZM340.251 14.7663V10.4329C340.251 9.83386 339.767 9.34961 339.168 9.34961C338.569 9.34961 338.085 9.83386 338.085 10.4329V14.7663C338.085 15.3654 338.569 15.8496 339.168 15.8496C339.767 15.8496 340.251 15.3654 340.251 14.7663Z" fill="#3575E6"/>
<path d="M382.501 18.0163C381.902 18.0163 381.418 17.532 381.418 16.9329V8.26628C381.418 7.66719 381.902 7.18294 382.501 7.18294C383.1 7.18294 383.585 7.66719 383.585 8.26628V16.9329C383.585 17.532 383.1 18.0163 382.501 18.0163ZM379.251 24.5163V0.682943C379.251 0.0838594 378.767 -0.400391 378.168 -0.400391C377.569 -0.400391 377.085 0.0838594 377.085 0.682943V24.5163C377.085 25.1154 377.569 25.5996 378.168 25.5996C378.767 25.5996 379.251 25.1154 379.251 24.5163ZM387.918 20.1829V5.01628C387.918 4.41719 387.434 3.93294 386.835 3.93294C386.236 3.93294 385.751 4.41719 385.751 5.01628V20.1829C385.751 20.782 386.236 21.2663 386.835 21.2663C387.434 21.2663 387.918 20.782 387.918 20.1829ZM374.918 20.1829V5.01628C374.918 4.41719 374.434 3.93294 373.835 3.93294C373.236 3.93294 372.751 4.41719 372.751 5.01628V20.1829C372.751 20.782 373.236 21.2663 373.835 21.2663C374.434 21.2663 374.918 20.782 374.918 20.1829ZM370.585 16.9329V8.26628C370.585 7.66719 370.1 7.18294 369.501 7.18294C368.902 7.18294 368.418 7.66719 368.418 8.26628V16.9329C368.418 17.532 368.902 18.0163 369.501 18.0163C370.1 18.0163 370.585 17.532 370.585 16.9329ZM366.251 14.7663V10.4329C366.251 9.83386 365.767 9.34961 365.168 9.34961C364.569 9.34961 364.085 9.83386 364.085 10.4329V14.7663C364.085 15.3654 364.569 15.8496 365.168 15.8496C365.767 15.8496 366.251 15.3654 366.251 14.7663Z" fill="#3575E6"/>
<path d="M408.501 18.0163C407.902 18.0163 407.418 17.532 407.418 16.9329V8.26628C407.418 7.66719 407.902 7.18294 408.501 7.18294C409.1 7.18294 409.585 7.66719 409.585 8.26628V16.9329C409.585 17.532 409.1 18.0163 408.501 18.0163ZM405.251 24.5163V0.682943C405.251 0.0838594 404.767 -0.400391 404.168 -0.400391C403.569 -0.400391 403.085 0.0838594 403.085 0.682943V24.5163C403.085 25.1154 403.569 25.5996 404.168 25.5996C404.767 25.5996 405.251 25.1154 405.251 24.5163ZM413.918 20.1829V5.01628C413.918 4.41719 413.434 3.93294 412.835 3.93294C412.236 3.93294 411.751 4.41719 411.751 5.01628V20.1829C411.751 20.782 412.236 21.2663 412.835 21.2663C413.434 21.2663 413.918 20.782 413.918 20.1829ZM400.918 20.1829V5.01628C400.918 4.41719 400.434 3.93294 399.835 3.93294C399.236 3.93294 398.751 4.41719 398.751 5.01628V20.1829C398.751 20.782 399.236 21.2663 399.835 21.2663C400.434 21.2663 400.918 20.782 400.918 20.1829ZM396.585 16.9329V8.26628C396.585 7.66719 396.1 7.18294 395.501 7.18294C394.902 7.18294 394.418 7.66719 394.418 8.26628V16.9329C394.418 17.532 394.902 18.0163 395.501 18.0163C396.1 18.0163 396.585 17.532 396.585 16.9329ZM392.251 14.7663V10.4329C392.251 9.83386 391.767 9.34961 391.168 9.34961C390.569 9.34961 390.085 9.83386 390.085 10.4329V14.7663C390.085 15.3654 390.569 15.8496 391.168 15.8496C391.767 15.8496 392.251 15.3654 392.251 14.7663Z" fill="#3575E6"/>
<path d="M434.501 18.0163C433.902 18.0163 433.418 17.532 433.418 16.9329V8.26628C433.418 7.66719 433.902 7.18294 434.501 7.18294C435.1 7.18294 435.585 7.66719 435.585 8.26628V16.9329C435.585 17.532 435.1 18.0163 434.501 18.0163ZM431.251 24.5163V0.682943C431.251 0.0838594 430.767 -0.400391 430.168 -0.400391C429.569 -0.400391 429.085 0.0838594 429.085 0.682943V24.5163C429.085 25.1154 429.569 25.5996 430.168 25.5996C430.767 25.5996 431.251 25.1154 431.251 24.5163ZM439.918 20.1829V5.01628C439.918 4.41719 439.434 3.93294 438.835 3.93294C438.236 3.93294 437.751 4.41719 437.751 5.01628V20.1829C437.751 20.782 438.236 21.2663 438.835 21.2663C439.434 21.2663 439.918 20.782 439.918 20.1829ZM426.918 20.1829V5.01628C426.918 4.41719 426.434 3.93294 425.835 3.93294C425.236 3.93294 424.751 4.41719 424.751 5.01628V20.1829C424.751 20.782 425.236 21.2663 425.835 21.2663C426.434 21.2663 426.918 20.782 426.918 20.1829ZM422.585 16.9329V8.26628C422.585 7.66719 422.1 7.18294 421.501 7.18294C420.902 7.18294 420.418 7.66719 420.418 8.26628V16.9329C420.418 17.532 420.902 18.0163 421.501 18.0163C422.1 18.0163 422.585 17.532 422.585 16.9329ZM418.251 14.7663V10.4329C418.251 9.83386 417.767 9.34961 417.168 9.34961C416.569 9.34961 416.085 9.83386 416.085 10.4329V14.7663C416.085 15.3654 416.569 15.8496 417.168 15.8496C417.767 15.8496 418.251 15.3654 418.251 14.7663Z" fill="#3575E6"/>
<path d="M460.501 18.0163C459.902 18.0163 459.418 17.532 459.418 16.9329V8.26628C459.418 7.66719 459.902 7.18294 460.501 7.18294C461.1 7.18294 461.585 7.66719 461.585 8.26628V16.9329C461.585 17.532 461.1 18.0163 460.501 18.0163ZM457.251 24.5163V0.682943C457.251 0.0838594 456.767 -0.400391 456.168 -0.400391C455.569 -0.400391 455.085 0.0838594 455.085 0.682943V24.5163C455.085 25.1154 455.569 25.5996 456.168 25.5996C456.767 25.5996 457.251 25.1154 457.251 24.5163ZM465.918 20.1829V5.01628C465.918 4.41719 465.434 3.93294 464.835 3.93294C464.236 3.93294 463.751 4.41719 463.751 5.01628V20.1829C463.751 20.782 464.236 21.2663 464.835 21.2663C465.434 21.2663 465.918 20.782 465.918 20.1829ZM452.918 20.1829V5.01628C452.918 4.41719 452.434 3.93294 451.835 3.93294C451.236 3.93294 450.751 4.41719 450.751 5.01628V20.1829C450.751 20.782 451.236 21.2663 451.835 21.2663C452.434 21.2663 452.918 20.782 452.918 20.1829ZM448.585 16.9329V8.26628C448.585 7.66719 448.1 7.18294 447.501 7.18294C446.902 7.18294 446.418 7.66719 446.418 8.26628V16.9329C446.418 17.532 446.902 18.0163 447.501 18.0163C448.1 18.0163 448.585 17.532 448.585 16.9329ZM444.251 14.7663V10.4329C444.251 9.83386 443.767 9.34961 443.168 9.34961C442.569 9.34961 442.085 9.83386 442.085 10.4329V14.7663C442.085 15.3654 442.569 15.8496 443.168 15.8496C443.767 15.8496 444.251 15.3654 444.251 14.7663Z" fill="#3575E6"/>
<path d="M486.501 18.0163C485.902 18.0163 485.418 17.532 485.418 16.9329V8.26628C485.418 7.66719 485.902 7.18294 486.501 7.18294C487.1 7.18294 487.585 7.66719 487.585 8.26628V16.9329C487.585 17.532 487.1 18.0163 486.501 18.0163ZM483.251 24.5163V0.682943C483.251 0.0838594 482.767 -0.400391 482.168 -0.400391C481.569 -0.400391 481.085 0.0838594 481.085 0.682943V24.5163C481.085 25.1154 481.569 25.5996 482.168 25.5996C482.767 25.5996 483.251 25.1154 483.251 24.5163ZM491.918 20.1829V5.01628C491.918 4.41719 491.434 3.93294 490.835 3.93294C490.236 3.93294 489.751 4.41719 489.751 5.01628V20.1829C489.751 20.782 490.236 21.2663 490.835 21.2663C491.434 21.2663 491.918 20.782 491.918 20.1829ZM478.918 20.1829V5.01628C478.918 4.41719 478.434 3.93294 477.835 3.93294C477.236 3.93294 476.751 4.41719 476.751 5.01628V20.1829C476.751 20.782 477.236 21.2663 477.835 21.2663C478.434 21.2663 478.918 20.782 478.918 20.1829ZM474.585 16.9329V8.26628C474.585 7.66719 474.1 7.18294 473.501 7.18294C472.902 7.18294 472.418 7.66719 472.418 8.26628V16.9329C472.418 17.532 472.902 18.0163 473.501 18.0163C474.1 18.0163 474.585 17.532 474.585 16.9329ZM470.251 14.7663V10.4329C470.251 9.83386 469.767 9.34961 469.168 9.34961C468.569 9.34961 468.085 9.83386 468.085 10.4329V14.7663C468.085 15.3654 468.569 15.8496 469.168 15.8496C469.767 15.8496 470.251 15.3654 470.251 14.7663Z" fill="#3575E6"/>
<path d="M512.501 18.0163C511.902 18.0163 511.418 17.532 511.418 16.9329V8.26628C511.418 7.66719 511.902 7.18294 512.501 7.18294C513.1 7.18294 513.585 7.66719 513.585 8.26628V16.9329C513.585 17.532 513.1 18.0163 512.501 18.0163ZM509.251 24.5163V0.682943C509.251 0.0838594 508.767 -0.400391 508.168 -0.400391C507.569 -0.400391 507.085 0.0838594 507.085 0.682943V24.5163C507.085 25.1154 507.569 25.5996 508.168 25.5996C508.767 25.5996 509.251 25.1154 509.251 24.5163ZM517.918 20.1829V5.01628C517.918 4.41719 517.434 3.93294 516.835 3.93294C516.236 3.93294 515.751 4.41719 515.751 5.01628V20.1829C515.751 20.782 516.236 21.2663 516.835 21.2663C517.434 21.2663 517.918 20.782 517.918 20.1829ZM504.918 20.1829V5.01628C504.918 4.41719 504.434 3.93294 503.835 3.93294C503.236 3.93294 502.751 4.41719 502.751 5.01628V20.1829C502.751 20.782 503.236 21.2663 503.835 21.2663C504.434 21.2663 504.918 20.782 504.918 20.1829ZM500.585 16.9329V8.26628C500.585 7.66719 500.1 7.18294 499.501 7.18294C498.902 7.18294 498.418 7.66719 498.418 8.26628V16.9329C498.418 17.532 498.902 18.0163 499.501 18.0163C500.1 18.0163 500.585 17.532 500.585 16.9329ZM496.251 14.7663V10.4329C496.251 9.83386 495.767 9.34961 495.168 9.34961C494.569 9.34961 494.085 9.83386 494.085 10.4329V14.7663C494.085 15.3654 494.569 15.8496 495.168 15.8496C495.767 15.8496 496.251 15.3654 496.251 14.7663Z" fill="#3575E6"/>
<path d="M538.501 18.0163C537.902 18.0163 537.418 17.532 537.418 16.9329V8.26628C537.418 7.66719 537.902 7.18294 538.501 7.18294C539.1 7.18294 539.585 7.66719 539.585 8.26628V16.9329C539.585 17.532 539.1 18.0163 538.501 18.0163ZM535.251 24.5163V0.682943C535.251 0.0838594 534.767 -0.400391 534.168 -0.400391C533.569 -0.400391 533.085 0.0838594 533.085 0.682943V24.5163C533.085 25.1154 533.569 25.5996 534.168 25.5996C534.767 25.5996 535.251 25.1154 535.251 24.5163ZM543.918 20.1829V5.01628C543.918 4.41719 543.434 3.93294 542.835 3.93294C542.236 3.93294 541.751 4.41719 541.751 5.01628V20.1829C541.751 20.782 542.236 21.2663 542.835 21.2663C543.434 21.2663 543.918 20.782 543.918 20.1829ZM530.918 20.1829V5.01628C530.918 4.41719 530.434 3.93294 529.835 3.93294C529.236 3.93294 528.751 4.41719 528.751 5.01628V20.1829C528.751 20.782 529.236 21.2663 529.835 21.2663C530.434 21.2663 530.918 20.782 530.918 20.1829ZM526.585 16.9329V8.26628C526.585 7.66719 526.1 7.18294 525.501 7.18294C524.902 7.18294 524.418 7.66719 524.418 8.26628V16.9329C524.418 17.532 524.902 18.0163 525.501 18.0163C526.1 18.0163 526.585 17.532 526.585 16.9329ZM522.251 14.7663V10.4329C522.251 9.83386 521.767 9.34961 521.168 9.34961C520.569 9.34961 520.085 9.83386 520.085 10.4329V14.7663C520.085 15.3654 520.569 15.8496 521.168 15.8496C521.767 15.8496 522.251 15.3654 522.251 14.7663Z" fill="#3575E6"/>
<path d="M564.501 18.0163C563.902 18.0163 563.418 17.532 563.418 16.9329V8.26628C563.418 7.66719 563.902 7.18294 564.501 7.18294C565.1 7.18294 565.585 7.66719 565.585 8.26628V16.9329C565.585 17.532 565.1 18.0163 564.501 18.0163ZM561.251 24.5163V0.682943C561.251 0.0838594 560.767 -0.400391 560.168 -0.400391C559.569 -0.400391 559.085 0.0838594 559.085 0.682943V24.5163C559.085 25.1154 559.569 25.5996 560.168 25.5996C560.767 25.5996 561.251 25.1154 561.251 24.5163ZM569.918 20.1829V5.01628C569.918 4.41719 569.434 3.93294 568.835 3.93294C568.236 3.93294 567.751 4.41719 567.751 5.01628V20.1829C567.751 20.782 568.236 21.2663 568.835 21.2663C569.434 21.2663 569.918 20.782 569.918 20.1829ZM556.918 20.1829V5.01628C556.918 4.41719 556.434 3.93294 555.835 3.93294C555.236 3.93294 554.751 4.41719 554.751 5.01628V20.1829C554.751 20.782 555.236 21.2663 555.835 21.2663C556.434 21.2663 556.918 20.782 556.918 20.1829ZM552.585 16.9329V8.26628C552.585 7.66719 552.1 7.18294 551.501 7.18294C550.902 7.18294 550.418 7.66719 550.418 8.26628V16.9329C550.418 17.532 550.902 18.0163 551.501 18.0163C552.1 18.0163 552.585 17.532 552.585 16.9329ZM548.251 14.7663V10.4329C548.251 9.83386 547.767 9.34961 547.168 9.34961C546.569 9.34961 546.085 9.83386 546.085 10.4329V14.7663C546.085 15.3654 546.569 15.8496 547.168 15.8496C547.767 15.8496 548.251 15.3654 548.251 14.7663Z" fill="#3575E6"/>
<path d="M590.501 18.0163C589.902 18.0163 589.418 17.532 589.418 16.9329V8.26628C589.418 7.66719 589.902 7.18294 590.501 7.18294C591.1 7.18294 591.585 7.66719 591.585 8.26628V16.9329C591.585 17.532 591.1 18.0163 590.501 18.0163ZM587.251 24.5163V0.682943C587.251 0.0838594 586.767 -0.400391 586.168 -0.400391C585.569 -0.400391 585.085 0.0838594 585.085 0.682943V24.5163C585.085 25.1154 585.569 25.5996 586.168 25.5996C586.767 25.5996 587.251 25.1154 587.251 24.5163ZM595.918 20.1829V5.01628C595.918 4.41719 595.434 3.93294 594.835 3.93294C594.236 3.93294 593.751 4.41719 593.751 5.01628V20.1829C593.751 20.782 594.236 21.2663 594.835 21.2663C595.434 21.2663 595.918 20.782 595.918 20.1829ZM582.918 20.1829V5.01628C582.918 4.41719 582.434 3.93294 581.835 3.93294C581.236 3.93294 580.751 4.41719 580.751 5.01628V20.1829C580.751 20.782 581.236 21.2663 581.835 21.2663C582.434 21.2663 582.918 20.782 582.918 20.1829ZM578.585 16.9329V8.26628C578.585 7.66719 578.1 7.18294 577.501 7.18294C576.902 7.18294 576.418 7.66719 576.418 8.26628V16.9329C576.418 17.532 576.902 18.0163 577.501 18.0163C578.1 18.0163 578.585 17.532 578.585 16.9329ZM574.251 14.7663V10.4329C574.251 9.83386 573.767 9.34961 573.168 9.34961C572.569 9.34961 572.085 9.83386 572.085 10.4329V14.7663C572.085 15.3654 572.569 15.8496 573.168 15.8496C573.767 15.8496 574.251 15.3654 574.251 14.7663Z" fill="#3575E6"/>
</svg>
