<svg width="20" height="16" viewBox="0 0 20 16" fill="none" xmlns="http://www.w3.org/2000/svg">
<path d="M14.9783 4.11393C14.7025 4.06112 14.4767 3.89549 14.36 3.65865C13.0683 1.0414 10.0742 -0.422058 7.08167 0.107634C4.355 0.587717 2.2175 2.67768 1.76167 5.30934C1.62667 6.08627 1.63667 6.86401 1.78917 7.62174C1.83917 7.86898 1.72833 8.14423 1.50083 8.34267C0.546667 9.17561 0 10.3622 0 11.5992C0 14.0253 2.05583 16 4.58333 16H13.75C17.1967 16 20 13.3083 20 9.99896C20 7.14646 17.8883 4.67083 14.9783 4.11393ZM13.75 14.3989H4.58333C2.975 14.3989 1.66667 13.1427 1.66667 11.5984C1.66667 10.8119 2.015 10.0558 2.62167 9.52607C3.27667 8.95397 3.58417 8.10743 3.42417 7.31529C3.30917 6.74559 3.3025 6.15909 3.40417 5.57018C3.74 3.63225 5.375 2.03277 7.38 1.67991C7.70083 1.6239 8.02 1.59669 8.335 1.59669C10.2617 1.59669 12.0058 2.62807 12.8533 4.34437C13.1975 5.04209 13.8533 5.53018 14.6517 5.683C16.785 6.09188 18.3325 7.90659 18.3325 9.99896C18.3325 12.425 16.2758 14.3997 13.7492 14.3997L13.75 14.3989ZM12.6008 8.23225C12.9267 8.5451 12.9267 9.05079 12.6008 9.36364C12.4383 9.51967 12.225 9.59809 12.0117 9.59809C11.7983 9.59809 11.585 9.51967 11.4225 9.36364L10 7.99781V11.9985C10 12.441 9.62667 12.7986 9.16667 12.7986C8.70667 12.7986 8.33333 12.441 8.33333 11.9985V7.99781L6.91083 9.36364C6.585 9.6765 6.05833 9.6765 5.7325 9.36364C5.40667 9.05079 5.40667 8.5451 5.7325 8.23225L7.98833 6.06627C8.31 5.75742 8.7325 5.60219 9.155 5.59979L9.16667 5.59739L9.17833 5.59979C9.60167 5.60219 10.0233 5.75742 10.345 6.06627L12.6008 8.23225Z" fill="#488AFF"/>
</svg>
