<svg width="19" height="23" viewBox="0 0 19 23" fill="none" xmlns="http://www.w3.org/2000/svg">
<path d="M18.05 3.83332H15.105C14.6505 1.60385 12.7063 0.002875 10.45 0H8.54997C6.29361 0.002875 4.34946 1.60385 3.89498 3.83332H0.949987C0.425319 3.83332 0 4.26237 0 4.79164C0 5.32091 0.425319 5.75 0.949987 5.75H1.89997V18.2083C1.90314 20.8534 4.02795 22.9969 6.65 23H12.35C14.9721 22.9969 17.0969 20.8534 17.1 18.2083V5.75H18.05C18.5747 5.75 19 5.32095 19 4.79168C19 4.26241 18.5747 3.83332 18.05 3.83332ZM8.55001 16.2917C8.55001 16.821 8.12469 17.25 7.60003 17.25C7.07531 17.25 6.65 16.821 6.65 16.2917V10.5417C6.65 10.0124 7.07531 9.58336 7.59998 9.58336C8.12465 9.58336 8.54997 10.0124 8.54997 10.5417V16.2917H8.55001ZM12.35 16.2917C12.35 16.821 11.9247 17.25 11.4 17.25C10.8753 17.25 10.45 16.821 10.45 16.2917V10.5417C10.45 10.0124 10.8753 9.58336 11.4 9.58336C11.9247 9.58336 12.35 10.0124 12.35 10.5417V16.2917ZM5.86246 3.83332C6.26654 2.68552 7.34259 1.91812 8.55001 1.91664H10.45C11.6575 1.91812 12.7335 2.68552 13.1376 3.83332H5.86246Z" fill="#E32645"/>
</svg>
