<svg width="23" height="23" viewBox="0 0 23 23" fill="none" xmlns="http://www.w3.org/2000/svg">
<path d="M13.75 8.33335H18.655C18.3932 7.60096 17.9864 6.93596 17.4618 6.38269L14.8488 3.62294C14.324 3.06983 13.6938 2.64073 13 2.36419V7.54169C13 7.97888 13.3358 8.33335 13.75 8.33335Z" fill="white"/>
<path d="M18.982 9.91665H13.75C12.5074 9.91665 11.5 8.85332 11.5 7.54165V2.019C11.3792 2.01028 11.2585 2 11.1362 2H7.74998C5.67994 2.00263 4.00246 3.77331 4 5.95835V17.0417C4.00246 19.2267 5.67994 20.9974 7.74998 21H15.25C17.32 20.9974 18.9975 19.2267 19 17.0417V10.3006C19 10.1716 18.9903 10.0441 18.982 9.91665Z" fill="white"/>
</svg>
