<svg width="100%" height="100%" viewBox="0 0 14 12" xmlns="http://www.w3.org/2000/svg">
<path d="M12.8333 2.4H1.16667V3.6H12.8333V2.4Z" fill="currentColor"/>
<path d="M12.8333 0H1.16667V1.2H12.8333V0Z" fill="currentColor"/>
<path d="M12.25 12H1.75C1.28587 12 0.840752 11.8104 0.512563 11.4728C0.184374 11.1352 0 10.6774 0 10.2V4.8H4.66667V6C4.66667 6.31826 4.78958 6.62348 5.00838 6.84853C5.22717 7.07357 5.52391 7.2 5.83333 7.2H8.16667C8.47609 7.2 8.77283 7.07357 8.99162 6.84853C9.21042 6.62348 9.33333 6.31826 9.33333 6V4.8H14V10.2C14 10.6774 13.8156 11.1352 13.4874 11.4728C13.1592 11.8104 12.7141 12 12.25 12Z" fill="currentColor"/>
<path d="M12.8333 2.4H1.16667V3.6H12.8333V2.4Z" fill="currentColor"/>
<path d="M12.8333 0H1.16667V1.2H12.8333V0Z" fill="currentColor"/>
</svg>
