<svg width="100%" height="100%" viewBox="0 0 21 21" xmlns="http://www.w3.org/2000/svg">
<path d="M10.4996 3C9.31476 3.00013 8.14682 3.28093 7.09144 3.81941C6.03607 4.35789 5.12328 5.13872 4.42786 6.09793C3.73243 7.05715 3.27416 8.16747 3.09058 9.33792C2.907 10.5084 3.00333 11.7057 3.37169 12.8317C3.74005 13.9578 4.36995 14.9805 5.20979 15.8162C6.04964 16.6519 7.07552 17.2768 8.20342 17.6396C9.33132 18.0025 10.5291 18.0929 11.6987 17.9037C12.8683 17.7144 13.9765 17.2507 14.9323 16.5506L13.8229 15.0387C12.8027 15.7857 11.5606 16.1672 10.297 16.1217C9.03339 16.0761 7.82197 15.6062 6.85821 14.7878C5.89444 13.9693 5.23453 12.8501 4.98496 11.6106C4.73539 10.3711 4.9107 9.08366 5.48262 7.95603C6.05454 6.8284 6.98971 5.92633 8.13723 5.39536C9.28476 4.86439 10.5777 4.73549 11.8075 5.02946C13.0373 5.32343 14.1321 6.02312 14.9154 7.01565C15.6987 8.00817 16.1248 9.23564 16.1249 10.5V11.4375C16.1249 11.6861 16.0261 11.9246 15.8503 12.1004C15.6744 12.2762 15.436 12.375 15.1873 12.375C14.9387 12.375 14.7002 12.2762 14.5244 12.1004C14.3486 11.9246 14.2498 11.6861 14.2498 11.4375V10.5C14.2531 9.63436 13.958 8.79402 13.4141 8.12054C12.8703 7.44705 12.1109 6.98158 11.2639 6.80253C10.4169 6.62348 9.53414 6.74179 8.76421 7.13753C7.99428 7.53327 7.38427 8.18226 7.03695 8.97518C6.68962 9.7681 6.6262 10.6565 6.85737 11.4907C7.08853 12.3249 7.60016 13.054 8.30606 13.5551C9.01197 14.0562 9.86901 14.2987 10.7328 14.2417C11.5966 14.1848 12.4144 13.8319 13.0485 13.2425C13.4175 13.6855 13.9143 14.0037 14.471 14.1538C15.0277 14.3039 15.6172 14.2784 16.1589 14.0809C16.7006 13.8835 17.1682 13.5236 17.4977 13.0505C17.8272 12.5773 18.0026 12.014 18 11.4375V10.5C17.9978 8.51154 17.2069 6.60513 15.8008 5.19907C14.3947 3.79302 12.4882 3.00215 10.4996 3ZM10.4996 12.375C10.1287 12.375 9.76619 12.265 9.45784 12.059C9.14948 11.853 8.90914 11.5601 8.76722 11.2175C8.6253 10.8749 8.58817 10.4979 8.66052 10.1342C8.73287 9.77049 8.91145 9.4364 9.17369 9.17417C9.43593 8.91195 9.77004 8.73337 10.1338 8.66103C10.4975 8.58868 10.8745 8.62581 11.2172 8.76772C11.5598 8.90964 11.8526 9.14996 12.0587 9.45831C12.2647 9.76665 12.3747 10.1292 12.3747 10.5C12.3747 10.9973 12.1771 11.4742 11.8255 11.8258C11.4738 12.1775 10.9969 12.375 10.4996 12.375Z" fill="currentColor"/>
</svg>
