<svg width="100%" height="100%" viewBox="0 0 20 20" xmlns="http://www.w3.org/2000/svg">
<path d="M4.93896 13.9975H15.0605C15.372 13.9975 15.6789 13.9202 15.9553 13.772C16.2316 13.6238 16.4693 13.4092 16.6482 13.1463C16.8271 12.8834 16.942 12.5799 16.9831 12.2616C17.0241 11.9432 16.9902 11.6194 16.8842 11.3174L15.0404 6.06182C14.7255 4.89387 14.0482 3.8644 13.1121 3.13088C12.176 2.39735 11.0326 2.00014 9.85684 2C8.63285 1.99998 7.44545 2.4303 6.49068 3.21992C5.53592 4.00953 4.87088 5.11122 4.60537 6.34309L3.08611 11.4087C2.99666 11.7078 2.97655 12.0243 3.0274 12.3329C3.07825 12.6414 3.19864 12.9333 3.37888 13.1852C3.55912 13.437 3.79417 13.6417 4.06514 13.7828C4.3361 13.9239 4.6354 13.9974 4.93896 13.9975Z" fill="currentColor"/>
<path d="M6.89913 15.3305C7.04751 16.0839 7.44395 16.7612 8.02128 17.2477C8.5986 17.7342 9.32131 18 10.0669 18C10.8126 18 11.5353 17.7342 12.1126 17.2477C12.6899 16.7612 13.0864 16.0839 13.2348 15.3305H6.89913Z" fill="currentColor"/>
</svg>
