<svg width="16" height="16" viewBox="0 0 16 16" fill="none" xmlns="http://www.w3.org/2000/svg">
<path d="M15.3333 6.08494H14.6667V2.70442C14.6667 1.21293 13.4707 0 12 0H4C2.52933 0 1.33333 1.21293 1.33333 2.70442V6.08494H0.666667C0.298667 6.08494 0 6.38715 0 6.76104C0 7.13492 0.298667 7.43714 0.666667 7.43714H1.33333V10.8177C1.33333 12.3091 2.52933 13.5221 4 13.5221H4.61533L7.114 15.6559C7.36867 15.8857 7.68867 16 8.006 16C8.31733 16 8.62667 15.8898 8.86733 15.6721L11.432 13.5221H12C13.4707 13.5221 14.6667 12.3091 14.6667 10.8177V7.43714H15.3333C15.7013 7.43714 16 7.13492 16 6.76104C16 6.38715 15.7013 6.08494 15.3333 6.08494ZM13.3333 10.8177C13.3333 11.5634 12.7353 12.1699 12 12.1699H11.1927C11.038 12.1699 10.8873 12.2246 10.768 12.3247L7.98667 14.6336L5.28867 12.3288C5.16867 12.226 5.01667 12.1699 4.85933 12.1699H4C3.26467 12.1699 2.66667 11.5634 2.66667 10.8177V2.70442C2.66667 1.95867 3.26467 1.35221 4 1.35221H12C12.7353 1.35221 13.3333 1.95867 13.3333 2.70442V10.8177ZM10.6667 4.05662H5.33333C4.59667 4.05662 4 4.66174 4 5.40883V8.78935C4 9.53645 4.59667 10.1416 5.33333 10.1416H10.6667C11.4033 10.1416 12 9.53645 12 8.78935V5.40883C12 4.66174 11.4033 4.05662 10.6667 4.05662ZM6.33333 8.11325C5.78133 8.11325 5.33333 7.65891 5.33333 7.09909C5.33333 6.53928 5.78133 6.08494 6.33333 6.08494C6.88533 6.08494 7.33333 6.53928 7.33333 7.09909C7.33333 7.65891 6.88533 8.11325 6.33333 8.11325ZM9.66667 8.11325C9.11467 8.11325 8.66667 7.65891 8.66667 7.09909C8.66667 6.53928 9.11467 6.08494 9.66667 6.08494C10.2187 6.08494 10.6667 6.53928 10.6667 7.09909C10.6667 7.65891 10.2187 8.11325 9.66667 8.11325Z" fill="#171923"/>
</svg>
