<svg width="100%" height="100%" viewBox="0 0 21 21" xmlns="http://www.w3.org/2000/svg">
<g clip-path="url(#clip0_1_985)">
<path d="M12.934 7.67815C12.6818 7.44322 12.2709 7.44026 12.0148 7.67155L7.21016 12.0463L5.12156 10.0543C4.87245 9.81511 4.46004 9.80726 4.20044 10.0368C3.94081 10.2663 3.93229 10.6462 4.18139 10.8854C4.18252 10.8864 4.18362 10.8875 4.18475 10.8886L6.73135 13.3199C6.85323 13.4345 7.0198 13.4994 7.1939 13.5H7.20107C7.37187 13.4995 7.53565 13.4372 7.6571 13.3266L12.9281 8.52503C13.1828 8.29235 13.1854 7.91382 12.934 7.67815Z" fill="currentColor"/>
<path d="M10.6401 13.3199C10.7617 13.4342 10.9277 13.499 11.1014 13.5H11.1086C11.2794 13.4995 11.4431 13.4372 11.5646 13.3265L16.8356 8.52503C17.0745 8.27717 17.0501 7.89783 16.7811 7.67771C16.5373 7.47816 16.1708 7.47554 15.9236 7.67155L11.1209 12.0463L10.9496 11.8825C10.7005 11.6433 10.2881 11.6354 10.0285 11.8649C9.76884 12.0944 9.76029 12.4743 10.0094 12.7135C10.0105 12.7146 10.0117 12.7157 10.0128 12.7167L10.6401 13.3199Z" fill="currentColor"/>
</g>
</svg>
