
<svg width="20" height="21" viewBox="0 0 20 21" fill="none" xmlns="http://www.w3.org/2000/svg">
  <path d="M11.6672 20.5C11.4869 20.5 11.3115 20.4415 11.1672 20.3333L7.83389 17.8333C7.73039 17.7557 7.64639 17.6551 7.58853 17.5393C7.53067 17.4236 7.50055 17.296 7.50055 17.1667V12.4833L1.65389 5.90583C1.23865 5.4374 0.967536 4.85901 0.87312 4.2402C0.778704 3.62138 0.865007 2.98846 1.12166 2.41751C1.37831 1.84656 1.79438 1.36188 2.31987 1.02172C2.84536 0.681561 3.45791 0.500395 4.08389 0.5H15.9172C16.5431 0.500734 17.1555 0.682199 17.6808 1.02259C18.2061 1.36298 18.6219 1.84781 18.8783 2.41882C19.1347 2.98983 19.2207 3.62273 19.126 4.24146C19.0314 4.86018 18.7601 5.43841 18.3447 5.90667L12.5006 12.4833V19.6667C12.5006 19.8877 12.4128 20.0996 12.2565 20.2559C12.1002 20.4122 11.8882 20.5 11.6672 20.5ZM9.16722 16.75L10.8339 18V12.1667C10.8341 11.9626 10.9091 11.7657 11.0447 11.6133L17.1014 4.79917C17.3033 4.5709 17.4351 4.2892 17.4809 3.98788C17.5267 3.68655 17.4846 3.37842 17.3595 3.10046C17.2345 2.82251 17.0319 2.58655 16.7761 2.42091C16.5202 2.25527 16.222 2.16699 15.9172 2.16667H4.08389C3.77926 2.16713 3.48124 2.25546 3.22556 2.42105C2.96988 2.58665 2.76739 2.8225 2.64239 3.10029C2.51739 3.37809 2.47518 3.68605 2.52083 3.98723C2.56647 4.28842 2.69803 4.57004 2.89972 4.79833L8.95722 11.6133C9.09257 11.7659 9.16728 11.9627 9.16722 12.1667V16.75Z" fill="white"/>
  </svg>
  