
<svg width="14" height="14" viewBox="0 0 14 14" >
  <path d="M9.93501 4.69593C9.76777 4.74036 9.61746 4.83339 9.50309 4.96325C9.38872 5.0931 9.31542 5.25396 9.29245 5.42547C9.26949 5.59699 9.2979 5.77146 9.37409 5.92683C9.45028 6.0822 9.57082 6.21149 9.72048 6.29835C9.87014 6.38521 10.0422 6.42575 10.2149 6.41483C10.3876 6.40391 10.5532 6.34203 10.6907 6.23701C10.8282 6.13199 10.9315 5.98855 10.9875 5.82482C11.0436 5.66109 11.0498 5.48443 11.0054 5.31717C10.9759 5.20609 10.9248 5.1019 10.8551 5.01055C10.7854 4.91921 10.6983 4.8425 10.5989 4.78481C10.4995 4.72712 10.3897 4.68958 10.2758 4.67433C10.1619 4.65908 10.0461 4.66642 9.93501 4.69593Z" />
  <path d="M7.01844 2.94595C6.8512 2.99038 6.70089 3.08341 6.58652 3.21327C6.47215 3.34312 6.39884 3.50398 6.37588 3.67549C6.35292 3.84701 6.38133 4.02148 6.45752 4.17685C6.5337 4.33222 6.65425 4.46151 6.80391 4.54837C6.95357 4.63523 7.12563 4.67577 7.29832 4.66485C7.47102 4.65393 7.6366 4.59205 7.77413 4.48703C7.91166 4.38201 8.01496 4.23856 8.07098 4.07484C8.12699 3.91111 8.1332 3.73445 8.08882 3.56719C8.05935 3.45611 8.00828 3.35192 7.93853 3.26057C7.86878 3.16923 7.78172 3.09252 7.68232 3.03483C7.58292 2.97714 7.47313 2.9396 7.35922 2.92435C7.24531 2.9091 7.12951 2.91644 7.01844 2.94595Z" />
  <path d="M4.10187 4.69593C3.93463 4.74036 3.78432 4.83339 3.66995 4.96325C3.55557 5.0931 3.48227 5.25396 3.45931 5.42547C3.43635 5.59699 3.46476 5.77146 3.54094 5.92683C3.61713 6.0822 3.73768 6.21149 3.88734 6.29835C4.037 6.38521 4.20906 6.42575 4.38175 6.41483C4.55445 6.40391 4.72003 6.34203 4.85756 6.23701C4.99509 6.13199 5.09839 5.98855 5.15441 5.82482C5.21042 5.66109 5.21663 5.48443 5.17225 5.31717C5.14277 5.20609 5.0917 5.1019 5.02195 5.01055C4.95221 4.91921 4.86515 4.8425 4.76575 4.78481C4.66635 4.72712 4.55656 4.68958 4.44265 4.67433C4.32874 4.65908 4.21294 4.66642 4.10187 4.69593Z" />
  <path d="M4.10187 8.19589C3.93463 8.24033 3.78432 8.33335 3.66995 8.46321C3.55557 8.59307 3.48227 8.75392 3.45931 8.92544C3.43635 9.09695 3.46476 9.27142 3.54094 9.42679C3.61713 9.58216 3.73768 9.71145 3.88734 9.79832C4.037 9.88518 4.20906 9.92571 4.38175 9.91479C4.55445 9.90388 4.72003 9.84199 4.85756 9.73697C4.99509 9.63195 5.09839 9.48851 5.15441 9.32478C5.21042 9.16106 5.21663 8.98439 5.17225 8.81714C5.14277 8.70605 5.0917 8.60186 5.02195 8.51052C4.95221 8.41917 4.86515 8.34247 4.76575 8.28478C4.66635 8.22709 4.55656 8.18954 4.44265 8.17429C4.32874 8.15904 4.21294 8.16638 4.10187 8.19589Z" />
  <path d="M7.24301 0.00422795C6.30387 -0.0284277 5.36777 0.128354 4.49051 0.465227C3.61326 0.802099 2.81281 1.31217 2.13689 1.96502C1.46098 2.61787 0.923432 3.40013 0.556303 4.26518C0.189175 5.13023 -1.9385e-05 6.06034 1.4901e-09 7.00007C0.00216131 8.85591 0.740329 10.6351 2.05257 11.9474C3.36482 13.2597 5.14398 13.9978 6.99977 14C7.19693 14 7.39059 13.9872 7.58309 13.9708C7.72915 13.9585 7.86522 13.8917 7.96423 13.7836C8.06324 13.6755 8.11792 13.5341 8.1174 13.3875L8.09874 11.2945C8.09401 10.8809 8.21266 10.4753 8.43953 10.1295C8.6664 9.78362 8.9912 9.51324 9.37245 9.35285C9.7537 9.19245 10.1741 9.14933 10.58 9.22899C10.9858 9.30864 11.3588 9.50745 11.6511 9.80004L11.7095 9.85838C11.8419 9.99193 12.0059 10.0898 12.1863 10.143C12.3667 10.1961 12.5577 10.2027 12.7413 10.1623C12.922 10.1244 13.0903 10.0416 13.2307 9.92163C13.371 9.80165 13.479 9.64831 13.5446 9.47571C13.8666 8.63006 14.0206 7.72969 13.9978 6.82507C13.9322 5.04827 13.2014 3.36097 11.9502 2.09763C10.6991 0.834293 9.01906 0.087126 7.24301 0.00422795ZM12.4823 8.98747L12.4742 8.9793C12.0182 8.5241 11.4372 8.21482 10.805 8.0908C10.1727 7.96679 9.51789 8.03364 8.92377 8.28287C8.32965 8.53209 7.82309 8.95242 7.46853 9.49037C7.11398 10.0283 6.92745 10.6596 6.93269 11.3039L6.94669 12.8333C5.39964 12.8264 3.91873 12.2051 2.82972 11.1063C1.74072 10.0074 1.13283 8.5209 1.1398 6.97382C1.14676 5.42674 1.768 3.94579 2.86685 2.85676C3.9657 1.76774 5.45214 1.15984 6.99919 1.1668C7.06744 1.1668 7.13627 1.1668 7.2051 1.1703C8.68461 1.23979 10.084 1.86256 11.126 2.91519C12.1681 3.96781 12.7766 5.37349 12.8312 6.85366C12.8504 7.57907 12.7327 8.30162 12.4841 8.98339L12.4823 8.98747Z" />
  </svg>
  