<svg width="100%" height="100%" viewBox="0 0 12 15" xmlns="http://www.w3.org/2000/svg">
<path d="M6.6 2.49994C6.6 2.6657 6.66321 2.82467 6.77574 2.94188C6.88826 3.05909 7.04087 3.12494 7.2 3.12494H9.5796C9.53543 2.71911 9.36446 2.33965 9.093 2.04494L7.7226 0.570564C7.42281 0.254031 7.02511 0.058298 6.6 0.018064V2.49994ZM5.4 2.49994V-6.10352e-05H3C2.20464 0.000931376 1.44213 0.33049 0.879732 0.916326C0.317329 1.50216 0.000952715 2.29644 0 3.12494V9.37494C0.000952715 10.2034 0.317329 10.9977 0.879732 11.5836C1.44213 12.1694 2.20464 12.4989 3 12.4999H6.6C7.39536 12.4989 8.15787 12.1694 8.72027 11.5836C9.28267 10.9977 9.59905 10.2034 9.6 9.37494V4.37494H7.2C6.72261 4.37494 6.26477 4.1774 5.92721 3.82576C5.58964 3.47413 5.4 2.99722 5.4 2.49994ZM9 14.9999H3.6C3.44087 14.9999 3.28826 14.9341 3.17574 14.8169C3.06321 14.6997 3 14.5407 3 14.3749C3 14.2092 3.06321 14.0502 3.17574 13.933C3.28826 13.8158 3.44087 13.7499 3.6 13.7499H9C9.47739 13.7499 9.93523 13.5524 10.2728 13.2008C10.6104 12.8491 10.8 12.3722 10.8 11.8749V4.99994C10.8 4.83418 10.8632 4.67521 10.9757 4.558C11.0883 4.44079 11.2409 4.37494 11.4 4.37494C11.5591 4.37494 11.7117 4.44079 11.8243 4.558C11.9368 4.67521 12 4.83418 12 4.99994V11.8749C11.999 12.7034 11.6827 13.4977 11.1203 14.0836C10.5579 14.6694 9.79536 14.9989 9 14.9999Z" fill="currentColor"/>
</svg>
