<svg width="100%" height="100%" viewBox="0 0 26 26" xmlns="http://www.w3.org/2000/svg">
<path d="M18.0993 9.43258L14.5318 13L18.0993 16.5674L16.5674 18.0993L13 14.5318L9.43258 18.0993L7.90075 16.5674L11.4682 13L7.90075 9.43258L9.43258 7.90075L13 11.4682L16.5674 7.90075L18.0993 9.43258ZM26 13C26 20.1684 20.1684 26 13 26C5.83158 26 0 20.1684 0 13C0 5.83158 5.83158 0 13 0C20.1684 0 26 5.83158 26 13ZM23.8333 13C23.8333 7.0265 18.9735 2.16667 13 2.16667C7.0265 2.16667 2.16667 7.0265 2.16667 13C2.16667 18.9735 7.0265 23.8333 13 23.8333C18.9735 23.8333 23.8333 18.9735 23.8333 13Z" fill="currentColor"/>
</svg>
