<svg width="14" height="16" viewBox="0 0 14 16" fill="none" xmlns="http://www.w3.org/2000/svg">
<path d="M13.3 2.66862H11.13C10.9675 1.91623 10.5377 1.24018 9.91288 0.754432C9.28808 0.26868 8.50654 0.00292281 7.7 0.00195312H6.3C5.49346 0.00292281 4.71192 0.26868 4.08712 0.754432C3.46233 1.24018 3.03247 1.91623 2.87 2.66862H0.7C0.514348 2.66862 0.336301 2.73886 0.205025 2.86388C0.0737498 2.98891 0 3.15848 0 3.33529C0 3.5121 0.0737498 3.68167 0.205025 3.80669C0.336301 3.93172 0.514348 4.00195 0.7 4.00195H1.4V12.6686C1.40111 13.5524 1.77022 14.3996 2.42635 15.0245C3.08249 15.6494 3.97208 16.0009 4.9 16.002H9.1C10.0279 16.0009 10.9175 15.6494 11.5736 15.0245C12.2298 14.3996 12.5989 13.5524 12.6 12.6686V4.00195H13.3C13.4857 4.00195 13.6637 3.93172 13.795 3.80669C13.9263 3.68167 14 3.5121 14 3.33529C14 3.15848 13.9263 2.98891 13.795 2.86388C13.6637 2.73886 13.4857 2.66862 13.3 2.66862ZM6.3 1.33529H7.7C8.13419 1.33579 8.55759 1.4642 8.91213 1.70292C9.26667 1.94163 9.53499 2.27895 9.6803 2.66862H4.3197C4.46501 2.27895 4.73333 1.94163 5.08787 1.70292C5.44241 1.4642 5.86581 1.33579 6.3 1.33529ZM11.2 12.6686C11.2 13.1991 10.9788 13.7078 10.5849 14.0828C10.1911 14.4579 9.65695 14.6686 9.1 14.6686H4.9C4.34305 14.6686 3.8089 14.4579 3.41508 14.0828C3.02125 13.7078 2.8 13.1991 2.8 12.6686V4.00195H11.2V12.6686Z" fill="#9AA0B8"/>
<path d="M5.6 12.002C5.78565 12.002 5.9637 11.9317 6.09497 11.8067C6.22625 11.6817 6.3 11.5121 6.3 11.3353V7.33529C6.3 7.15848 6.22625 6.98891 6.09497 6.86388C5.9637 6.73886 5.78565 6.66862 5.6 6.66862C5.41435 6.66862 5.2363 6.73886 5.10503 6.86388C4.97375 6.98891 4.9 7.15848 4.9 7.33529V11.3353C4.9 11.5121 4.97375 11.6817 5.10503 11.8067C5.2363 11.9317 5.41435 12.002 5.6 12.002Z" fill="#9AA0B8"/>
<path d="M8.4 12.002C8.58565 12.002 8.7637 11.9317 8.89497 11.8067C9.02625 11.6817 9.1 11.5121 9.1 11.3353V7.33529C9.1 7.15848 9.02625 6.98891 8.89497 6.86388C8.7637 6.73886 8.58565 6.66862 8.4 6.66862C8.21435 6.66862 8.0363 6.73886 7.90503 6.86388C7.77375 6.98891 7.7 7.15848 7.7 7.33529V11.3353C7.7 11.5121 7.77375 11.6817 7.90503 11.8067C8.0363 11.9317 8.21435 12.002 8.4 12.002Z" fill="#9AA0B8"/>
</svg>
