<svg width="100%" height="100%" viewBox="0 0 20 20" xmlns="http://www.w3.org/2000/svg">
<path d="M10.0417 4H5.70833C4.21496 4 3 5.21476 3 6.70788V13.6693C3 14.0988 3.23562 14.492 3.61425 14.6951C3.7865 14.7877 3.97554 14.8332 4.16404 14.8332C4.38937 14.8332 4.61417 14.7676 4.80917 14.6382L6.95579 13.2068H10.0417C11.535 13.2068 12.75 11.992 12.75 10.4989V6.70788C12.75 5.21476 11.535 4 10.0417 4ZM16 8.87419V15.8356C16 16.2651 15.7644 16.6583 15.3857 16.8614C15.2135 16.954 15.0245 16.9995 14.836 17C14.6106 17 14.3858 16.9345 14.1914 16.805L12.0442 15.3731H8.95833C8.17292 15.3731 7.47038 15.0314 6.97529 14.4958L7.2835 14.29H10.0417C12.132 14.29 13.8333 12.5889 13.8333 10.4989V6.70788C13.8333 6.54108 13.8187 6.3786 13.7981 6.21721C15.0499 6.45551 16 7.55437 16 8.87419Z" fill="currentColor"/>
</svg>
