<svg width="100%" height="100%" viewBox="0 0 5 25" xmlns="http://www.w3.org/2000/svg">
<path d="M2.5 5.2083C3.88071 5.2083 5 4.04238 5 2.60415C5 1.16592 3.88071 0 2.5 0C1.11929 0 0 1.16592 0 2.60415C0 4.04238 1.11929 5.2083 2.5 5.2083Z" fill="currentColor"/>
<path d="M2.5 15.1042C3.88071 15.1042 5 13.9382 5 12.5C5 11.0618 3.88071 9.89585 2.5 9.89585C1.11929 9.89585 0 11.0618 0 12.5C0 13.9382 1.11929 15.1042 2.5 15.1042Z" fill="currentColor"/>
<path d="M2.5 25C3.88071 25 5 23.8341 5 22.3958C5 20.9576 3.88071 19.7917 2.5 19.7917C1.11929 19.7917 0 20.9576 0 22.3958C0 23.8341 1.11929 25 2.5 25Z" fill="currentColor"/>
</svg>
