<svg width="22" height="22" viewBox="0 0 22 22" fill="none" xmlns="http://www.w3.org/2000/svg">
<path d="M17.3153 4.66484C16.8694 4.23812 16.2764 4 15.6596 4C15.0429 4 14.4499 4.23812 14.004 4.66484L4.93985 13.7425C4.6411 14.04 4.40422 14.3939 4.2429 14.7838C4.08158 15.1736 3.99903 15.5915 4.00001 16.0135V17.1236C4.00001 17.356 4.0922 17.5789 4.25631 17.7433C4.42042 17.9077 4.64301 18 4.87509 18H5.98353C6.40506 18.0011 6.82263 17.9185 7.21207 17.757C7.60151 17.5954 7.95509 17.3581 8.25233 17.0587L17.3153 7.9811C17.7538 7.541 18 6.94467 18 6.32297C18 5.70126 17.7538 5.10494 17.3153 4.66484ZM7.0138 15.8195C6.73983 16.0921 6.36972 16.2458 5.98353 16.2472H5.75018V16.0135C5.75137 15.6263 5.90479 15.2552 6.17722 14.9805L12.9259 8.22357L13.7619 9.06081L7.0138 15.8195ZM16.0762 6.74188L14.9992 7.82218L14.1626 6.98435L15.2419 5.90581C15.3545 5.79806 15.5042 5.73793 15.6599 5.73793C15.8156 5.73793 15.9653 5.79806 16.0779 5.90581C16.1879 6.01714 16.2495 6.16756 16.2492 6.3242C16.2489 6.48085 16.1867 6.63101 16.0762 6.74188Z" fill="#9AA0B8"/>
</svg>
