<svg width="100%" height="100%" viewBox="0 0 17 17" xmlns="http://www.w3.org/2000/svg">
<g clip-path="url(#clip0_1400_30985)">
<path d="M16.4868 6.67203C15.3881 4.88278 12.8891 1.88086 8.50315 1.88086C4.11715 1.88086 1.61815 4.88278 0.519524 6.67203C0.179898 7.22134 0 7.85441 0 8.50024C0 9.14606 0.179898 9.77913 0.519524 10.3284C1.61815 12.1177 4.11715 15.1196 8.50315 15.1196C12.8891 15.1196 15.3881 12.1177 16.4868 10.3284C16.8264 9.77913 17.0063 9.14606 17.0063 8.50024C17.0063 7.85441 16.8264 7.22134 16.4868 6.67203ZM15.2791 9.58682C14.3356 11.1211 12.1999 13.7029 8.50315 13.7029C4.80636 13.7029 2.67073 11.1211 1.72723 9.58682C1.52545 9.26031 1.41858 8.88406 1.41858 8.50024C1.41858 8.11641 1.52545 7.74016 1.72723 7.41365C2.67073 5.8794 4.80636 3.29753 8.50315 3.29753C12.1999 3.29753 14.3356 5.87657 15.2791 7.41365C15.4808 7.74016 15.5877 8.11641 15.5877 8.50024C15.5877 8.88406 15.4808 9.26031 15.2791 9.58682Z" fill="currentColor"/>
<path d="M8.50261 4.95898C7.80213 4.95898 7.11739 5.1667 6.53496 5.55586C5.95254 5.94503 5.49859 6.49816 5.23053 7.14531C4.96247 7.79247 4.89234 8.50458 5.02899 9.1916C5.16565 9.87861 5.50296 10.5097 5.99827 11.005C6.49358 11.5003 7.12464 11.8376 7.81166 11.9743C8.49868 12.1109 9.21079 12.0408 9.85794 11.7727C10.5051 11.5047 11.0582 11.0507 11.4474 10.4683C11.8366 9.88587 12.0443 9.20113 12.0443 8.50065C12.0431 7.56169 11.6696 6.6615 11.0057 5.99756C10.3418 5.33361 9.44157 4.96011 8.50261 4.95898ZM8.50261 10.6257C8.08232 10.6257 7.67147 10.501 7.32202 10.2675C6.97256 10.034 6.7002 9.70215 6.53936 9.31385C6.37853 8.92556 6.33644 8.49829 6.41844 8.08608C6.50043 7.67387 6.70282 7.29524 7 6.99805C7.29719 6.70086 7.67583 6.49848 8.08804 6.41648C8.50025 6.33449 8.92752 6.37657 9.31581 6.53741C9.7041 6.69824 10.036 6.97061 10.2695 7.32006C10.503 7.66952 10.6276 8.08037 10.6276 8.50065C10.6276 9.06424 10.4037 9.60474 10.0052 10.0033C9.60669 10.4018 9.06619 10.6257 8.50261 10.6257Z" fill="currentColor"/>
</g>
</svg>
