
<svg width="14" height="14" viewBox="0 0 14 14" fill="none" xmlns="http://www.w3.org/2000/svg">
  <path d="M13.4732 7.00726L11.7393 3.98018C11.5641 3.67425 11.2803 3.45532 10.9402 3.36373C10.6006 3.27225 10.2469 3.31923 9.945 3.49553C9.7534 3.60684 9.59617 3.76171 9.48335 3.94698C9.06046 3.67567 8.50516 3.64428 8.04119 3.91352C7.78682 4.06159 7.59643 4.27929 7.48008 4.52915C7.08273 4.342 6.60395 4.34639 6.19655 4.58349C6.03261 4.67864 5.89247 4.80407 5.78179 4.95237L4.37709 2.49901C4.19201 2.17646 3.89238 1.94544 3.5334 1.84853C3.17413 1.75153 2.80001 1.80092 2.48071 1.9871C2.16011 2.17313 1.93054 2.47505 1.83429 2.83727C1.73815 3.19898 1.78687 3.57594 1.97161 3.89883L5.02879 9.23689L4.64093 9.01119C4.18106 8.74324 3.65172 8.67669 3.15039 8.82382C2.66099 8.96743 2.2466 9.29974 1.98367 9.75925C1.70871 10.239 1.8722 10.8548 2.34827 11.132L6.33763 13.4533C6.96358 13.8178 7.63535 14.0001 8.30732 14C8.97914 14 9.65116 13.8177 10.277 13.4533L12.0307 12.4323C13.912 11.338 14.5591 8.9044 13.4732 7.00726ZM13.0461 9.79945C12.8319 10.6055 12.3209 11.2779 11.6074 11.693L9.8534 12.7142C8.8708 13.2863 7.74374 13.2863 6.76103 12.7141L2.77167 10.3928C2.70127 10.3518 2.67618 10.2572 2.71697 10.186C2.87041 9.91791 3.10836 9.72522 3.38701 9.64344C3.48256 9.61541 3.58014 9.60153 3.67761 9.60153C3.86308 9.60153 4.04808 9.6518 4.2173 9.7504L5.97359 10.7724C6.13954 10.8689 6.34915 10.8411 6.48463 10.7045C6.62012 10.5679 6.64773 10.3566 6.55193 10.1893L2.70503 3.47222C2.6333 3.34686 2.61456 3.19981 2.65222 3.05816C2.68984 2.9166 2.77895 2.79897 2.90391 2.72644C3.028 2.65409 3.17376 2.63514 3.31433 2.67309C3.45501 2.71108 3.57212 2.80102 3.64385 2.92605L6.62518 8.13253C6.70359 8.26948 6.84591 8.34605 6.99226 8.34605C7.06407 8.34605 7.13687 8.32761 7.20354 8.28883C7.40607 8.171 7.47545 7.90996 7.35856 7.70581L6.41901 6.06501C6.34898 5.94044 6.33077 5.79487 6.36806 5.65453C6.40568 5.51297 6.4948 5.39534 6.61945 5.32298C6.87811 5.17243 7.21029 5.26204 7.35924 5.52168L7.35958 5.52228L7.3596 5.52233L7.36056 5.52404L8.29656 7.15972C8.37495 7.29672 8.51732 7.37332 8.66371 7.37332C8.73546 7.37332 8.80823 7.35491 8.87487 7.31616C9.07742 7.19839 9.14692 6.93738 9.03006 6.73319L8.26068 5.38869C8.11986 5.12907 8.20945 4.80122 8.46406 4.65301C8.72324 4.50263 9.05552 4.59237 9.2047 4.85287L9.96812 6.18628C10.0465 6.3232 10.1888 6.39977 10.3352 6.39977C10.407 6.39977 10.4798 6.38133 10.5465 6.34252C10.749 6.22466 10.8184 5.96363 10.7015 5.7595L10.1958 4.87648C10.1346 4.76873 10.1186 4.64259 10.1509 4.52109C10.1834 4.39903 10.2604 4.29745 10.3686 4.23462C10.4753 4.17228 10.6007 4.15586 10.7216 4.18841C10.8429 4.22108 10.9439 4.2987 11.0059 4.40699L12.7397 7.43399C13.1515 8.15336 13.2603 8.99344 13.0461 9.79945H13.0461ZM1.68743 5.57429C1.60371 5.67155 1.48592 5.72137 1.36748 5.72137C1.26911 5.72137 1.17029 5.687 1.09015 5.61689C0.82468 5.38464 0.60073 5.11035 0.424567 4.80159C-0.450573 3.27313 0.0708586 1.311 1.58722 0.428244C3.1041 -0.454313 5.05058 0.0713175 5.92626 1.59989C6.10262 1.90737 6.22622 2.23994 6.29363 2.58821C6.33839 2.81957 6.18862 3.04371 5.95911 3.08883C5.72968 3.13393 5.50726 2.98301 5.46249 2.75163C5.41309 2.49637 5.32246 2.25254 5.19307 2.02693C4.55071 0.905674 3.12312 0.520236 2.0106 1.16751C0.898578 1.81486 0.516191 3.25395 1.15826 4.37541C1.28751 4.6019 1.45123 4.8025 1.64517 4.97218C1.82179 5.12668 1.8407 5.39628 1.68743 5.57429Z" fill="#171923"/>
  </svg>
  