<svg width="100%" height="100%" viewBox="0 0 15 16" xmlns="http://www.w3.org/2000/svg">
<g clip-path="url(#clip0_1_2174)">
<path d="M0.625 10.5C0.790761 10.5 0.949732 10.5658 1.06694 10.6831C1.18415 10.8003 1.25 10.9592 1.25 11.125V12.375C1.25 12.8723 1.44754 13.3492 1.79917 13.7008C2.15081 14.0525 2.62772 14.25 3.125 14.25H4.375C4.54076 14.25 4.69973 14.3158 4.81694 14.4331C4.93415 14.5503 5 14.7092 5 14.875C5 15.0408 4.93415 15.1997 4.81694 15.3169C4.69973 15.4342 4.54076 15.5 4.375 15.5H3.125C2.2965 15.499 1.50222 15.1694 0.916387 14.5836C0.330551 13.9978 0.000992298 13.2035 0 12.375V11.125C0 10.9592 0.0658474 10.8003 0.183058 10.6831C0.300268 10.5658 0.459239 10.5 0.625 10.5Z" fill="currentColor"/>
<path d="M10.625 0.5H11.875C12.7035 0.500992 13.4978 0.830551 14.0836 1.41639C14.6694 2.00222 14.999 2.7965 15 3.625L15 4.875C15 5.04076 14.9342 5.19973 14.8169 5.31694C14.6997 5.43415 14.5408 5.5 14.375 5.5C14.2092 5.5 14.0503 5.43415 13.9331 5.31694C13.8158 5.19973 13.75 5.04076 13.75 4.875V3.625C13.75 3.12772 13.5525 2.65081 13.2008 2.29917C12.8492 1.94754 12.3723 1.75 11.875 1.75H10.625C10.4592 1.75 10.3003 1.68415 10.1831 1.56694C10.0658 1.44973 10 1.29076 10 1.125C10 0.95924 10.0658 0.800269 10.1831 0.683058C10.3003 0.565848 10.4592 0.5 10.625 0.5Z" fill="currentColor"/>
<path d="M10.625 14.25H11.875C12.3723 14.25 12.8492 14.0525 13.2008 13.7008C13.5525 13.3492 13.75 12.8723 13.75 12.375V11.125C13.75 10.9592 13.8158 10.8003 13.9331 10.6831C14.0503 10.5658 14.2092 10.5 14.375 10.5C14.5408 10.5 14.6997 10.5658 14.8169 10.6831C14.9342 10.8003 15 10.9592 15 11.125V12.375C14.999 13.2035 14.6694 13.9978 14.0836 14.5836C13.4978 15.1694 12.7035 15.499 11.875 15.5H10.625C10.4592 15.5 10.3003 15.4342 10.1831 15.3169C10.0658 15.1997 10 15.0408 10 14.875C10 14.7092 10.0658 14.5503 10.1831 14.4331C10.3003 14.3158 10.4592 14.25 10.625 14.25Z" fill="currentColor"/>
<path d="M3.125 0.5H4.375C4.54076 0.5 4.69973 0.565848 4.81694 0.683058C4.93415 0.800269 5 0.95924 5 1.125C5 1.29076 4.93415 1.44973 4.81694 1.56694C4.69973 1.68415 4.54076 1.75 4.375 1.75H3.125C2.62772 1.75 2.15081 1.94754 1.79917 2.29917C1.44754 2.65081 1.25 3.12772 1.25 3.625V4.875C1.25 5.04076 1.18415 5.19973 1.06694 5.31694C0.949732 5.43415 0.790761 5.5 0.625 5.5C0.459239 5.5 0.300268 5.43415 0.183058 5.31694C0.0658474 5.19973 0 5.04076 0 4.875V3.625C0.000992298 2.7965 0.330551 2.00222 0.916387 1.41639C1.50222 0.830551 2.2965 0.500992 3.125 0.5Z" fill="currentColor"/>
</g>
</svg>
