<svg width="100%" height="100%" viewBox="0 0 12 12" xmlns="http://www.w3.org/2000/svg">
<path d="M3.94753 8.05249C3.65446 7.75992 3.65446 7.28431 3.94753 6.99174C4.2406 6.69867 4.71521 6.69867 5.00827 6.99174C5.67142 7.6549 6.82869 7.6554 7.49184 6.99174L9.98691 4.49664C10.6716 3.81198 10.6716 2.69771 9.98691 2.01305C9.30226 1.32838 8.188 1.32838 7.50334 2.01305C7.21028 2.30612 6.73567 2.30612 6.4426 2.01305C6.14953 1.72048 6.14953 1.24486 6.4426 0.952292C7.71189 -0.317512 9.77837 -0.317512 11.0477 0.952292C12.3174 2.2221 12.3174 4.28759 11.0477 5.55739L8.55258 8.05249C7.91744 8.68764 7.08375 9.00472 6.25006 9.00472C5.41637 9.00472 4.58217 8.68715 3.94753 8.05249ZM3.25537 11.9999C4.08906 11.9999 4.92275 11.6824 5.5579 11.0477C5.85097 10.7551 5.85097 10.2795 5.5579 9.98696C5.26483 9.69389 4.79022 9.69389 4.49716 9.98696C3.812 10.6721 2.69774 10.6716 2.01359 9.98696C1.32893 9.30229 1.32893 8.18803 2.01359 7.50336L4.49465 5.02227C5.17981 4.3371 6.29407 4.3371 6.97822 5.02227C7.27129 5.31534 7.7459 5.31534 8.03897 5.02227C8.33203 4.7297 8.33203 4.25408 8.03897 3.96151C6.76918 2.69171 4.7037 2.69171 3.43391 3.96151L0.952343 6.44261C-0.317448 7.71241 -0.317448 9.77791 0.952343 11.0477C1.58749 11.6829 2.42168 11.9999 3.25537 11.9999Z" fill="currentColor"/>
</svg>
