<svg width="11" height="11" viewBox="0 0 11 11" fill="none" xmlns="http://www.w3.org/2000/svg">
    <path d="M4.12289 5.5C4.66651 5.5 5.19792 5.33872 5.64993 5.03654C6.10193 4.73437 6.45422 4.30488 6.66226 3.80238C6.87029 3.29988 6.92472 2.74695 6.81867 2.2135C6.71261 1.68006 6.45084 1.19005 6.06644 0.805458C5.68204 0.420863 5.19229 0.158951 4.65911 0.0528417C4.12594 -0.0532676 3.57329 0.00119154 3.07105 0.209333C2.56881 0.417473 2.13954 0.769948 1.83752 1.22218C1.5355 1.67442 1.3743 2.2061 1.3743 2.75C1.37502 3.47912 1.66484 4.17817 2.18014 4.69374C2.69545 5.20931 3.39414 5.49927 4.12289 5.5ZM4.12289 0.916668C4.4853 0.916668 4.83958 1.02419 5.14091 1.22564C5.44225 1.42709 5.67711 1.71342 5.8158 2.04841C5.95449 2.38341 5.99078 2.75203 5.92008 3.10767C5.84937 3.4633 5.67485 3.78997 5.41859 4.04636C5.16232 4.30276 4.83582 4.47737 4.48037 4.54811C4.12492 4.61885 3.75649 4.58254 3.42166 4.44378C3.08684 4.30502 2.80065 4.07004 2.59931 3.76855C2.39796 3.46706 2.29049 3.1126 2.29049 2.75C2.29049 2.26377 2.48355 1.79746 2.82719 1.45364C3.17083 1.10982 3.63691 0.916668 4.12289 0.916668ZM8.24578 10.5417C8.24578 10.6632 8.19751 10.7798 8.1116 10.8658C8.02569 10.9517 7.90917 11 7.78768 11C7.66618 11 7.54966 10.9517 7.46375 10.8658C7.37784 10.7798 7.32958 10.6632 7.32958 10.5417C7.32958 9.69076 6.99173 8.87471 6.39036 8.27303C5.78899 7.67135 4.97336 7.33333 4.12289 7.33333C3.27242 7.33333 2.45679 7.67135 1.85542 8.27303C1.25404 8.87471 0.916198 9.69076 0.916198 10.5417C0.916198 10.6632 0.867934 10.7798 0.782024 10.8658C0.696113 10.9517 0.579594 11 0.458099 11C0.336603 11 0.220084 10.9517 0.134174 10.8658C0.0482639 10.7798 0 10.6632 0 10.5417C0 9.44765 0.434375 8.39844 1.20757 7.62485C1.98076 6.85126 3.02943 6.41667 4.12289 6.41667C5.21635 6.41667 6.26502 6.85126 7.03821 7.62485C7.8114 8.39844 8.24578 9.44765 8.24578 10.5417ZM10.8601 6.55096C10.9039 6.59324 10.9388 6.64381 10.9628 6.69973C10.9868 6.75565 10.9995 6.81579 11 6.87665C11.0005 6.93751 10.9889 6.99786 10.9659 7.05419C10.9429 7.11052 10.9088 7.16169 10.8658 7.20472C10.8228 7.24776 10.7717 7.28179 10.7154 7.30484C10.6591 7.32788 10.5987 7.33948 10.5379 7.33895C10.4771 7.33842 10.417 7.32578 10.3611 7.30176C10.3052 7.27774 10.2547 7.24282 10.2124 7.19904L9.39102 6.37725L8.56965 7.19904C8.48326 7.28253 8.36754 7.32873 8.24743 7.32768C8.12732 7.32664 8.01242 7.27844 7.92748 7.19346C7.84255 7.10848 7.79437 6.99352 7.79333 6.87335C7.79228 6.75318 7.83846 6.6374 7.9219 6.55096L8.74327 5.72917L7.9219 4.90738C7.83846 4.82093 7.79228 4.70516 7.79333 4.58498C7.79437 4.46481 7.84255 4.34985 7.92748 4.26488C8.01242 4.1799 8.12732 4.13169 8.24743 4.13065C8.36754 4.12961 8.48326 4.1758 8.56965 4.25929L9.39102 5.08108L10.2124 4.25929C10.2988 4.1758 10.4145 4.12961 10.5346 4.13065C10.6547 4.13169 10.7696 4.1799 10.8546 4.26488C10.9395 4.34985 10.9877 4.46481 10.9887 4.58498C10.9898 4.70516 10.9436 4.82093 10.8601 4.90738L10.0388 5.72917L10.8601 6.55096Z" fill="white"/>
</svg>
