<svg width="100%" height="100%" viewBox="0 0 23 17" xmlns="http://www.w3.org/2000/svg">
<path d="M19.1667 6.24844V6.26828C19.1667 6.58939 18.9022 6.85006 18.5763 6.85006H18.2735C18.1575 8.05422 17.6822 9.42933 16.7335 10.5013C17.2529 10.812 17.8758 11.0339 18.6348 11.1048C18.9367 11.1331 19.1667 11.3843 19.1667 11.6837V11.7036C19.1667 12.0492 18.8638 12.3156 18.515 12.2825C17.4254 12.1796 16.5418 11.8207 15.824 11.3173C15.1024 11.8254 14.2083 12.1814 13.11 12.2825C12.7612 12.3146 12.4593 12.0483 12.4593 11.7026V11.6828C12.4593 11.3796 12.697 11.1312 13.0036 11.1029C13.7588 11.0321 14.3817 10.8129 14.8983 10.5032C14.583 10.1471 14.3185 9.75706 14.1028 9.35094C13.8968 8.96278 14.1891 8.49811 14.6328 8.49811C14.8513 8.49811 15.0545 8.61428 15.1551 8.80506C15.3314 9.1375 15.5528 9.45672 15.8183 9.7495C16.6022 8.88061 16.9606 7.75861 17.067 6.84911H13.0506C12.7247 6.84911 12.4602 6.58844 12.4602 6.26733V6.2475C12.4602 5.92639 12.7247 5.66572 13.0506 5.66572H15.2135V5.30306C15.2135 4.98194 15.478 4.72128 15.8039 4.72128H15.824C16.1498 4.72128 16.4143 4.98194 16.4143 5.30306V5.66572H18.5773C18.9031 5.66572 19.1676 5.92639 19.1676 6.2475L19.1667 6.24844ZM5.73658 6.04444C5.70017 6.04444 5.66854 6.069 5.66088 6.10394L4.88367 9.35H6.56746L5.81325 6.10394C5.80463 6.069 5.773 6.04444 5.73658 6.04444ZM23 5.19444V11.8056C23 14.6701 20.6348 17 17.7292 17H5.27083C2.36037 17 0 14.6748 0 11.8056V5.19444C0 2.32522 2.36037 0 5.27083 0H17.7292C20.6348 0 23 2.32994 23 5.19444ZM8.43717 11.4693L7.13096 5.85178C7.02842 5.41356 6.74475 5.015 6.32404 4.84122C5.44333 4.47761 4.54633 4.98761 4.35371 5.8055L2.99958 11.4656C2.89992 11.8802 3.22 12.2778 3.65221 12.2778C3.96271 12.2778 4.23296 12.0672 4.30483 11.7687L4.56742 10.6722H6.87604L7.13 11.7649C7.19996 12.0653 7.47117 12.2778 7.78358 12.2778H7.7855C8.21579 12.2778 8.53492 11.883 8.43908 11.4693H8.43717ZM20.125 5.19444C20.125 3.893 19.0507 2.83333 17.7292 2.83333H11.5V14.1667H17.7292C19.0507 14.1667 20.125 13.107 20.125 11.8056V5.19444Z" fill="currentColor"/>
</svg>
