<svg width="13" height="16" viewBox="0 0 13 16" fill="none" xmlns="http://www.w3.org/2000/svg">
<path d="M7.15 2.66667C7.15 2.84348 7.21848 3.01305 7.34038 3.13807C7.46228 3.2631 7.62761 3.33333 7.8 3.33333H10.3779C10.33 2.90045 10.1448 2.49569 9.85075 2.18133L8.36615 0.608667C8.04138 0.271032 7.61054 0.0622496 7.15 0.0193333V2.66667ZM5.85 2.66667V0H3.25C2.38836 0.00105857 1.56231 0.352588 0.953043 0.97748C0.343773 1.60237 0.00103211 2.4496 0 3.33333V10C0.00103211 10.8837 0.343773 11.731 0.953043 12.3559C1.56231 12.9807 2.38836 13.3323 3.25 13.3333H7.15C8.01164 13.3323 8.83769 12.9807 9.44696 12.3559C10.0562 11.731 10.399 10.8837 10.4 10V4.66667H7.8C7.28283 4.66667 6.78684 4.45595 6.42114 4.08088C6.05545 3.70581 5.85 3.1971 5.85 2.66667ZM9.75 16H3.9C3.72761 16 3.56228 15.9298 3.44038 15.8047C3.31848 15.6797 3.25 15.5101 3.25 15.3333C3.25 15.1565 3.31848 14.987 3.44038 14.8619C3.56228 14.7369 3.72761 14.6667 3.9 14.6667H9.75C10.2672 14.6667 10.7632 14.456 11.1289 14.0809C11.4946 13.7058 11.7 13.1971 11.7 12.6667V5.33333C11.7 5.15652 11.7685 4.98695 11.8904 4.86193C12.0123 4.73691 12.1776 4.66667 12.35 4.66667C12.5224 4.66667 12.6877 4.73691 12.8096 4.86193C12.9315 4.98695 13 5.15652 13 5.33333V12.6667C12.999 13.5504 12.6562 14.3976 12.047 15.0225C11.4377 15.6474 10.6116 15.9989 9.75 16Z" fill="#9BA0B8"/>
</svg>
