<svg width="100%" height="100%" viewBox="0 0 21 20" xmlns="http://www.w3.org/2000/svg">
<path d="M18.8534 14.75C18.6876 15.3075 18.3852 15.8182 17.9623 16.241L16.241 17.9623C15.8182 18.3852 15.3068 18.6876 14.7493 18.8534V15.4583C14.7493 15.0673 15.0673 14.75 15.4576 14.75H18.8534ZM19 5.54167V13.3333H15.4583C14.2867 13.3333 13.3333 14.2867 13.3333 15.4583V19H5.54167C3.58879 19 2 17.4112 2 15.4583V5.54167C2 3.58879 3.58879 2 5.54167 2H15.4583C17.4112 2 19 3.58879 19 5.54167ZM6.95833 14.3958C6.95833 13.8093 6.48233 13.3333 5.89583 13.3333C5.30933 13.3333 4.83333 13.8093 4.83333 14.3958C4.83333 14.9823 5.30933 15.4583 5.89583 15.4583C6.48233 15.4583 6.95833 14.9823 6.95833 14.3958ZM6.95833 10.5C6.95833 9.9135 6.48233 9.4375 5.89583 9.4375C5.30933 9.4375 4.83333 9.9135 4.83333 10.5C4.83333 11.0865 5.30933 11.5625 5.89583 11.5625C6.48233 11.5625 6.95833 11.0865 6.95833 10.5ZM6.95833 6.60417C6.95833 6.01767 6.48233 5.54167 5.89583 5.54167C5.30933 5.54167 4.83333 6.01767 4.83333 6.60417C4.83333 7.19067 5.30933 7.66667 5.89583 7.66667C6.48233 7.66667 6.95833 7.19067 6.95833 6.60417Z" fill="currentColor"/>
</svg>
