<svg width="100%" height="100%" viewBox="0 0 15 15" xmlns="http://www.w3.org/2000/svg">
<path d="M5.0006 13.125H2.13088C1.98983 13.1246 1.87556 13.0104 1.87523 12.8694V2.13062C1.87558 1.98958 1.98983 1.87532 2.13088 1.875H5.0006C5.51843 1.875 5.93822 1.45526 5.93822 0.9375C5.93822 0.419736 5.51843 0 5.0006 0H2.13088C0.954582 0.00137695 0.00137712 0.954492 0 2.13062V12.8694C0.00137712 14.0455 0.954582 14.9986 2.13088 15H5.0006C5.51843 15 5.93822 14.5803 5.93822 14.0625C5.93822 13.5447 5.51843 13.125 5.0006 13.125Z" fill="currentColor"/>
<path d="M14.178 5.51124L11.7514 3.08686C11.3852 2.7208 10.7914 2.72095 10.4253 3.08719C10.0592 3.45343 10.0594 4.04707 10.4257 4.41313L12.5584 6.54501L4.06298 6.5625C3.54516 6.5625 3.12537 6.98224 3.12537 7.5C3.12537 8.01776 3.54516 8.4375 4.06298 8.4375L12.5928 8.42189L10.4257 10.5888C10.0728 10.9678 10.0941 11.561 10.4731 11.9137C10.8333 12.2491 11.3915 12.2488 11.7514 11.9131L14.1761 9.48876C15.2746 8.39042 15.2746 6.60964 14.1761 5.5113L14.1761 5.51127L14.178 5.51124Z" fill="currentColor"/>
</svg>
