<svg width="11" height="11" viewBox="0 0 11 11"  xmlns="http://www.w3.org/2000/svg">
    <path d="M10.5956 0.393502C10.3316 0.140946 9.98062 0 9.61553 0C9.25043 0 8.89941 0.140946 8.6355 0.393502L7.07379 1.9569C6.78197 2.25167 6.38635 2.42019 5.97183 2.42628C5.55731 2.43237 5.15692 2.27555 4.85658 1.98948L4.21714 2.64843L5.14536 3.57765L0.928228 7.79933C0.682863 8.04235 0.523522 8.35896 0.474454 8.70098C0.425386 9.043 0.489278 9.39171 0.656406 9.69403L0 10.3511L0.648155 11L1.30456 10.3429C1.60656 10.5102 1.95489 10.5742 2.29655 10.525C2.6382 10.4759 2.95447 10.3164 3.19723 10.0708L7.41437 5.8491L8.34259 6.77833L8.99992 6.13911C8.71404 5.8385 8.55732 5.43766 8.56341 5.02266C8.56949 4.60766 8.7379 4.21159 9.03246 3.91952L10.5942 2.35612C10.854 2.09598 11 1.74316 11 1.37527C11 1.00738 10.854 0.654565 10.5942 0.39442L10.5956 0.393502ZM2.54862 9.42192C2.41764 9.54706 2.24355 9.61688 2.0625 9.61688C1.88145 9.61688 1.70736 9.54706 1.57638 9.42192C1.44748 9.29284 1.37507 9.1178 1.37507 8.93528C1.37507 8.75276 1.44748 8.57772 1.57638 8.44864L5.79352 4.22697L6.76575 5.20025L2.54862 9.42192ZM9.94694 1.70635L8.38522 3.26975C7.97399 3.67836 7.71706 4.2171 7.65823 4.79414L6.19919 3.33353C6.7756 3.27463 7.31377 3.01742 7.72194 2.60575L9.28411 1.04235C9.37329 0.956814 9.49202 0.909059 9.61553 0.909059C9.73903 0.909059 9.85777 0.956814 9.94694 1.04235C9.99056 1.08592 10.0252 1.13766 10.0488 1.19463C10.0724 1.2516 10.0845 1.31268 10.0845 1.37435C10.0845 1.43603 10.0724 1.4971 10.0488 1.55407C10.0252 1.61104 9.99056 1.66279 9.94694 1.70635Z" />
</svg>
