<svg width="100%" height="100%" viewBox="0 0 24 24" xmlns="http://www.w3.org/2000/svg">
<path d="M18 4.66667V16.5833C18 20.1217 15.0843 23 11.5 23C7.91571 23 5 20.1217 5 16.5833V5.58333C5 3.05333 7.08 1 9.64286 1C12.2057 1 14.2857 3.05333 14.2857 5.58333V16.5833C14.2857 18.0958 13.0321 19.3333 11.5 19.3333C9.96786 19.3333 8.71429 18.0958 8.71429 16.5833V6.5C8.71429 5.99583 9.13214 5.58333 9.64286 5.58333C10.1536 5.58333 10.5714 5.99583 10.5714 6.5V16.5833C10.5714 17.0875 10.9893 17.5 11.5 17.5C12.0107 17.5 12.4286 17.0875 12.4286 16.5833V5.58333C12.4286 4.07083 11.175 2.83333 9.64286 2.83333C8.11071 2.83333 6.85714 4.07083 6.85714 5.58333V16.5833C6.85714 19.1133 8.93714 21.1667 11.5 21.1667C14.0629 21.1667 16.1429 19.1133 16.1429 16.5833V4.66667C16.1429 4.1625 16.5607 3.75 17.0714 3.75C17.5821 3.75 18 4.1625 18 4.66667Z" fill="currentColor"/>
</svg>
