<svg width="100%" height="100%" viewBox="0 0 24 24" xmlns="http://www.w3.org/2000/svg">
<path d="M0.169221 4.05148C-0.218791 3.03353 0.0732182 1.9063 0.914246 1.18069C1.75327 0.457962 2.94831 0.295013 3.96235 0.767567L22.0529 8.86137C23.023 9.29654 23.717 10.0912 23.998 11.0401H4.04535L0.226223 4.17321C0.205223 4.13391 0.186222 4.0927 0.169221 4.05148ZM4.05935 12.9581L0.306226 19.8356C0.285225 19.8739 0.267225 19.9122 0.252224 19.9525C-0.134789 20.9714 0.160221 22.0967 1.00125 22.8214C1.52227 23.269 2.18029 23.5 2.84231 23.5C3.25132 23.5 3.66134 23.4118 4.04335 23.2326L22.0549 15.1445C23.028 14.7074 23.721 13.9099 24 12.9591H4.05935V12.9581Z" fill="currentColor"/>
</svg>
