
<svg width="15" height="16" viewBox="0 0 15 16" xmlns="http://www.w3.org/2000/svg">
  <path d="M13.3642 2.61735C12.9501 2.22111 12.3995 2 11.8268 2C11.2541 2 10.7035 2.22111 10.2894 2.61735L1.87272 11.0466C1.59531 11.3229 1.37535 11.6515 1.22555 12.0135C1.07575 12.3755 0.999095 12.7636 1.00001 13.1554V14.1862C1.00001 14.402 1.08562 14.609 1.23801 14.7616C1.39039 14.9143 1.59708 15 1.81259 15H2.84185C3.23327 15.001 3.62101 14.9243 3.98264 14.7743C4.34426 14.6243 4.67258 14.4039 4.94859 14.126L13.3642 5.69673C13.7713 5.28807 14 4.73434 14 4.15704C14 3.57974 13.7713 3.02601 13.3642 2.61735ZM3.79853 12.9753C3.54413 13.2284 3.20046 13.3711 2.84185 13.3724H2.62516V13.1554C2.62628 12.7959 2.76874 12.4513 3.0217 12.1962L9.2883 5.92188L10.0646 6.69932L3.79853 12.9753ZM12.2136 4.54603L11.2136 5.54917L10.4367 4.77118L11.4389 3.76968C11.5434 3.66962 11.6825 3.61379 11.8271 3.61379C11.9717 3.61379 12.1107 3.66962 12.2152 3.76968C12.3174 3.87306 12.3745 4.01273 12.3742 4.15819C12.3739 4.30365 12.3162 4.44308 12.2136 4.54603Z" />
  </svg>
  