<svg width="100%" height="100%" viewBox="0 0 16 17" xmlns="http://www.w3.org/2000/svg">
<g clip-path="url(#clip0_1_1405)">
<path d="M9.16667 8.276L6.862 10.5807C6.48933 10.9533 5.974 11.1667 5.448 11.1667H5.33333V11.052C5.33333 10.526 5.54667 10.0107 5.91933 9.638L8.224 7.33333L9.16667 8.276ZM9.862 5.69533L9.16667 6.39067L10.1093 7.33333L10.8047 6.638C11.0647 6.378 11.0647 5.95533 10.8047 5.69533C10.5447 5.43533 10.1227 5.43467 9.862 5.69533ZM16 8.5C16 12.9113 12.4113 16.5 8 16.5C3.58867 16.5 0 12.9113 0 8.5C0 4.08867 3.58867 0.5 8 0.5C12.4113 0.5 16 4.08867 16 8.5ZM11.7473 4.75267C10.9673 3.97267 9.69933 3.97267 8.91933 4.75267L4.97667 8.69533C4.34733 9.32467 4 10.162 4 11.052V11.8333C4 12.202 4.298 12.5 4.66667 12.5H5.448C6.338 12.5 7.17533 12.1527 7.80467 11.5233L11.7473 7.58067C12.5273 6.80067 12.5273 5.53267 11.7473 4.75267Z" fill="currentColor"/>
</g>
</svg>
