<svg width="100%" height="100%" viewBox="0 0 12 12" xmlns="http://www.w3.org/2000/svg">
<path d="M11.4131 0.56986C11.0309 0.204106 10.5226 0 9.99396 0C9.46532 0 8.95703 0.204106 8.57483 0.56986L0.805584 8.3507C0.549515 8.60575 0.346473 8.9091 0.2082 9.24322C0.069926 9.57734 -0.00083537 9.93561 7.44101e-06 10.2973V11.2488C7.44101e-06 11.448 0.0790326 11.6391 0.219698 11.78C0.360364 11.9208 0.551148 12 0.750079 12H1.70017C2.06148 12.001 2.4194 11.9302 2.7532 11.7917C3.08701 11.6532 3.39007 11.4498 3.64486 11.1932L11.4131 3.41237C11.7889 3.03514 12 2.52401 12 1.99111C12 1.45822 11.7889 0.94709 11.4131 0.56986ZM2.58325 10.131C2.34842 10.3647 2.03119 10.4964 1.70017 10.4976H1.50015V10.2973C1.50118 9.96544 1.63268 9.64734 1.86619 9.41189L7.65074 3.6202L8.36731 4.33784L2.58325 10.131ZM10.351 2.35018L9.42791 3.27615L8.71084 2.55801L9.63593 1.63355C9.73241 1.54119 9.86074 1.48965 9.99421 1.48965C10.1277 1.48965 10.256 1.54119 10.3525 1.63355C10.4468 1.72898 10.4996 1.85791 10.4993 1.99218C10.499 2.12644 10.4457 2.25515 10.351 2.35018Z" fill="currentColor"/>
</svg>
