<svg width="11" height="16" viewBox="0 0 11 16" fill="none" xmlns="http://www.w3.org/2000/svg">
<g clip-path="url(#clip0_1400_30885)">
<path d="M7.59344 0.000500005C7.57488 -0.000166668 3.42512 -0.000166668 3.40656 0.000500005C1.52556 0.0165002 0 1.50585 0 3.3332V12.6666C0 14.5047 1.54206 16 3.4375 16H7.5625C9.45794 16 11 14.5047 11 12.6666V3.33387C11 1.50585 9.47444 0.0171668 7.59344 0.000500005ZM9.625 12.6666C9.625 13.7693 8.69963 14.6667 7.5625 14.6667H3.4375C2.30037 14.6667 1.375 13.7693 1.375 12.6666V3.33387C1.375 2.36519 2.08863 1.55585 3.03256 1.37251L3.50969 2.29852C3.62587 2.52453 3.86444 2.66719 4.125 2.66719H6.875C7.13556 2.66719 7.37344 2.52453 7.49031 2.29852L7.96744 1.37251C8.91138 1.55518 9.625 2.36519 9.625 3.33387V12.6666ZM6.1875 13.3333H4.8125C4.433 13.3333 4.125 13.0346 4.125 12.6666C4.125 12.2986 4.433 12 4.8125 12H6.1875C6.567 12 6.875 12.2986 6.875 12.6666C6.875 13.0346 6.567 13.3333 6.1875 13.3333Z" fill="#171923"/>
</g>
<defs>
<clipPath id="clip0_1400_30885">
<rect width="11" height="16" fill="white"/>
</clipPath>
</defs>
</svg>
