<svg width="100%" height="100%" viewBox="0 0 19 22" xmlns="http://www.w3.org/2000/svg">
<path d="M16.7843 7.3044L8.04117 0.893233C7.35828 0.393178 6.55025 0.091986 5.70666 0.023044C4.86307 -0.045898 4.01687 0.120102 3.26184 0.502645C2.50682 0.885188 1.87247 1.46933 1.42911 2.19032C0.985751 2.91132 0.750698 3.741 0.750006 4.5874V17.4162C0.748689 18.2634 0.982513 19.0944 1.42545 19.8166C1.86839 20.5388 2.50306 21.1239 3.25882 21.5069C4.01459 21.8898 4.86179 22.0555 5.70612 21.9854C6.55046 21.9154 7.3588 21.6125 8.04117 21.1103L16.7843 14.6991C17.3645 14.2734 17.8362 13.717 18.1614 13.0751C18.4865 12.4332 18.656 11.7237 18.656 11.0041C18.656 10.2845 18.4865 9.57498 18.1614 8.93304C17.8362 8.29109 17.3645 7.73473 16.7843 7.30898V7.3044Z" fill="currentColor"/>
</svg>
