<svg width="100%" height="100%" viewBox="0 0 16 15" xmlns="http://www.w3.org/2000/svg">
<path d="M8 0C6.51664 0 5.06659 0.439867 3.83323 1.26398C2.59986 2.08809 1.63856 3.25943 1.07091 4.62987C0.50325 6.00032 0.354725 7.50832 0.644114 8.96317C0.933503 10.418 1.64781 11.7544 2.6967 12.8033C3.7456 13.8522 5.08197 14.5665 6.53682 14.8559C7.99168 15.1453 9.49968 14.9967 10.8701 14.4291C12.2406 13.8614 13.4119 12.9001 14.236 11.6668C15.0601 10.4334 15.5 8.98336 15.5 7.5C15.4978 5.51154 14.707 3.60513 13.3009 2.19907C11.8949 0.793018 9.98847 0.00215068 8 0ZM8 13.75C6.76387 13.75 5.5555 13.3834 4.52769 12.6967C3.49988 12.0099 2.6988 11.0338 2.22576 9.89177C1.75271 8.74973 1.62894 7.49306 1.8701 6.28068C2.11125 5.0683 2.70651 3.95466 3.58059 3.08058C4.45466 2.2065 5.56831 1.61125 6.78069 1.37009C7.99307 1.12893 9.24974 1.2527 10.3918 1.72575C11.5338 2.1988 12.5099 2.99988 13.1967 4.02768C13.8834 5.05549 14.25 6.26386 14.25 7.5C14.2482 9.15704 13.5891 10.7457 12.4174 11.9174C11.2457 13.0891 9.65705 13.7482 8 13.75ZM11.125 7.5C11.125 7.66576 11.0592 7.82473 10.9419 7.94194C10.8247 8.05915 10.6658 8.125 10.5 8.125H8.625V10C8.625 10.1658 8.55915 10.3247 8.44194 10.4419C8.32473 10.5591 8.16576 10.625 8 10.625C7.83424 10.625 7.67527 10.5591 7.55806 10.4419C7.44085 10.3247 7.375 10.1658 7.375 10V8.125H5.5C5.33424 8.125 5.17527 8.05915 5.05806 7.94194C4.94085 7.82473 4.875 7.66576 4.875 7.5C4.875 7.33424 4.94085 7.17527 5.05806 7.05806C5.17527 6.94085 5.33424 6.875 5.5 6.875H7.375V5C7.375 4.83424 7.44085 4.67527 7.55806 4.55806C7.67527 4.44085 7.83424 4.375 8 4.375C8.16576 4.375 8.32473 4.44085 8.44194 4.55806C8.55915 4.67527 8.625 4.83424 8.625 5V6.875H10.5C10.6658 6.875 10.8247 6.94085 10.9419 7.05806C11.0592 7.17527 11.125 7.33424 11.125 7.5Z" fill="currentColor"/>
</svg>
