<svg width="100%" height="100%" viewBox="0 0 9 7" xmlns="http://www.w3.org/2000/svg">
<path d="M2.53387 0.199121C2.63875 0.104038 2.77236 0.0392894 2.91782 0.0130601C3.06328 -0.0131693 3.21404 0.000298465 3.35106 0.0517607C3.48808 0.103223 3.60519 0.190369 3.6876 0.302182C3.77001 0.413996 3.81401 0.545455 3.81404 0.679943V1.21925H5.62519C6.51994 1.22015 7.37776 1.54288 8.01045 2.11662C8.64313 2.69036 8.99901 3.46826 9 4.27965V6.65996C9 6.75014 8.96049 6.83663 8.89017 6.9004C8.81985 6.96417 8.72447 7 8.62502 7C8.52557 7 8.43019 6.96417 8.35987 6.9004C8.28955 6.83663 8.25004 6.75014 8.25004 6.65996C8.24945 6.11901 8.01222 5.60038 7.59041 5.21787C7.16861 4.83536 6.59669 4.62023 6.00017 4.61969H3.81404V5.159C3.81401 5.29349 3.77001 5.42495 3.6876 5.53676C3.60519 5.64858 3.48808 5.73572 3.35106 5.78718C3.21404 5.83865 3.06328 5.85211 2.91782 5.82589C2.77236 5.79966 2.63875 5.73491 2.53387 5.63982L0.329366 3.64071C0.118473 3.4494 0 3.18998 0 2.91947C0 2.64897 0.118473 2.38954 0.329366 2.19824L2.53387 0.199121Z" fill="currentColor"/>
</svg>
