<svg width="13" height="12" viewBox="0 0 13 12" fill="none" xmlns="http://www.w3.org/2000/svg">
    <path d="M6.5 5C6.10443 5 5.71775 5.11729 5.38886 5.33706C5.05996 5.55682 4.80361 5.86918 4.65224 6.23463C4.50086 6.60008 4.46126 7.00221 4.53843 7.39017C4.6156 7.77814 4.80608 8.1345 5.08578 8.41421C5.36549 8.69391 5.72185 8.88439 6.10981 8.96156C6.49778 9.03873 6.89991 8.99913 7.26536 8.84775C7.63081 8.69638 7.94317 8.44003 8.16293 8.11113C8.3827 7.78224 8.49999 7.39556 8.49999 6.99999C8.49999 6.46956 8.28928 5.96085 7.91421 5.58578C7.53914 5.21071 7.03043 5 6.5 5ZM6.5 7.99999C6.30221 7.99999 6.10887 7.94134 5.94443 7.83146C5.77998 7.72158 5.6518 7.5654 5.57612 7.38268C5.50043 7.19995 5.48063 6.99889 5.51921 6.8049C5.5578 6.61092 5.65304 6.43274 5.79289 6.29289C5.93274 6.15304 6.11092 6.0578 6.3049 6.01921C6.49889 5.98062 6.69995 6.00043 6.88268 6.07612C7.0654 6.1518 7.22158 6.27998 7.33146 6.44442C7.44135 6.60887 7.49999 6.80221 7.49999 6.99999C7.49999 7.26521 7.39464 7.51956 7.2071 7.7071C7.01957 7.89464 6.76521 7.99999 6.5 7.99999Z" />
    <path d="M11.768 2.06101L10.439 0.732009C10.2074 0.499181 9.93196 0.314599 9.62857 0.188951C9.32518 0.0633023 8.99988 -0.000917279 8.67149 9.89813e-06H3C2.3372 0.000803826 1.70178 0.264451 1.23311 0.733119C0.764441 1.20179 0.500794 1.83721 0.5 2.50001V9.5C0.500794 10.1628 0.764441 10.7982 1.23311 11.2669C1.70178 11.7356 2.3372 11.9992 3 12H9.99999C10.6628 11.9992 11.2982 11.7356 11.7669 11.2669C12.2356 10.7982 12.4992 10.1628 12.5 9.5V3.82851C12.5009 3.50013 12.4367 3.17482 12.3111 2.87143C12.1854 2.56804 12.0008 2.29258 11.768 2.06101ZM8.99999 1.04001V1.50001C8.99999 1.89783 8.84196 2.27936 8.56065 2.56067C8.27935 2.84197 7.89782 3.00001 7.49999 3.00001H5.5C5.10217 3.00001 4.72064 2.84197 4.43934 2.56067C4.15803 2.27936 4 1.89783 4 1.50001V1.00001H8.67149C8.78215 1.00099 8.89234 1.01441 8.99999 1.04001ZM11.5 9.5C11.5 9.89783 11.342 10.2794 11.0607 10.5607C10.7793 10.842 10.3978 11 9.99999 11H3C2.60217 11 2.22064 10.842 1.93934 10.5607C1.65803 10.2794 1.5 9.89783 1.5 9.5V2.50001C1.5 2.10218 1.65803 1.72065 1.93934 1.43935C2.22064 1.15804 2.60217 1.00001 3 1.00001V1.50001C3.00079 2.16281 3.26444 2.79823 3.73311 3.2669C4.20178 3.73557 4.8372 3.99921 5.5 4.00001H7.49999C8.12874 3.99806 8.73357 3.75884 9.19356 3.33019C9.65354 2.90154 9.93476 2.31505 9.98099 1.68801L11.061 2.76801C11.3412 3.04994 11.499 3.431 11.5 3.82851V9.5Z" />
</svg>
