<svg width="100%" height="100%" viewBox="0 0 13 13" xmlns="http://www.w3.org/2000/svg">
<path d="M13 12.2351L9.6126 8.8477C10.4925 7.77154 10.9251 6.39835 10.821 5.01217C10.7168 3.62598 10.0839 2.33285 9.05304 1.40025C8.0222 0.467657 6.67234 -0.0330513 5.28268 0.00169456C3.89302 0.0364405 2.56987 0.603983 1.58693 1.58693C0.603983 2.56987 0.0364405 3.89302 0.00169456 5.28268C-0.0330513 6.67234 0.467657 8.0222 1.40025 9.05304C2.33285 10.0839 3.62598 10.7168 5.01217 10.821C6.39835 10.9251 7.77154 10.4925 8.8477 9.6126L12.2351 13L13 12.2351ZM5.42677 9.75433C4.57086 9.75433 3.73417 9.50052 3.0225 9.025C2.31084 8.54948 1.75616 7.87361 1.42862 7.08285C1.10108 6.29209 1.01538 5.42197 1.18236 4.5825C1.34934 3.74304 1.7615 2.97194 2.36672 2.36672C2.97194 1.7615 3.74304 1.34934 4.5825 1.18236C5.42197 1.01538 6.29209 1.10108 7.08285 1.42862C7.87361 1.75616 8.54948 2.31084 9.025 3.0225C9.50052 3.73417 9.75433 4.57086 9.75433 5.42677C9.75304 6.57411 9.29669 7.6741 8.48539 8.48539C7.6741 9.29669 6.57411 9.75304 5.42677 9.75433Z" fill="currentColor"/>
</svg>
