
<svg width="12" height="14" viewBox="0 0 12 14" fill="none" xmlns="http://www.w3.org/2000/svg">
  <path d="M6 4.66667C5.56035 4.66667 5.13057 4.80351 4.76502 5.0599C4.39946 5.31629 4.11455 5.68071 3.9463 6.10707C3.77806 6.53343 3.73403 7.00259 3.81981 7.45521C3.90558 7.90783 4.11729 8.32359 4.42817 8.64992C4.73905 8.97624 5.13513 9.19847 5.56633 9.2885C5.99753 9.37853 6.44449 9.33232 6.85067 9.15572C7.25685 8.97911 7.60402 8.68005 7.84828 8.29633C8.09254 7.91262 8.22291 7.46149 8.22291 7C8.22291 6.38116 7.98871 5.78767 7.57183 5.35008C7.15496 4.9125 6.58955 4.66667 6 4.66667ZM6 8.16667C5.78018 8.16667 5.56529 8.09824 5.38251 7.97005C5.19973 7.84185 5.05727 7.65964 4.97315 7.44646C4.88903 7.23328 4.86702 6.99871 4.9099 6.77239C4.95279 6.54608 5.05864 6.3382 5.21408 6.17504C5.36952 6.01188 5.56756 5.90077 5.78317 5.85575C5.99877 5.81073 6.22224 5.83384 6.42533 5.92214C6.62843 6.01044 6.80201 6.15998 6.92414 6.35183C7.04627 6.54369 7.11145 6.76926 7.11145 7C7.11145 7.30942 6.99435 7.60617 6.78592 7.82496C6.57748 8.04375 6.29478 8.16667 6 8.16667Z" fill="white"/>
  <path d="M11.1649 8.10833L10.9182 7.959C11.0293 7.32459 11.0293 6.67424 10.9182 6.03983L11.1649 5.8905C11.3547 5.77559 11.521 5.62258 11.6544 5.4402C11.7878 5.25782 11.8857 5.04965 11.9425 4.82756C11.9992 4.60547 12.0138 4.37383 11.9852 4.14584C11.9567 3.91786 11.8857 3.698 11.7762 3.49883C11.6668 3.29966 11.521 3.12507 11.3472 2.98504C11.1735 2.845 10.9752 2.74225 10.7636 2.68267C10.552 2.62309 10.3313 2.60783 10.1141 2.63777C9.89694 2.66771 9.68749 2.74226 9.49774 2.85717L9.25045 3.00708C8.78338 2.5882 8.24662 2.26348 7.66718 2.04925V1.75C7.66718 1.28587 7.49153 0.840752 7.17887 0.512563C6.86622 0.184374 6.44216 0 6 0C5.55784 0 5.13378 0.184374 4.82113 0.512563C4.50847 0.840752 4.33282 1.28587 4.33282 1.75V2.04925C3.75341 2.26425 3.21684 2.58977 2.75011 3.00942L2.5017 2.85833C2.11849 2.62627 1.66315 2.5635 1.23586 2.68384C0.808559 2.80417 0.444303 3.09775 0.223221 3.5C0.00213905 3.90225 -0.0576589 4.3802 0.056982 4.82873C0.171623 5.27725 0.451312 5.6596 0.83452 5.89167L1.08126 6.041C0.970178 6.67541 0.970178 7.32576 1.08126 7.96017L0.83452 8.1095C0.451312 8.34157 0.171623 8.72392 0.056982 9.17244C-0.0576589 9.62096 0.00213905 10.0989 0.223221 10.5012C0.444303 10.9034 0.808559 11.197 1.23586 11.3173C1.66315 11.4377 2.11849 11.3749 2.5017 11.1428L2.749 10.9929C3.21623 11.4119 3.75319 11.7366 4.33282 11.9508V12.25C4.33282 12.7141 4.50847 13.1592 4.82113 13.4874C5.13378 13.8156 5.55784 14 6 14C6.44216 14 6.86622 13.8156 7.17887 13.4874C7.49153 13.1592 7.66718 12.7141 7.66718 12.25V11.9508C8.24659 11.7358 8.78316 11.4102 9.24989 10.9906L9.4983 11.1411C9.88151 11.3731 10.3368 11.4359 10.7641 11.3156C11.1914 11.1952 11.5557 10.9017 11.7768 10.4994C11.9979 10.0972 12.0577 9.61922 11.943 9.17069C11.8284 8.72217 11.5487 8.33982 11.1655 8.10775L11.1649 8.10833ZM9.74893 5.90567C9.93713 6.62145 9.93713 7.37738 9.74893 8.09317C9.71607 8.21775 9.72357 8.35026 9.77024 8.46989C9.81691 8.58952 9.90012 8.68948 10.0068 8.75408L10.6092 9.11925C10.7369 9.19661 10.8301 9.32404 10.8683 9.47353C10.9065 9.62302 10.8866 9.78232 10.8129 9.91638C10.7392 10.0504 10.6178 10.1483 10.4754 10.1884C10.3329 10.2285 10.1812 10.2075 10.0535 10.1302L9.44995 9.76383C9.34319 9.69893 9.21889 9.67316 9.09665 9.69059C8.9744 9.70801 8.86115 9.76764 8.77474 9.86008C8.2801 10.3901 7.65694 10.7683 6.97252 10.9538C6.85306 10.9861 6.74721 11.0591 6.67165 11.1615C6.59609 11.2638 6.55511 11.3896 6.55517 11.5191V12.25C6.55517 12.4047 6.49662 12.5531 6.3924 12.6625C6.28818 12.7719 6.14683 12.8333 5.99944 12.8333C5.85206 12.8333 5.7107 12.7719 5.60649 12.6625C5.50227 12.5531 5.44372 12.4047 5.44372 12.25V11.5197C5.44378 11.3902 5.4028 11.2644 5.32724 11.162C5.25168 11.0597 5.14583 10.9867 5.02637 10.9544C4.3419 10.7681 3.71892 10.3891 3.2247 9.85833C3.1383 9.76589 3.02505 9.70626 2.9028 9.68884C2.78055 9.67141 2.65625 9.69718 2.54949 9.76208L1.94709 10.1278C1.88386 10.1667 1.81393 10.1921 1.74131 10.2026C1.6687 10.213 1.59484 10.2082 1.52398 10.1886C1.45313 10.1689 1.38668 10.1347 1.32846 10.088C1.27024 10.0413 1.2214 9.9829 1.18476 9.91628C1.14811 9.84965 1.12438 9.77608 1.11494 9.69979C1.10549 9.6235 1.11051 9.54601 1.12972 9.47176C1.14892 9.39752 1.18192 9.328 1.22683 9.2672C1.27173 9.2064 1.32765 9.15552 1.39136 9.1175L1.99377 8.75233C2.10044 8.68773 2.18364 8.58777 2.23032 8.46814C2.27699 8.34851 2.28448 8.216 2.25162 8.09142C2.06343 7.37563 2.06343 6.6197 2.25162 5.90392C2.28389 5.7796 2.27604 5.64756 2.22929 5.52842C2.18254 5.40928 2.09953 5.30974 1.99321 5.24533L1.3908 4.88017C1.26309 4.80281 1.16989 4.67537 1.13169 4.52588C1.09349 4.37639 1.11343 4.2171 1.18713 4.08304C1.26082 3.94899 1.38223 3.85115 1.52465 3.81106C1.66706 3.77096 1.81882 3.7919 1.94653 3.86925L2.55005 4.23558C2.65651 4.30063 2.78055 4.32671 2.90267 4.30971C3.02479 4.29271 3.13807 4.2336 3.2247 4.14167C3.71935 3.61162 4.3425 3.23343 5.02692 3.04792C5.14675 3.01558 5.25288 2.94219 5.32848 2.83938C5.40408 2.73656 5.44483 2.61021 5.44427 2.48033V1.75C5.44427 1.59529 5.50282 1.44692 5.60704 1.33752C5.71126 1.22812 5.85261 1.16667 6 1.16667C6.14739 1.16667 6.28874 1.22812 6.39296 1.33752C6.49718 1.44692 6.55573 1.59529 6.55573 1.75V2.48033C6.55567 2.60981 6.59664 2.73563 6.6722 2.83796C6.74776 2.9403 6.85361 3.01334 6.97308 3.04558C7.65774 3.23176 8.28092 3.61077 8.7753 4.14167C8.8617 4.23411 8.97495 4.29374 9.0972 4.31116C9.21945 4.32859 9.34375 4.30282 9.45051 4.23792L10.0529 3.87217C10.1161 3.83326 10.1861 3.80786 10.2587 3.79744C10.3313 3.78702 10.4052 3.79178 10.476 3.81144C10.5469 3.83111 10.6133 3.86529 10.6715 3.91202C10.7298 3.95875 10.7786 4.0171 10.8152 4.08373C10.8519 4.15035 10.8756 4.22392 10.8851 4.30021C10.8945 4.3765 10.8895 4.45399 10.8703 4.52824C10.8511 4.60248 10.8181 4.672 10.7732 4.7328C10.7283 4.7936 10.6724 4.84448 10.6086 4.8825L10.0062 5.24767C9.90012 5.31224 9.81734 5.41186 9.77079 5.53099C9.72425 5.65012 9.71657 5.78206 9.74893 5.90625V5.90567Z" fill="white"/>
  </svg>
  