
<svg width="12" height="17" viewBox="0 0 12 17" fill="none" xmlns="http://www.w3.org/2000/svg">
  <path d="M12 17H0V14.875C0.039865 13.65 0.324531 12.4481 0.835098 11.349C1.34566 10.2498 2.07045 9.27869 2.96133 8.5C2.07045 7.72131 1.34566 6.75016 0.835098 5.65104C0.324531 4.55192 0.039865 3.34997 0 2.125C0 1.56141 0.210714 1.02091 0.585787 0.622398C0.960859 0.223883 1.46957 0 2 0H10C10.5304 0 11.0391 0.223883 11.4142 0.622398C11.7893 1.02091 12 1.56141 12 2.125C11.9606 3.34885 11.6773 4.54991 11.1688 5.64883C10.6603 6.74776 9.93813 7.71954 9.05 8.5C9.93813 9.28046 10.6603 10.2522 11.1688 11.3512C11.6773 12.4501 11.9606 13.6511 12 14.875V17ZM1.33333 15.5833H10.6667V14.875C10.6667 12.2017 9 10.234 7.60533 9.05463L6.94933 8.5L7.60533 7.94537C9 6.766 10.6667 4.79825 10.6667 2.125C10.6667 1.93714 10.5964 1.75697 10.4714 1.62413C10.3464 1.49129 10.1768 1.41667 10 1.41667H2C1.82319 1.41667 1.65362 1.49129 1.5286 1.62413C1.40357 1.75697 1.33333 1.93714 1.33333 2.125C1.33333 4.79825 3.00533 6.76529 4.408 7.94467L5.06667 8.5L4.406 9.05533C3.00533 10.2347 1.33333 12.2017 1.33333 14.875V15.5833ZM6.012 11.3206C6.50438 11.7306 6.94038 12.2117 7.30733 12.75H4.712M6.00933 9.57171C4.918 10.3317 3.05667 11.9305 2.72 14.1667H9.28133C8.948 11.9113 7.08933 10.3204 6.00933 9.57171Z" fill="white"/>
  </svg>
  