
<svg width="14" height="16" viewBox="0 0 14 16" xmlns="http://www.w3.org/2000/svg">
<path d="M13.3 2.66667H11.13C10.9675 1.91428 10.5377 1.23823 9.91288 0.752479C9.28808 0.266727 8.50654 0.000969683 7.7 0H6.3C5.49346 0.000969683 4.71192 0.266727 4.08712 0.752479C3.46233 1.23823 3.03247 1.91428 2.87 2.66667H0.7C0.514348 2.66667 0.336301 2.7369 0.205025 2.86193C0.0737498 2.98695 0 3.15652 0 3.33333C0 3.51014 0.0737498 3.67971 0.205025 3.80474C0.336301 3.92976 0.514348 4 0.7 4H1.4V12.6667C1.40111 13.5504 1.77022 14.3976 2.42635 15.0225C3.08249 15.6474 3.97208 15.9989 4.9 16H9.1C10.0279 15.9989 10.9175 15.6474 11.5736 15.0225C12.2298 14.3976 12.5989 13.5504 12.6 12.6667V4H13.3C13.4857 4 13.6637 3.92976 13.795 3.80474C13.9263 3.67971 14 3.51014 14 3.33333C14 3.15652 13.9263 2.98695 13.795 2.86193C13.6637 2.7369 13.4857 2.66667 13.3 2.66667ZM6.3 1.33333H7.7C8.13419 1.33384 8.55759 1.46225 8.91213 1.70096C9.26667 1.93967 9.53499 2.27699 9.6803 2.66667H4.3197C4.46501 2.27699 4.73333 1.93967 5.08787 1.70096C5.44241 1.46225 5.86581 1.33384 6.3 1.33333ZM11.2 12.6667C11.2 13.1971 10.9788 13.7058 10.5849 14.0809C10.1911 14.456 9.65695 14.6667 9.1 14.6667H4.9C4.34305 14.6667 3.8089 14.456 3.41508 14.0809C3.02125 13.7058 2.8 13.1971 2.8 12.6667V4H11.2V12.6667Z" fill="currentColor"/>
<path d="M5.6 12C5.78565 12 5.9637 11.9298 6.09497 11.8047C6.22625 11.6797 6.3 11.5101 6.3 11.3333V7.33333C6.3 7.15652 6.22625 6.98695 6.09497 6.86193C5.9637 6.7369 5.78565 6.66667 5.6 6.66667C5.41435 6.66667 5.2363 6.7369 5.10503 6.86193C4.97375 6.98695 4.9 7.15652 4.9 7.33333V11.3333C4.9 11.5101 4.97375 11.6797 5.10503 11.8047C5.2363 11.9298 5.41435 12 5.6 12Z" fill="currentColor"/>
<path d="M8.4 12C8.58565 12 8.7637 11.9298 8.89497 11.8047C9.02625 11.6797 9.1 11.5101 9.1 11.3333V7.33333C9.1 7.15652 9.02625 6.98695 8.89497 6.86193C8.7637 6.7369 8.58565 6.66667 8.4 6.66667C8.21435 6.66667 8.0363 6.7369 7.90503 6.86193C7.77375 6.98695 7.7 7.15652 7.7 7.33333V11.3333C7.7 11.5101 7.77375 11.6797 7.90503 11.8047C8.0363 11.9298 8.21435 12 8.4 12Z" fill="currentColor"/>
</svg>
