<svg width="100%" height="100%" viewBox="0 0 18 22" xmlns="http://www.w3.org/2000/svg">
<path d="M17.1003 3.66665H14.3104C13.8797 1.53411 12.0379 0.00275 9.90032 0H8.10031C5.9627 0.00275 4.12088 1.53411 3.69031 3.66665H0.900323C0.403269 3.66665 0.000335693 4.07705 0.000335693 4.5833C0.000335693 5.08956 0.403269 5.5 0.900323 5.5H1.80031V17.4167C1.80331 19.9467 3.81629 21.997 6.30033 22H11.7003C14.1844 21.997 16.1974 19.9467 16.2004 17.4167V5.5H17.1003C17.5974 5.5 18.0003 5.08961 18.0003 4.58335C18.0003 4.07709 17.5974 3.66665 17.1003 3.66665ZM8.10035 15.5833C8.10035 16.0896 7.69741 16.5 7.20036 16.5C6.70326 16.5 6.30033 16.0896 6.30033 15.5833V10.0833C6.30033 9.57709 6.70326 9.1667 7.20032 9.1667C7.69737 9.1667 8.10031 9.57709 8.10031 10.0833V15.5833H8.10035ZM11.7003 15.5833C11.7003 16.0896 11.2974 16.5 10.8004 16.5C10.3033 16.5 9.90037 16.0896 9.90037 15.5833V10.0833C9.90037 9.57709 10.3033 9.1667 10.8004 9.1667C11.2974 9.1667 11.7003 9.57709 11.7003 10.0833V15.5833ZM5.55424 3.66665C5.93705 2.56876 6.95647 1.83472 8.10035 1.8333H9.90037C11.0442 1.83472 12.0637 2.56876 12.4465 3.66665H5.55424Z" fill="currentColor"/>
</svg>
