<svg width="100%" height="100%" viewBox="0 0 19 18" xmlns="http://www.w3.org/2000/svg">
<path d="M4.95 13.25H16V13.875C16 15.6006 14.5446 17 12.75 17H4.95C3.87295 17 3 16.1606 3 15.125C3 14.0894 3.87295 13.25 4.95 13.25ZM4.95 12H5.6V2.0625C4.0868 2.35938 3 3.64 3 5.125V12.6406C3.45435 12.3113 3.99125 12.1031 4.55675 12.0381C4.6861 12.0125 4.81805 12 4.95 12ZM16 5.125V12H6.9V2H12.75C14.5446 2 16 3.39938 16 5.125ZM10.1 5.4375C10.1 6.29938 10.8286 7 11.725 7C12.6213 7 13.3499 6.29938 13.3499 5.4375C13.3499 4.57563 12.6213 3.875 11.725 3.875C10.8286 3.875 10.1 4.57563 10.1 5.4375ZM14.6064 9.17625C14.0032 8.21938 12.8995 7.625 11.725 7.625C10.5504 7.625 9.4467 8.21938 8.8435 9.17625C8.6576 9.47125 8.75575 9.85563 9.06255 10.035C9.36935 10.2131 9.7691 10.12 9.95565 9.82438C10.319 9.24813 11.0132 8.87563 11.725 8.87563C12.4367 8.87563 13.1309 9.24813 13.4943 9.82438C13.6165 10.0188 13.8316 10.1256 14.0506 10.1256C14.1657 10.1256 14.2814 10.0969 14.3873 10.035C14.6941 9.85563 14.7923 9.47188 14.6064 9.17625Z" fill="currentColor"/>
</svg>
