<svg width="100%" height="100%" viewBox="0 0 21 21" xmlns="http://www.w3.org/2000/svg">
<path d="M6.19229 7.40909C7.66339 7.40909 8.86008 6.19591 8.86008 4.70455C8.86008 3.21318 7.66339 2 6.19229 2C4.7212 2 3.52451 3.21318 3.52451 4.70455C3.52451 6.19591 4.7212 7.40909 6.19229 7.40909ZM13.8145 7.40909C15.2856 7.40909 16.4823 6.19591 16.4823 4.70455C16.4823 3.21318 15.2856 2 13.8145 2C12.3434 2 11.1468 3.21318 11.1468 4.70455C11.1468 6.19591 12.3434 7.40909 13.8145 7.40909ZM7.33563 10.8864C7.33563 12.3777 8.53232 13.5909 10.0034 13.5909C11.4745 13.5909 12.6712 12.3777 12.6712 10.8864C12.6712 9.395 11.4745 8.18182 10.0034 8.18182C8.53232 8.18182 7.33563 9.395 7.33563 10.8864ZM5.81118 10.8864C5.81118 9.88723 6.15495 8.96923 6.72661 8.24286C6.5513 8.22355 6.3737 8.20886 6.19229 8.20886C3.85684 8.20886 1.98786 9.79991 2.00006 12.0671C2.00235 12.4851 2.35449 12.8182 2.76686 12.8182H6.27461C5.98116 12.2379 5.81118 11.5826 5.81118 10.8864ZM13.733 16.3768C13.4334 15.9091 12.6483 15.1541 12.0416 14.8559C11.4349 14.5576 10.739 14.3907 10.0034 14.3907C7.66796 14.3907 5.79899 15.9817 5.81118 18.2489C5.81347 18.667 6.16562 19 6.57798 19C6.57798 19 10.7534 19 13.4289 19C16.1043 19 13.4304 19 13.4304 19C14.5767 19 14.1255 16.9895 13.733 16.3768ZM13.2802 8.24286C13.8519 8.96923 14.1957 9.88723 14.1957 10.8864C14.1957 11.5826 13.7269 12.431 13.4334 13.0114H14.5767C16.2918 13.0114 16.4427 13.0114 17.4351 13.0114C18.0182 13.0114 18.0068 12.4318 17.9976 11.8677C17.8985 9.70873 16.0334 8.20964 13.8153 8.20964C13.6331 8.20964 13.4555 8.22432 13.2802 8.24286Z" fill="currentColor"/>
</svg>
