<svg width="100%" height="100%" version="1.0" xmlns="http://www.w3.org/2000/svg"
  viewBox="0 0 24.000000 24.000000"
 preserveAspectRatio="xMidYMid meet">

<g transform="translate(0.000000,24.000000) scale(0.100000,-0.100000)"
fill="currentColor">
<path d="M67 178 c-41 -63 -67 -113 -67 -127 0 -5 7 -17 16 -25 22 -23 186
-23 208 0 23 23 21 33 -31 120 -62 102 -79 106 -126 32z m111 -46 c24 -40 41
-79 38 -87 -8 -21 -184 -22 -192 -1 -9 24 80 170 100 163 6 -2 31 -36 54 -75z"/>
<path d="M110 125 c0 -19 5 -35 10 -35 6 0 10 16 10 35 0 19 -4 35 -10 35 -5
0 -10 -16 -10 -35z"/>
<path d="M110 60 c0 -5 5 -10 10 -10 6 0 10 5 10 10 0 6 -4 10 -10 10 -5 0
-10 -4 -10 -10z"/>
</g>
</svg>
