<svg width="20" height="19" viewBox="0 0 20 19" fill="none" xmlns="http://www.w3.org/2000/svg">
<path d="M10 0L18.6603 4.75V14.25L10 19L1.33975 14.25V4.75L10 0Z" fill="#9D9DB7"/>
<path d="M10.632 11.878H9.288L8.938 5.004H10.982L10.632 11.878ZM8.882 14.104C8.882 13.712 8.98467 13.4367 9.19 13.278C9.39533 13.11 9.652 13.026 9.96 13.026C10.2493 13.026 10.4967 13.1053 10.702 13.264C10.9167 13.4227 11.024 13.7027 11.024 14.104C11.024 14.4867 10.9167 14.762 10.702 14.93C10.4967 15.098 10.2493 15.182 9.96 15.182C9.652 15.182 9.39533 15.098 9.19 14.93C8.98467 14.762 8.882 14.4867 8.882 14.104Z" fill="#232637"/>
</svg>
