<svg width="18" height="18" viewBox="0 0 18 18" fill="none" xmlns="http://www.w3.org/2000/svg">
<path d="M9 9C7.9395 9.00106 6.92276 9.38068 6.17287 10.0556C5.42298 10.7305 5.00118 11.6455 5 12.6C5 12.7061 5.04683 12.8078 5.13017 12.8828C5.21352 12.9579 5.32657 13 5.44444 13H12.5556C12.6734 13 12.7865 12.9579 12.8698 12.8828C12.9532 12.8078 13 12.7061 13 12.6C12.9988 11.6455 12.577 10.7305 11.8271 10.0556C11.0772 9.38068 10.0605 9.00106 9 9Z" fill="#fff"/>
<circle cx="9" cy="6" r="2" fill="#fff"/>
<path fill-rule="evenodd" clip-rule="evenodd" d="M7 0H4C1.79086 0 0 1.79086 0 4V7H2V4C2 2.89543 2.89543 2 4 2H7V0ZM11 2V0H14C16.2091 0 18 1.79086 18 4V7H16V4C16 2.89543 15.1046 2 14 2H11ZM11 16H14C15.1046 16 16 15.1046 16 14V11H18V14C18 16.2091 16.2091 18 14 18H11V16ZM2 11V14C2 15.1046 2.89543 16 4 16H7V18H4C1.79086 18 0 16.2091 0 14V11H2Z" fill="#fff"/>
</svg>
