<svg width="14" height="17" viewBox="0 0 14 17" fill="none" xmlns="http://www.w3.org/2000/svg">
<circle cx="7" cy="4" r="4" fill="#fff"/>
<path fill-rule="evenodd" clip-rule="evenodd" d="M8.19999 9.79979L9.5 14.9998L7 16.9998L4.5 14.9998L5.80001 9.79979L5.23459 9.23438C4.04084 9.55555 2.93992 10.1983 2.05253 11.111C0.740218 12.4608 0.00205866 14.2909 0 16.1998C0 16.412 0.0819442 16.6155 0.227806 16.7655C0.373667 16.9156 0.571498 16.9998 0.777778 16.9998H7H13.2222C13.4285 16.9998 13.6263 16.9156 13.7722 16.7655C13.9181 16.6155 14 16.412 14 16.1998C13.9979 14.2909 13.2598 12.4608 11.9475 11.111C11.0601 10.1983 9.95916 9.55555 8.76541 9.23438L8.19999 9.79979Z" fill="#fff"/>
</svg>
