<svg width="18" height="22" viewBox="0 0 18 22" fill="none" xmlns="http://www.w3.org/2000/svg">
<path fill-rule="evenodd" clip-rule="evenodd" d="M7 2H4C1.79086 2 0 3.79086 0 6V16C0 18.2091 1.79086 20 4 20H7V18H4C2.89543 18 2 17.1046 2 16V6C2 4.89543 2.89543 4 4 4H7V2ZM11 18H14C15.1046 18 16 17.1046 16 16V6C16 4.89543 15.1046 4 14 4H11V2H14C16.2091 2 18 3.79086 18 6V16C18 18.2091 16.2091 20 14 20H11V18Z" fill="#fff"/>
<path d="M8 3L9.25 0.401924H11.75L13 3L11.75 5.59808H9.25L8 3Z" fill="#fff"/>
<path d="M10 19L8.75 16.4019H6.25L5 19L6.25 21.5981H8.75L10 19Z" fill="#fff"/>
</svg>
