<svg width="18" height="20" viewBox="0 0 18 20" fill="none" xmlns="http://www.w3.org/2000/svg">
<path d="M6 8C4.40924 8.00159 2.88414 8.57102 1.75931 9.58338C0.634472 10.5957 0.00176457 11.9683 0 13.4C0 13.5591 0.0702379 13.7117 0.195262 13.8243C0.320286 13.9368 0.489856 14 0.666667 14H11.3333C11.5101 14 11.6797 13.9368 11.8047 13.8243C11.9298 13.7117 12 13.5591 12 13.4C11.9982 11.9683 11.3655 10.5957 10.2407 9.58338C9.11586 8.57102 7.59076 8.00159 6 8Z" fill="#9D9DB7"/>
<circle cx="6" cy="3" r="3" fill="#9D9DB7"/>
<path d="M9 14C9 16.4 11.6667 17.6667 13 18C14.5 17.5 17 16.5 17 14V9L13 8L9 9V14Z" fill="#9D9DB7" stroke="#fff" stroke-width="1"/>
<rect width="2.32193" fill="#fff" height="1.0882" rx="0.5441" transform="matrix(-0.736799 -0.676112 -0.676112 0.736799 13.4453 13.5566)"/>
<rect width="3.52914" fill="#fff" height="1.0882" rx="0.5441" transform="matrix(0.640049 -0.768334 -0.768334 -0.640049 12.7422 14.4082)"/>
</svg>
