<svg width="18" height="22" viewBox="0 0 18 22" fill="none" xmlns="http://www.w3.org/2000/svg">
<path d="M6 8C4.40924 8.00159 2.88414 8.57102 1.75931 9.58338C0.634472 10.5957 0.00176457 11.9683 0 13.4C0 13.5591 0.0702379 13.7117 0.195262 13.8243C0.320286 13.9368 0.489856 14 0.666667 14H11.3333C11.5101 14 11.6797 13.9368 11.8047 13.8243C11.9298 13.7117 12 13.5591 12 13.4C11.9982 11.9683 11.3655 10.5957 10.2407 9.58338C9.11586 8.57102 7.59076 8.00159 6 8Z" fill="#fff"/>
<circle cx="6" cy="3" r="3" fill="#fff"/>
<mask id="path-3-outside-1_1281_33865" maskUnits="userSpaceOnUse" x="8" y="5" width="11" height="14" fill="black">
<rect fill="white" x="8" y="5" width="11" height="14"/>
<path d="M12.724 13.396C12.54 13.396 12.412 13.364 12.34 13.3C12.276 13.228 12.244 13.1 12.244 12.916C12.244 12.396 12.332 11.992 12.508 11.704C12.692 11.408 12.936 11.168 13.24 10.984L13.588 10.792C13.9 10.624 14.132 10.464 14.284 10.312C14.436 10.16 14.512 9.94 14.512 9.652C14.512 9.444 14.44 9.28 14.296 9.16C14.152 9.032 13.944 8.968 13.672 8.968C13.368 8.968 13.128 9.048 12.952 9.208C12.776 9.36 12.604 9.62 12.436 9.988C12.372 10.124 12.312 10.22 12.256 10.276C12.2 10.332 12.132 10.36 12.052 10.36C11.972 10.36 11.884 10.344 11.788 10.312L10.636 9.88C10.508 9.832 10.412 9.78 10.348 9.724C10.292 9.66 10.264 9.58 10.264 9.484C10.264 9.42 10.284 9.336 10.324 9.232C10.892 7.832 12.012 7.132 13.684 7.132C14.34 7.132 14.904 7.24 15.376 7.456C15.856 7.664 16.22 7.956 16.468 8.332C16.724 8.708 16.852 9.14 16.852 9.628C16.852 10.068 16.772 10.44 16.612 10.744C16.452 11.04 16.26 11.272 16.036 11.44C15.82 11.608 15.54 11.792 15.196 11.992C14.996 12.088 14.844 12.176 14.74 12.256C14.596 12.36 14.484 12.464 14.404 12.568C14.324 12.664 14.284 12.78 14.284 12.916C14.284 13.1 14.248 13.228 14.176 13.3C14.112 13.364 13.988 13.396 13.804 13.396H12.724ZM12.04 14.74C12.04 14.388 12.108 14.144 12.244 14.008C12.38 13.872 12.628 13.804 12.988 13.804H13.576C13.936 13.804 14.184 13.872 14.32 14.008C14.456 14.144 14.524 14.388 14.524 14.74V15.16C14.524 15.512 14.456 15.756 14.32 15.892C14.184 16.028 13.936 16.096 13.576 16.096H12.988C12.628 16.096 12.38 16.028 12.244 15.892C12.108 15.756 12.04 15.512 12.04 15.16V14.74Z"/>
</mask>
<path d="M12.724 13.396C12.54 13.396 12.412 13.364 12.34 13.3C12.276 13.228 12.244 13.1 12.244 12.916C12.244 12.396 12.332 11.992 12.508 11.704C12.692 11.408 12.936 11.168 13.24 10.984L13.588 10.792C13.9 10.624 14.132 10.464 14.284 10.312C14.436 10.16 14.512 9.94 14.512 9.652C14.512 9.444 14.44 9.28 14.296 9.16C14.152 9.032 13.944 8.968 13.672 8.968C13.368 8.968 13.128 9.048 12.952 9.208C12.776 9.36 12.604 9.62 12.436 9.988C12.372 10.124 12.312 10.22 12.256 10.276C12.2 10.332 12.132 10.36 12.052 10.36C11.972 10.36 11.884 10.344 11.788 10.312L10.636 9.88C10.508 9.832 10.412 9.78 10.348 9.724C10.292 9.66 10.264 9.58 10.264 9.484C10.264 9.42 10.284 9.336 10.324 9.232C10.892 7.832 12.012 7.132 13.684 7.132C14.34 7.132 14.904 7.24 15.376 7.456C15.856 7.664 16.22 7.956 16.468 8.332C16.724 8.708 16.852 9.14 16.852 9.628C16.852 10.068 16.772 10.44 16.612 10.744C16.452 11.04 16.26 11.272 16.036 11.44C15.82 11.608 15.54 11.792 15.196 11.992C14.996 12.088 14.844 12.176 14.74 12.256C14.596 12.36 14.484 12.464 14.404 12.568C14.324 12.664 14.284 12.78 14.284 12.916C14.284 13.1 14.248 13.228 14.176 13.3C14.112 13.364 13.988 13.396 13.804 13.396H12.724ZM12.04 14.74C12.04 14.388 12.108 14.144 12.244 14.008C12.38 13.872 12.628 13.804 12.988 13.804H13.576C13.936 13.804 14.184 13.872 14.32 14.008C14.456 14.144 14.524 14.388 14.524 14.74V15.16C14.524 15.512 14.456 15.756 14.32 15.892C14.184 16.028 13.936 16.096 13.576 16.096H12.988C12.628 16.096 12.38 16.028 12.244 15.892C12.108 15.756 12.04 15.512 12.04 15.16V14.74Z" fill="#fff"/>
<path d="M12.34 13.3L10.8452 14.6287L10.9233 14.7167L11.0113 14.7948L12.34 13.3ZM12.508 11.704L10.8094 10.6481L10.8054 10.6546L10.8014 10.6611L12.508 11.704ZM13.24 10.984L12.2738 9.23284L12.2387 9.25223L12.2044 9.273L13.24 10.984ZM13.588 10.792L12.6398 9.03106L12.6308 9.03591L12.6218 9.04084L13.588 10.792ZM14.284 10.312L12.8698 8.89779L12.8698 8.89779L14.284 10.312ZM14.296 9.16L12.9673 10.6548L12.9911 10.676L13.0156 10.6964L14.296 9.16ZM12.952 9.208L14.2592 10.7216L14.2785 10.705L14.2973 10.6879L12.952 9.208ZM12.436 9.988L14.2456 10.8396L14.2506 10.8291L14.2554 10.8186L12.436 9.988ZM11.788 10.312L11.0858 12.1847L11.1204 12.1977L11.1555 12.2094L11.788 10.312ZM10.636 9.88L11.3382 8.00734L11.3382 8.00734L10.636 9.88ZM10.348 9.724L8.84285 11.041L8.93065 11.1414L9.03099 11.2292L10.348 9.724ZM10.324 9.232L8.47072 8.4801L8.46386 8.49701L8.45731 8.51404L10.324 9.232ZM15.376 7.456L14.5438 9.27462L14.5622 9.28305L14.5808 9.29111L15.376 7.456ZM16.468 8.332L14.7985 9.43319L14.8065 9.44545L14.8148 9.45758L16.468 8.332ZM16.612 10.744L18.3714 11.695L18.3767 11.6853L18.3818 11.6755L16.612 10.744ZM16.036 11.44L14.836 9.84L14.822 9.85053L14.8081 9.86129L16.036 11.44ZM15.196 11.992L16.0615 13.795L16.1328 13.7608L16.2012 13.721L15.196 11.992ZM14.74 12.256L15.911 13.8774L15.9355 13.8597L15.9594 13.8412L14.74 12.256ZM14.404 12.568L15.9404 13.8484L15.9654 13.8184L15.9892 13.7874L14.404 12.568ZM14.176 13.3L15.5902 14.7142L15.5902 14.7142L14.176 13.3ZM14.32 15.892L12.9058 14.4778H12.9058L14.32 15.892ZM12.244 15.892L13.6582 14.4778L12.244 15.892ZM12.724 11.396C12.7365 11.396 12.8319 11.3959 12.9751 11.4317C13.1142 11.4665 13.3911 11.5584 13.6687 11.8052L11.0113 14.7948C11.6619 15.3732 12.4395 15.396 12.724 15.396V11.396ZM13.8348 11.9713C14.0816 12.2489 14.1735 12.5258 14.2083 12.6649C14.2441 12.8081 14.244 12.9035 14.244 12.916H10.244C10.244 13.2005 10.2668 13.9781 10.8452 14.6287L13.8348 11.9713ZM14.244 12.916C14.244 12.7643 14.2572 12.6805 14.2642 12.6487C14.271 12.6175 14.2658 12.6631 14.2146 12.7469L10.8014 10.6611C10.3564 11.3894 10.244 12.2112 10.244 12.916H14.244ZM14.2066 12.7599C14.2209 12.7368 14.2356 12.7192 14.2756 12.695L12.2044 9.273C11.6364 9.61681 11.1631 10.0792 10.8094 10.6481L14.2066 12.7599ZM14.2062 12.7352L14.5542 12.5432L12.6218 9.04084L12.2738 9.23284L14.2062 12.7352ZM14.5362 12.5529C14.9239 12.3442 15.3485 12.0759 15.6982 11.7262L12.8698 8.89779C12.9011 8.86645 12.9056 8.86849 12.8605 8.89957C12.8178 8.92904 12.7469 8.97339 12.6398 9.03106L14.5362 12.5529ZM15.6982 11.7262C16.3389 11.0855 16.512 10.2846 16.512 9.652H12.512C12.512 9.59545 12.5331 9.23452 12.8698 8.89779L15.6982 11.7262ZM16.512 9.652C16.512 8.92397 16.23 8.16823 15.5764 7.62356L13.0156 10.6964C12.8612 10.5677 12.721 10.3918 12.6267 10.177C12.5349 9.96794 12.512 9.78052 12.512 9.652H16.512ZM15.6247 7.66518C14.9883 7.09945 14.2333 6.968 13.672 6.968V10.968C13.6547 10.968 13.3157 10.9645 12.9673 10.6548L15.6247 7.66518ZM13.672 6.968C13.0135 6.968 12.2444 7.14831 11.6067 7.72812L14.2973 10.6879C14.1664 10.8069 14.0235 10.883 13.8965 10.9254C13.7762 10.9655 13.693 10.968 13.672 10.968V6.968ZM11.6448 7.69435C11.1457 8.1254 10.8284 8.69342 10.6166 9.15741L14.2554 10.8186C14.281 10.7625 14.3032 10.7183 14.3215 10.6845C14.34 10.6504 14.3528 10.63 14.359 10.6205C14.3655 10.6107 14.3625 10.6164 14.3486 10.6328C14.335 10.649 14.3059 10.6814 14.2592 10.7216L11.6448 7.69435ZM10.6264 9.13641C10.6179 9.1544 10.624 9.13878 10.647 9.102C10.6661 9.07151 10.7279 8.97564 10.8418 8.86179L13.6702 11.6902C13.9769 11.3836 14.1552 11.0318 14.2456 10.8396L10.6264 9.13641ZM10.8418 8.86179C10.986 8.71758 11.1731 8.58371 11.4015 8.48964C11.6295 8.39574 11.8539 8.36 12.052 8.36V12.36C12.6564 12.36 13.2349 12.1255 13.6702 11.6902L10.8418 8.86179ZM12.052 8.36C12.2352 8.36 12.364 8.39582 12.4205 8.41463L11.1555 12.2094C11.404 12.2922 11.7088 12.36 12.052 12.36V8.36ZM12.4902 8.43934L11.3382 8.00734L9.93375 11.7527L11.0858 12.1847L12.4902 8.43934ZM11.3382 8.00734C11.3398 8.00793 11.3707 8.01942 11.4206 8.04641C11.4683 8.07227 11.559 8.12611 11.665 8.21884L9.03099 11.2292C9.35249 11.5105 9.70043 11.6652 9.93376 11.7527L11.3382 8.00734ZM11.8532 8.40699C12.1575 8.75485 12.264 9.16229 12.264 9.484H8.264C8.264 9.99771 8.42647 10.5652 8.84285 11.041L11.8532 8.40699ZM12.264 9.484C12.264 9.65138 12.2391 9.77544 12.2246 9.83624C12.2091 9.90144 12.194 9.94138 12.1907 9.94996L8.45731 8.51404C8.3846 8.70309 8.264 9.05692 8.264 9.484H12.264ZM12.1773 9.9839C12.3266 9.61591 12.4972 9.44848 12.65 9.353C12.8176 9.24822 13.124 9.132 13.684 9.132V5.132C12.572 5.132 11.4824 5.36578 10.53 5.961C9.56277 6.56552 8.88942 7.44809 8.47072 8.4801L12.1773 9.9839ZM13.684 9.132C14.1261 9.132 14.3923 9.20529 14.5438 9.27462L16.2082 5.63738C15.4157 5.27471 14.5539 5.132 13.684 5.132V9.132ZM14.5808 9.29111C14.7631 9.37012 14.7972 9.43128 14.7985 9.43319L18.1375 7.23081C17.6428 6.48071 16.9489 5.95788 16.1712 5.62089L14.5808 9.29111ZM14.8148 9.45758C14.8281 9.47718 14.852 9.51077 14.852 9.628H18.852C18.852 8.76923 18.6199 7.93882 18.1212 7.20642L14.8148 9.45758ZM14.852 9.628C14.852 9.83209 14.8145 9.86509 14.8422 9.81251L18.3818 11.6755C18.7295 11.0149 18.852 10.3039 18.852 9.628H14.852ZM14.8526 9.79297C14.8276 9.83923 14.8109 9.86042 14.8072 9.86486C14.8041 9.86862 14.8129 9.85731 14.836 9.84L17.236 13.04C17.733 12.6672 18.1013 12.1948 18.3714 11.695L14.8526 9.79297ZM14.8081 9.86129C14.6867 9.95571 14.4887 10.0898 14.1908 10.263L16.2012 13.721C16.5913 13.4942 16.9533 13.2603 17.2639 13.0187L14.8081 9.86129ZM14.3305 10.189C14.0784 10.31 13.7843 10.4679 13.5206 10.6708L15.9594 13.8412C15.9399 13.8562 15.9274 13.8646 15.9243 13.8666C15.921 13.8688 15.9238 13.8668 15.9341 13.8609C15.9557 13.8483 15.9965 13.8262 16.0615 13.795L14.3305 10.189ZM13.569 10.6346C13.3197 10.8147 13.05 11.048 12.8188 11.3486L15.9892 13.7874C15.9515 13.8366 15.9214 13.8659 15.9089 13.8776C15.8961 13.8894 15.895 13.8889 15.911 13.8774L13.569 10.6346ZM12.8676 11.2876C12.4608 11.7757 12.284 12.3565 12.284 12.916H16.284C16.284 13.046 16.2645 13.2058 16.2047 13.379C16.1442 13.5545 16.0527 13.7136 15.9404 13.8484L12.8676 11.2876ZM12.284 12.916C12.284 12.8895 12.2853 12.7736 12.3317 12.6085C12.3789 12.4406 12.4924 12.1551 12.7618 11.8858L15.5902 14.7142C16.2441 14.0604 16.284 13.2402 16.284 12.916H12.284ZM12.7618 11.8858C13.0662 11.5814 13.3874 11.4736 13.5352 11.4354C13.6904 11.3954 13.794 11.396 13.804 11.396V15.396C14.0469 15.396 14.9144 15.3901 15.5902 14.7142L12.7618 11.8858ZM13.804 11.396H12.724V15.396H13.804V11.396ZM14.04 14.74C14.04 14.6806 14.0471 14.724 14.0176 14.8299C13.9875 14.9377 13.8989 15.1816 13.6582 15.4222L10.8298 12.5938C10.1085 13.3151 10.04 14.2566 10.04 14.74H14.04ZM13.6582 15.4222C13.4117 15.6687 13.1628 15.7559 13.0609 15.7838C12.9592 15.8117 12.9213 15.804 12.988 15.804V11.804C12.5121 11.804 11.557 11.8666 10.8298 12.5938L13.6582 15.4222ZM12.988 15.804H13.576V11.804H12.988V15.804ZM13.576 15.804C13.6427 15.804 13.6048 15.8117 13.5031 15.7838C13.4012 15.7559 13.1523 15.6687 12.9058 15.4222L15.7342 12.5938C15.007 11.8666 14.0519 11.804 13.576 11.804V15.804ZM12.9058 15.4222C12.6651 15.1816 12.5765 14.9377 12.5464 14.8299C12.5169 14.724 12.524 14.6806 12.524 14.74H16.524C16.524 14.2566 16.4555 13.3151 15.7342 12.5938L12.9058 15.4222ZM12.524 14.74V15.16H16.524V14.74H12.524ZM12.524 15.16C12.524 15.2194 12.5169 15.176 12.5464 15.0701C12.5765 14.9623 12.6651 14.7184 12.9058 14.4778L15.7342 17.3062C16.4555 16.5849 16.524 15.6434 16.524 15.16H12.524ZM12.9058 14.4778C13.1523 14.2313 13.4012 14.1441 13.5031 14.1162C13.6048 14.0883 13.6427 14.096 13.576 14.096V18.096C14.0519 18.096 15.007 18.0334 15.7342 17.3062L12.9058 14.4778ZM13.576 14.096H12.988V18.096H13.576V14.096ZM12.988 14.096C12.9213 14.096 12.9592 14.0883 13.0609 14.1162C13.1628 14.1441 13.4117 14.2313 13.6582 14.4778L10.8298 17.3062C11.557 18.0334 12.5121 18.096 12.988 18.096V14.096ZM13.6582 14.4778C13.8989 14.7184 13.9875 14.9623 14.0176 15.0701C14.0471 15.176 14.04 15.2194 14.04 15.16H10.04C10.04 15.6434 10.1085 16.5849 10.8298 17.3062L13.6582 14.4778ZM14.04 15.16V14.74H10.04V15.16H14.04Z" fill="#16a34a" mask="url(#path-3-outside-1_1281_33865)"/>
</svg>
