<svg width="18" height="9" viewBox="0 0 18 9" fill="none" xmlns="http://www.w3.org/2000/svg">
<path d="M16.7066 2.999L13.965 0.210923C13.8992 0.144089 13.8208 0.0910406 13.7345 0.0548394C13.6482 0.0186381 13.5556 0 13.4621 0C13.3686 0 13.276 0.0186381 13.1896 0.0548394C13.1033 0.0910406 13.025 0.144089 12.9591 0.210923C12.8272 0.344524 12.7531 0.525252 12.7531 0.713633C12.7531 0.902014 12.8272 1.08274 12.9591 1.21634L15.481 3.77624H1.03654C0.848654 3.77624 0.668467 3.85137 0.535614 3.98509C0.402761 4.11882 0.328125 4.30019 0.328125 4.4893C0.328125 4.67842 0.402761 4.85979 0.535614 4.99352C0.668467 5.12724 0.848654 5.20237 1.03654 5.20237H15.5235L12.9591 7.77653C12.8927 7.84282 12.84 7.92168 12.804 8.00857C12.7681 8.09547 12.7496 8.18867 12.7496 8.2828C12.7496 8.37694 12.7681 8.47014 12.804 8.55703C12.84 8.64392 12.8927 8.72279 12.9591 8.78908C13.025 8.85591 13.1033 8.90896 13.1896 8.94516C13.276 8.98136 13.3686 9 13.4621 9C13.5556 9 13.6482 8.98136 13.7345 8.94516C13.8208 8.90896 13.8992 8.85591 13.965 8.78908L16.7066 6.02239C17.1046 5.62129 17.3281 5.07758 17.3281 4.5107C17.3281 3.94381 17.1046 3.4001 16.7066 2.999Z" fill="white"/>
</svg>
