<svg width="13" height="17" viewBox="0 0 13 17" fill="none" xmlns="http://www.w3.org/2000/svg">
<path d="M6.5 8.49965C8.88983 8.49965 10.8333 6.5936 10.8333 4.24982C10.8333 1.90605 8.88983 0 6.5 0C4.11017 0 2.16667 1.90605 2.16667 4.24982C2.16667 6.5936 4.11017 8.49965 6.5 8.49965ZM6.5 1.41661C8.09322 1.41661 9.38889 2.6873 9.38889 4.24982C9.38889 5.81234 8.09322 7.08304 6.5 7.08304C4.90678 7.08304 3.61111 5.81234 3.61111 4.24982C3.61111 2.6873 4.90678 1.41661 6.5 1.41661ZM13 16.291C13 16.682 12.6772 16.9993 12.2778 16.9993C11.8784 16.9993 11.5556 16.682 11.5556 16.291C11.5556 14.1526 10.1653 12.3316 8.22683 11.6374L7.13122 13.2495L7.92061 16.0757C8.05278 16.5474 7.62811 17 7.05322 17H5.94678C5.37189 17 4.94794 16.5474 5.07939 16.0757L5.86878 13.2495L4.77317 11.6374C2.83472 12.3316 1.44444 14.1526 1.44444 16.2917C1.44444 16.6827 1.12089 17 0.722222 17C0.323556 17 0 16.6827 0 16.2917C0 12.7771 2.91633 9.91696 6.5 9.91696C10.0837 9.91696 13 12.7764 13 16.291Z" fill="white"/>
</svg>
