<svg width="18" height="18" viewBox="0 0 18 18" fill="none" xmlns="http://www.w3.org/2000/svg">
<path d="M6.75 17.25V18H5.25V17.25C5.25 16.8368 4.914 16.5 4.5 16.5H2.25C1.836 16.5 1.5 16.8368 1.5 17.25V18H0V17.25C0 16.0095 1.0095 15 2.25 15H4.5C5.7405 15 6.75 16.0095 6.75 17.25ZM15.75 15H13.5C12.2595 15 11.25 16.0095 11.25 17.25V18H12.75V17.25C12.75 16.8368 13.086 16.5 13.5 16.5H15.75C16.164 16.5 16.5 16.8368 16.5 17.25V18H18V17.25C18 16.0095 16.9905 15 15.75 15ZM3.375 14.25C1.9275 14.25 0.75 13.0725 0.75 11.625C0.75 10.1775 1.9275 9 3.375 9C4.8225 9 6 10.1775 6 11.625C6 13.0725 4.8225 14.25 3.375 14.25ZM3.375 12.75C3.99525 12.75 4.5 12.2452 4.5 11.625C4.5 11.0048 3.99525 10.5 3.375 10.5C2.75475 10.5 2.25 11.0048 2.25 11.625C2.25 12.2452 2.75475 12.75 3.375 12.75ZM14.625 14.25C13.1775 14.25 12 13.0725 12 11.625C12 10.1775 13.1775 9 14.625 9C16.0725 9 17.25 10.1775 17.25 11.625C17.25 13.0725 16.0725 14.25 14.625 14.25ZM14.625 12.75C15.2452 12.75 15.75 12.2452 15.75 11.625C15.75 11.0048 15.2452 10.5 14.625 10.5C14.0048 10.5 13.5 11.0048 13.5 11.625C13.5 12.2452 14.0048 12.75 14.625 12.75ZM18 3.75V9.258C17.6152 8.70975 17.1 8.26125 16.5 7.95375V7.5H1.5V7.95375C0.9 8.26125 0.38475 8.70975 0 9.258V3.75C0 2.5095 1.0095 1.5 2.25 1.5H4.5V0H6V1.5H12V0H13.5V1.5H15.75C16.9905 1.5 18 2.5095 18 3.75ZM1.5 6H16.5V3.75C16.5 3.33675 16.164 3 15.75 3H2.25C1.836 3 1.5 3.33675 1.5 3.75V6ZM8.25 18H9.75V16.5H8.25V18Z" fill="#74757B"/>
</svg>
