<svg width="16" height="19" viewBox="0 0 16 19" fill="none" xmlns="http://www.w3.org/2000/svg">
<path d="M7.9584 19L7.6752 18.8757C7.36 18.7387 0 15.4494 0 9.49288V4.32804C0.000280598 3.83101 0.159027 3.34674 0.453632 2.94419C0.748237 2.54164 1.16368 2.24133 1.6408 2.08604L8 0L14.3592 2.08604C14.8363 2.24133 15.2518 2.54164 15.5464 2.94419C15.841 3.34674 15.9997 3.83101 16 4.32804V9.49288C16 16.283 8.5696 18.7989 8.2528 18.9034L7.9584 19ZM8 1.66013L2.1472 3.58071C1.98796 3.63218 1.84926 3.7322 1.75096 3.86644C1.65267 4.00068 1.59983 4.16226 1.6 4.32804V9.49288C1.6 13.8423 6.752 16.6638 8.0376 17.2995C9.3208 16.7889 14.4 14.4511 14.4 9.49288V4.32804C14.4002 4.16226 14.3473 4.00068 14.249 3.86644C14.1507 3.7322 14.012 3.63218 13.8528 3.58071L8 1.66013Z" fill="#74757B"/>
<path d="M7.2888 11.5053H7.2624C7.05991 11.5022 6.86016 11.4585 6.67521 11.3769C6.49027 11.2953 6.32398 11.1773 6.1864 11.0303L4.3416 9.13029L5.4944 8.03621L7.2896 9.88871L11.4344 5.78708L12.5656 6.9065L8.3568 11.0715C8.21662 11.2101 8.05004 11.3198 7.86672 11.3942C7.68339 11.4687 7.48696 11.5065 7.2888 11.5053Z" fill="#74757B"/>
</svg>
