<svg width="27" height="27" viewBox="0 0 27 27" fill="none" xmlns="http://www.w3.org/2000/svg">
<rect width="27" height="27" rx="5" fill="#E32645"/>
<path d="M7.93896 17.9975H18.0605C18.372 17.9975 18.6789 17.9202 18.9553 17.772C19.2316 17.6238 19.4693 17.4092 19.6482 17.1463C19.8271 16.8834 19.942 16.5799 19.9831 16.2616C20.0241 15.9432 19.9902 15.6194 19.8842 15.3174L18.0404 10.0618C17.7255 8.89387 17.0482 7.8644 16.1121 7.13088C15.176 6.39735 14.0326 6.00014 12.8568 6C11.6328 5.99998 10.4454 6.4303 9.49068 7.21992C8.53592 8.00953 7.87088 9.11122 7.60537 10.3431L6.08611 15.4087C5.99666 15.7078 5.97655 16.0243 6.0274 16.3329C6.07825 16.6414 6.19864 16.9333 6.37888 17.1852C6.55912 17.437 6.79417 17.6417 7.06514 17.7828C7.3361 17.9239 7.6354 17.9974 7.93896 17.9975Z" fill="white"/>
<path d="M9.89913 19.3305C10.0475 20.0839 10.444 20.7612 11.0213 21.2477C11.5986 21.7342 12.3213 22 13.0669 22C13.8126 22 14.5353 21.7342 15.1126 21.2477C15.6899 20.7612 16.0864 20.0839 16.2348 19.3305H9.89913Z" fill="white"/>
</svg>
